<svg xmlns="http://www.w3.org/2000/svg" xmlns:xlink="http://www.w3.org/1999/xlink" width="500" zoomAndPan="magnify" viewBox="0 0 375 374.999991" height="500" preserveAspectRatio="xMidYMid meet" version="1.0"><defs><clipPath id="83800cc132"><path d="M 0 1.40625 L 188 1.40625 L 188 373.40625 L 0 373.40625 Z M 0 1.40625 " clip-rule="nonzero"/></clipPath><clipPath id="2522792ed0"><path d="M 177 1.40625 L 375 1.40625 L 375 203 L 177 203 Z M 177 1.40625 " clip-rule="nonzero"/></clipPath><clipPath id="c966a1a42f"><path d="M 177 278 L 375 278 L 375 373.40625 L 177 373.40625 Z M 177 278 " clip-rule="nonzero"/></clipPath></defs><g clip-path="url(#83800cc132)"><path fill="#000000" d="M 9.78125 363.558594 L 177.878906 363.558594 L 177.878906 11.265625 L 9.78125 11.265625 Z M 182.769531 373.335938 L 4.890625 373.335938 C 2.191406 373.335938 0 371.144531 0 368.449219 L 0 6.375 C 0 3.679688 2.191406 1.488281 4.890625 1.488281 L 182.769531 1.488281 C 185.472656 1.488281 187.660156 3.679688 187.660156 6.375 L 187.660156 368.445312 C 187.660156 371.144531 185.46875 373.335938 182.769531 373.335938 Z M 182.769531 373.335938 " fill-opacity="1" fill-rule="evenodd"/></g><g clip-path="url(#2522792ed0)"><path fill="#000000" d="M 370.109375 202.609375 C 367.410156 202.609375 365.214844 200.417969 365.214844 197.71875 L 365.21875 11.265625 L 182.769531 11.265625 C 180.070312 11.265625 177.878906 9.085938 177.878906 6.375 C 177.878906 3.679688 180.070312 1.488281 182.769531 1.488281 L 370.109375 1.488281 C 372.808594 1.488281 375 3.679688 375 6.375 L 375 197.71875 C 375 200.417969 372.808594 202.609375 370.109375 202.609375 Z M 370.109375 202.609375 " fill-opacity="1" fill-rule="evenodd"/></g><path fill="#000000" d="M 370.109375 287.972656 L 182.769531 287.972656 C 180.070312 287.972656 177.878906 285.78125 177.878906 283.085938 C 177.878906 280.382812 180.070312 278.195312 182.769531 278.195312 L 365.21875 278.195312 L 365.21875 202.609375 L 182.769531 202.609375 C 180.070312 202.609375 177.878906 200.421875 177.878906 197.722656 C 177.878906 195.023438 180.070312 192.832031 182.769531 192.832031 L 370.109375 192.832031 C 372.808594 192.832031 375 195.023438 375 197.722656 L 375 283.085938 C 375 285.78125 372.808594 287.972656 370.109375 287.972656 Z M 370.109375 287.972656 " fill-opacity="1" fill-rule="evenodd"/><g clip-path="url(#c966a1a42f)"><path fill="#000000" d="M 370.109375 373.335938 L 182.769531 373.335938 C 180.070312 373.335938 177.878906 371.15625 177.878906 368.449219 C 177.878906 365.75 180.070312 363.558594 182.769531 363.558594 L 365.21875 363.558594 L 365.21875 287.972656 L 182.769531 287.972656 C 180.070312 287.972656 177.878906 285.785156 177.878906 283.085938 C 177.878906 280.386719 180.070312 278.195312 182.769531 278.195312 L 370.109375 278.195312 C 372.808594 278.195312 375 280.386719 375 283.085938 L 375 368.449219 C 375 371.152344 372.808594 373.335938 370.109375 373.335938 Z M 370.109375 373.335938 " fill-opacity="1" fill-rule="evenodd"/></g><path fill="#000000" d="M 370.109375 47.191406 L 182.769531 47.191406 C 180.070312 47.191406 177.878906 45.003906 177.878906 42.304688 C 177.878906 39.605469 180.070312 37.414062 182.769531 37.414062 L 370.109375 37.414062 C 372.808594 37.414062 375 39.605469 375 42.304688 C 375 45.003906 372.808594 47.191406 370.109375 47.191406 Z M 370.109375 47.191406 " fill-opacity="1" fill-rule="evenodd"/><path fill="#000000" d="M 303.375 245.289062 L 249.503906 245.289062 C 246.804688 245.289062 244.613281 243.101562 244.613281 240.402344 C 244.613281 237.703125 246.804688 235.511719 249.503906 235.511719 L 303.375 235.511719 C 306.074219 235.511719 308.265625 237.703125 308.265625 240.402344 C 308.265625 243.101562 306.074219 245.289062 303.375 245.289062 Z M 303.375 245.289062 " fill-opacity="1" fill-rule="evenodd"/><path fill="#000000" d="M 303.375 330.652344 L 249.503906 330.652344 C 246.804688 330.652344 244.613281 328.464844 244.613281 325.765625 C 244.613281 323.066406 246.804688 320.878906 249.503906 320.878906 L 303.375 320.878906 C 306.074219 320.878906 308.265625 323.066406 308.265625 325.765625 C 308.265625 328.464844 306.074219 330.652344 303.375 330.652344 Z M 303.375 330.652344 " fill-opacity="1" fill-rule="evenodd"/><path fill="#000000" d="M 276.441406 81.097656 C 273.738281 81.097656 271.546875 78.90625 271.546875 76.210938 L 271.546875 63.164062 C 271.546875 60.464844 273.738281 58.277344 276.4375 58.277344 C 279.496094 58.277344 281.984375 55.789062 281.984375 52.734375 C 281.984375 49.679688 279.496094 47.191406 276.4375 47.191406 C 273.933594 47.191406 271.734375 48.878906 271.082031 51.296875 C 270.382812 53.902344 267.699219 55.457031 265.09375 54.753906 C 262.476562 54.058594 260.933594 51.375 261.628906 48.769531 C 263.421875 42.082031 269.507812 37.414062 276.4375 37.414062 C 284.886719 37.414062 291.765625 44.289062 291.765625 52.734375 C 291.765625 59.472656 287.394531 65.210938 281.332031 67.253906 L 281.332031 76.210938 C 281.332031 78.90625 279.136719 81.097656 276.441406 81.097656 Z M 276.441406 81.097656 " fill-opacity="1" fill-rule="evenodd"/><path fill="#000000" d="M 276.246094 81.003906 C 276.246094 81.003906 276.242188 81.003906 276.253906 81.003906 Z M 222.28125 112.578125 L 330.945312 112.578125 L 276.617188 81.21875 Z M 333.722656 122.34375 L 219.511719 122.34375 C 215.359375 122.34375 211.851562 119.652344 210.78125 115.65625 C 209.703125 111.652344 211.394531 107.558594 214.992188 105.488281 L 272.097656 72.53125 C 274.925781 70.902344 278.304688 70.902344 281.132812 72.53125 L 338.238281 105.488281 C 341.832031 107.558594 343.527344 111.652344 342.449219 115.65625 C 341.382812 119.652344 337.875 122.34375 333.722656 122.34375 Z M 333.722656 122.34375 " fill-opacity="1" fill-rule="evenodd"/><path fill="#000000" d="M 153.804688 215.03125 C 151.105469 215.03125 148.914062 212.84375 148.914062 210.144531 L 148.914062 164.6875 C 148.914062 161.988281 151.105469 159.800781 153.804688 159.800781 C 156.507812 159.800781 158.695312 161.988281 158.695312 164.6875 L 158.699219 210.144531 C 158.699219 212.84375 156.503906 215.03125 153.804688 215.03125 Z M 153.804688 215.03125 " fill-opacity="1" fill-rule="evenodd"/></svg>