<svg xmlns="http://www.w3.org/2000/svg" xmlns:xlink="http://www.w3.org/1999/xlink" width="43" zoomAndPan="magnify" viewBox="0 0 32.25 32.249998" height="43" preserveAspectRatio="xMidYMid meet" version="1.0"><defs><clipPath id="8420aec7ac"><path d="M 1.121094 0.390625 L 22 0.390625 L 22 29 L 1.121094 29 Z M 1.121094 0.390625 " clip-rule="nonzero"/></clipPath><clipPath id="ec5dd90ac0"><path d="M 12 17 L 30.394531 17 L 30.394531 31.175781 L 12 31.175781 Z M 12 17 " clip-rule="nonzero"/></clipPath></defs><g clip-path="url(#8420aec7ac)"><path fill="#000000" d="M 11.125 0.398438 C 16.644531 0.398438 21.132812 4.902344 21.132812 10.441406 C 21.132812 11.664062 20.914062 13 20.480469 14.414062 C 20.417969 14.609375 20.207031 14.722656 20.011719 14.660156 C 19.816406 14.597656 19.703125 14.390625 19.765625 14.191406 C 20.175781 12.847656 20.386719 11.585938 20.386719 10.441406 C 20.386719 5.316406 16.230469 1.148438 11.125 1.148438 C 6.019531 1.148438 1.863281 5.316406 1.863281 10.441406 C 1.863281 18.292969 11.296875 27.988281 11.390625 28.082031 C 11.535156 28.230469 11.535156 28.46875 11.386719 28.613281 C 11.3125 28.6875 11.21875 28.722656 11.125 28.722656 C 11.027344 28.722656 10.929688 28.683594 10.855469 28.609375 C 10.832031 28.585938 8.398438 26.09375 6 22.644531 C 2.757812 17.984375 1.117188 13.878906 1.117188 10.441406 C 1.117188 4.902344 5.605469 0.398438 11.125 0.398438 Z M 11.125 0.398438 " fill-opacity="1" fill-rule="nonzero"/></g><path fill="#000000" d="M 6.902344 10.441406 C 6.902344 8.105469 8.796875 6.203125 11.125 6.203125 C 13.453125 6.203125 15.347656 8.105469 15.347656 10.441406 C 15.347656 12.777344 13.453125 14.679688 11.125 14.679688 C 8.796875 14.679688 6.902344 12.777344 6.902344 10.441406 Z M 14.597656 10.441406 C 14.597656 8.519531 13.039062 6.953125 11.125 6.953125 C 9.207031 6.953125 7.648438 8.519531 7.648438 10.441406 C 7.648438 12.363281 9.207031 13.929688 11.125 13.929688 C 13.039062 13.929688 14.597656 12.363281 14.597656 10.441406 Z M 14.597656 10.441406 " fill-opacity="1" fill-rule="nonzero"/><g clip-path="url(#ec5dd90ac0)"><path fill="#000000" d="M 21.667969 17.199219 L 30.269531 24.796875 C 30.421875 24.933594 30.4375 25.171875 30.300781 25.328125 C 30.164062 25.484375 29.929688 25.496094 29.773438 25.359375 L 27.96875 23.765625 L 27.96875 30.792969 C 27.96875 31 27.800781 31.167969 27.59375 31.167969 L 15.25 31.167969 C 15.042969 31.167969 14.875 31 14.875 30.792969 L 14.875 23.765625 L 13.066406 25.359375 C 12.996094 25.425781 12.910156 25.457031 12.820312 25.457031 C 12.71875 25.457031 12.613281 25.414062 12.542969 25.328125 C 12.402344 25.171875 12.417969 24.933594 12.574219 24.796875 L 21.175781 17.199219 C 21.316406 17.074219 21.527344 17.074219 21.667969 17.199219 Z M 15.621094 23.210938 L 15.621094 30.417969 L 27.21875 30.417969 L 27.21875 23.210938 C 27.21875 23.175781 27.222656 23.144531 27.234375 23.117188 L 21.421875 17.980469 L 15.609375 23.117188 C 15.617188 23.144531 15.621094 23.175781 15.621094 23.210938 Z M 15.621094 23.210938 " fill-opacity="1" fill-rule="nonzero"/></g><path fill="#000000" d="M 23.636719 24.46875 L 23.636719 28.164062 C 23.636719 28.375 23.46875 28.539062 23.261719 28.539062 L 19.578125 28.539062 C 19.371094 28.539062 19.203125 28.375 19.203125 28.164062 L 19.203125 24.46875 C 19.203125 24.261719 19.371094 24.09375 19.578125 24.09375 L 23.261719 24.09375 C 23.46875 24.09375 23.636719 24.261719 23.636719 24.46875 Z M 22.886719 24.84375 L 19.953125 24.84375 L 19.953125 27.789062 L 22.886719 27.789062 Z M 22.886719 24.84375 " fill-opacity="1" fill-rule="nonzero"/></svg>