<svg xmlns="http://www.w3.org/2000/svg" xmlns:xlink="http://www.w3.org/1999/xlink" width="73" zoomAndPan="magnify" viewBox="0 0 54.75 54.749999" height="73" preserveAspectRatio="xMidYMid meet" version="1.0"><defs><clipPath id="276317ce61"><path d="M 0.601562 0.601562 L 53.851562 0.601562 L 53.851562 53.851562 L 0.601562 53.851562 Z M 0.601562 0.601562 " clip-rule="nonzero"/></clipPath></defs><path fill="#000000" d="M 24.4375 28.027344 L 33.726562 18.742188 L 37.582031 22.597656 L 24.4375 35.742188 L 16.902344 28.207031 L 20.757812 24.347656 Z M 24.4375 28.027344 " fill-opacity="1" fill-rule="evenodd"/><g clip-path="url(#276317ce61)"><path fill="#000000" d="M 32.910156 6.996094 C 34.546875 7.453125 36.101562 8.105469 37.550781 8.921875 L 40.792969 5.679688 C 41.492188 4.976562 42.636719 4.976562 43.335938 5.679688 L 48.804688 11.144531 C 49.503906 11.847656 49.503906 12.992188 48.804688 13.691406 L 45.5625 16.933594 C 46.382812 18.382812 47.03125 19.9375 47.488281 21.574219 L 52.070312 21.574219 C 53.0625 21.574219 53.871094 22.386719 53.871094 23.375 L 53.871094 31.109375 C 53.871094 32.097656 53.0625 32.910156 52.070312 32.910156 L 47.488281 32.910156 C 47.03125 34.546875 46.378906 36.101562 45.5625 37.550781 L 48.804688 40.792969 C 49.503906 41.492188 49.503906 42.636719 48.804688 43.335938 L 43.335938 48.804688 C 42.636719 49.503906 41.492188 49.503906 40.792969 48.804688 L 37.550781 45.5625 C 36.101562 46.378906 34.546875 47.03125 32.910156 47.488281 L 32.910156 52.070312 C 32.910156 53.0625 32.097656 53.871094 31.109375 53.871094 L 23.375 53.871094 C 22.386719 53.871094 21.574219 53.0625 21.574219 52.070312 L 21.574219 47.488281 C 19.9375 47.03125 18.382812 46.378906 16.933594 45.5625 L 13.691406 48.804688 C 12.992188 49.503906 11.847656 49.503906 11.148438 48.804688 L 5.679688 43.335938 C 4.976562 42.636719 4.976562 41.492188 5.679688 40.792969 L 8.921875 37.550781 C 8.101562 36.101562 7.453125 34.546875 6.996094 32.910156 L 2.414062 32.910156 C 1.421875 32.910156 0.613281 32.097656 0.613281 31.109375 L 0.613281 23.375 C 0.613281 22.386719 1.421875 21.574219 2.414062 21.574219 L 6.996094 21.574219 C 7.453125 19.9375 8.101562 18.382812 8.921875 16.933594 L 5.679688 13.691406 C 4.976562 12.992188 4.976562 11.847656 5.679688 11.144531 L 11.144531 5.679688 C 11.847656 4.976562 12.992188 4.976562 13.691406 5.679688 L 16.933594 8.921875 C 18.382812 8.105469 19.9375 7.453125 21.574219 6.996094 L 21.574219 2.414062 C 21.574219 1.421875 22.386719 0.613281 23.375 0.613281 L 31.109375 0.613281 C 32.097656 0.613281 32.910156 1.421875 32.910156 2.414062 Z M 27.242188 11.460938 C 35.957031 11.460938 43.023438 18.527344 43.023438 27.242188 C 43.023438 35.957031 35.957031 43.023438 27.242188 43.023438 C 18.527344 43.023438 11.460938 35.957031 11.460938 27.242188 C 11.460938 18.527344 18.527344 11.460938 27.242188 11.460938 Z M 27.242188 11.460938 " fill-opacity="1" fill-rule="evenodd"/></g></svg>