<?xml version="1.0" encoding="utf-8"?>
<!-- Generator: Adobe Illustrator 27.2.0, SVG Export Plug-In . SVG Version: 6.00 Build 0)  -->
<svg version="1.1" id="Layer_1" xmlns="http://www.w3.org/2000/svg" xmlns:xlink="http://www.w3.org/1999/xlink" x="0px" y="0px"
	 viewBox="0 0 60.1 59.9" style="enable-background:new 0 0 60.1 59.9;" xml:space="preserve">
<style type="text/css">
	.st0{fill:#231F20;}
</style>
<path id="address" class="st0" d="M24,53.8v6.1l-1.5-1.2c-4-3.3-7.7-7-11.1-10.9C3.8,39.1,0,31.3,0,24.7V24
	C-0.1,10.7,10.6-0.1,23.8-0.2S47.9,10.4,48,23.7c0,0.1,0,0.2,0,0.3v0.7c0,0.6,0,1.1-0.1,1.7l-4.7-4.3C42.2,11.5,32.7,3.7,22.1,4.8
	C12.2,5.8,4.7,14.1,4.7,24v0.7C4.7,36,19.2,49.7,24,53.8L24,53.8z M38.4,50.4h7v-7h-7L38.4,50.4z M24,14c5.5,0,9.9,4.5,9.9,9.9
	s-4.5,9.9-9.9,9.9S14,29.5,14,24C14.1,18.5,18.5,14.1,24,14z M24,18.7c-2.9,0-5.3,2.4-5.3,5.3s2.4,5.3,5.3,5.3s5.3-2.4,5.3-5.3
	C29.3,21.1,26.9,18.7,24,18.7L24,18.7z M56.9,47.3l-1.3-1.2v7.5c0,3.5-2.8,6.3-6.3,6.3H34.4c-3.5,0-6.3-2.8-6.3-6.3v-7.5l-1.3,1.2
	l-3.2-3.5l18.2-16.6l18.2,16.6L56.9,47.3z M50.9,41.8l-9.1-8.3l-9.1,8.3v11.8c0,0.9,0.7,1.7,1.7,1.7h14.8c0.9,0,1.7-0.7,1.7-1.7
	L50.9,41.8z"/>
</svg>
