<svg xmlns="http://www.w3.org/2000/svg" xmlns:xlink="http://www.w3.org/1999/xlink" width="50" zoomAndPan="magnify" viewBox="0 0 37.5 37.499999" height="50" preserveAspectRatio="xMidYMid meet" version="1.0"><defs><clipPath id="4463de9ba7"><path d="M 0.816406 0 L 36.816406 0 L 36.816406 37.007812 L 0.816406 37.007812 Z M 0.816406 0 " clip-rule="nonzero"/></clipPath><clipPath id="5d07169756"><path d="M 6.550781 26 L 31.300781 26 L 31.300781 33.765625 L 6.550781 33.765625 Z M 6.550781 26 " clip-rule="nonzero"/></clipPath></defs><g clip-path="url(#4463de9ba7)"><path fill="#000000" d="M 9.914062 9.382812 C 4.90625 14.535156 0.8125 18.8125 0.8125 18.878906 C 0.8125 19.152344 0.945312 19.175781 2.589844 19.175781 L 4.1875 19.175781 L 4.1875 28.226562 C 4.1875 35.171875 4.207031 37.304688 4.273438 37.371094 C 4.398438 37.496094 33.011719 37.496094 33.136719 37.371094 C 33.203125 37.304688 33.222656 35.171875 33.222656 28.226562 L 33.222656 19.175781 L 34.929688 19.175781 C 36.675781 19.175781 36.816406 19.152344 36.816406 18.886719 C 36.816406 18.820312 35.90625 17.789062 34.800781 16.59375 L 32.78125 14.417969 L 32.777344 10.179688 C 32.769531 5.085938 32.753906 4.648438 32.585938 4.515625 C 32.429688 4.40625 28.488281 4.390625 28.308594 4.5 C 28.214844 4.5625 28.191406 4.945312 28.164062 6.992188 L 28.128906 9.417969 L 24.242188 5.304688 C 22.109375 3.035156 20.105469 0.917969 19.796875 0.59375 C 19.496094 0.269531 19.1875 0.00390625 19.121094 0.00390625 C 19.058594 0.00390625 14.914062 4.222656 9.914062 9.382812 Z M 23.726562 5.617188 C 27.796875 9.921875 28.347656 10.480469 28.515625 10.460938 L 28.714844 10.4375 L 28.785156 5.054688 L 30.449219 5.03125 C 32.355469 5.011719 32.226562 4.960938 32.1875 5.742188 C 32.179688 5.96875 32.171875 8.070312 32.179688 10.402344 L 32.195312 14.640625 L 35.804688 18.546875 L 34.316406 18.570312 C 33.371094 18.578125 32.796875 18.613281 32.730469 18.664062 C 32.652344 18.730469 32.636719 20.367188 32.636719 27.808594 L 32.636719 36.871094 L 4.773438 36.871094 L 4.773438 27.808594 C 4.773438 20.375 4.757812 18.730469 4.679688 18.664062 C 4.613281 18.621094 4.070312 18.578125 3.210938 18.570312 L 1.839844 18.546875 L 10.472656 9.648438 C 15.222656 4.746094 19.117188 0.742188 19.117188 0.742188 C 19.121094 0.742188 21.199219 2.933594 23.726562 5.617188 Z M 23.726562 5.617188 " fill-opacity="1" fill-rule="nonzero"/></g><path fill="#000000" d="M 11.964844 26.089844 C 12.273438 26.089844 12.570312 26.035156 12.851562 25.917969 C 13.136719 25.800781 13.386719 25.636719 13.605469 25.421875 C 13.824219 25.207031 13.992188 24.957031 14.109375 24.675781 C 14.226562 24.398438 14.285156 24.105469 14.285156 23.800781 C 14.285156 23.496094 14.226562 23.207031 14.109375 22.925781 C 13.992188 22.644531 13.824219 22.398438 13.605469 22.183594 C 13.386719 21.96875 13.136719 21.800781 12.851562 21.6875 C 12.570312 21.570312 12.273438 21.511719 11.964844 21.511719 C 11.65625 21.511719 11.359375 21.570312 11.078125 21.6875 C 10.792969 21.800781 10.542969 21.96875 10.324219 22.183594 C 10.105469 22.398438 9.9375 22.644531 9.820312 22.925781 C 9.703125 23.207031 9.644531 23.496094 9.644531 23.800781 C 9.644531 24.105469 9.703125 24.398438 9.820312 24.675781 C 9.9375 24.957031 10.105469 25.207031 10.324219 25.421875 C 10.542969 25.636719 10.792969 25.800781 11.078125 25.917969 C 11.359375 26.035156 11.65625 26.089844 11.964844 26.089844 Z M 11.964844 22.273438 C 12.167969 22.273438 12.367188 22.3125 12.558594 22.390625 C 12.746094 22.46875 12.914062 22.578125 13.058594 22.722656 C 13.203125 22.863281 13.316406 23.03125 13.394531 23.21875 C 13.472656 23.402344 13.511719 23.597656 13.511719 23.800781 C 13.511719 24.003906 13.472656 24.199219 13.394531 24.386719 C 13.316406 24.574219 13.203125 24.738281 13.058594 24.882812 C 12.914062 25.023438 12.746094 25.132812 12.558594 25.210938 C 12.367188 25.289062 12.167969 25.328125 11.964844 25.328125 C 11.757812 25.328125 11.5625 25.289062 11.371094 25.210938 C 11.183594 25.132812 11.015625 25.023438 10.871094 24.882812 C 10.726562 24.738281 10.613281 24.574219 10.535156 24.386719 C 10.457031 24.199219 10.417969 24.003906 10.417969 23.800781 C 10.417969 23.597656 10.457031 23.402344 10.535156 23.21875 C 10.613281 23.03125 10.726562 22.863281 10.871094 22.722656 C 11.015625 22.578125 11.183594 22.46875 11.371094 22.390625 C 11.5625 22.3125 11.757812 22.273438 11.964844 22.273438 Z M 11.964844 22.273438 " fill-opacity="1" fill-rule="nonzero"/><path fill="#000000" d="M 25.886719 26.089844 C 26.195312 26.089844 26.492188 26.035156 26.773438 25.917969 C 27.058594 25.800781 27.308594 25.636719 27.527344 25.421875 C 27.746094 25.207031 27.914062 24.957031 28.03125 24.675781 C 28.148438 24.398438 28.207031 24.105469 28.207031 23.800781 C 28.207031 23.496094 28.148438 23.207031 28.03125 22.925781 C 27.914062 22.644531 27.746094 22.398438 27.527344 22.183594 C 27.308594 21.96875 27.058594 21.800781 26.773438 21.6875 C 26.492188 21.570312 26.195312 21.511719 25.886719 21.511719 C 25.578125 21.511719 25.28125 21.570312 25 21.6875 C 24.714844 21.800781 24.464844 21.96875 24.246094 22.183594 C 24.027344 22.398438 23.859375 22.644531 23.742188 22.925781 C 23.625 23.207031 23.566406 23.496094 23.566406 23.800781 C 23.566406 24.105469 23.625 24.398438 23.742188 24.675781 C 23.859375 24.957031 24.027344 25.207031 24.246094 25.421875 C 24.464844 25.636719 24.714844 25.800781 25 25.917969 C 25.28125 26.035156 25.578125 26.089844 25.886719 26.089844 Z M 25.886719 22.273438 C 26.089844 22.273438 26.289062 22.3125 26.480469 22.390625 C 26.667969 22.46875 26.835938 22.578125 26.980469 22.722656 C 27.125 22.863281 27.238281 23.03125 27.316406 23.21875 C 27.394531 23.402344 27.433594 23.597656 27.433594 23.800781 C 27.433594 24.003906 27.394531 24.199219 27.316406 24.386719 C 27.238281 24.574219 27.125 24.738281 26.980469 24.882812 C 26.835938 25.023438 26.667969 25.132812 26.480469 25.210938 C 26.289062 25.289062 26.089844 25.328125 25.886719 25.328125 C 25.679688 25.328125 25.484375 25.289062 25.292969 25.210938 C 25.105469 25.132812 24.9375 25.023438 24.792969 24.882812 C 24.648438 24.738281 24.535156 24.574219 24.457031 24.386719 C 24.378906 24.199219 24.339844 24.003906 24.339844 23.800781 C 24.339844 23.597656 24.378906 23.402344 24.457031 23.21875 C 24.535156 23.03125 24.648438 22.863281 24.792969 22.722656 C 24.9375 22.578125 25.105469 22.46875 25.292969 22.390625 C 25.484375 22.3125 25.679688 22.273438 25.886719 22.273438 Z M 25.886719 22.273438 " fill-opacity="1" fill-rule="nonzero"/><g clip-path="url(#5d07169756)"><path fill="#000000" d="M 30.914062 32.960938 L 29.871094 32.960938 C 30.046875 32.738281 30.136719 32.480469 30.140625 32.199219 L 30.140625 28.761719 C 30.140625 27.5 28.925781 26.472656 27.433594 26.472656 L 24.339844 26.472656 C 23 26.472656 21.886719 27.300781 21.675781 28.382812 L 20.085938 28.382812 C 19.960938 28.378906 19.859375 28.429688 19.78125 28.527344 C 19.703125 28.625 19.679688 28.734375 19.710938 28.855469 L 20.75 32.960938 L 17.101562 32.960938 L 18.152344 28.855469 C 18.183594 28.734375 18.160156 28.625 18.082031 28.527344 C 18 28.425781 17.894531 28.375 17.765625 28.382812 L 16.175781 28.382812 C 15.964844 27.300781 14.851562 26.472656 13.511719 26.472656 L 10.417969 26.472656 C 8.925781 26.472656 7.710938 27.5 7.710938 28.761719 L 7.710938 32.199219 C 7.714844 32.480469 7.804688 32.738281 7.980469 32.960938 L 6.9375 32.960938 C 6.832031 32.960938 6.738281 33 6.664062 33.074219 C 6.589844 33.148438 6.550781 33.238281 6.550781 33.34375 C 6.550781 33.449219 6.589844 33.539062 6.664062 33.613281 C 6.738281 33.6875 6.832031 33.722656 6.9375 33.722656 L 30.914062 33.722656 C 31.019531 33.722656 31.113281 33.6875 31.1875 33.613281 C 31.261719 33.539062 31.300781 33.449219 31.300781 33.34375 C 31.300781 33.238281 31.261719 33.148438 31.1875 33.074219 C 31.113281 33 31.019531 32.960938 30.914062 32.960938 Z M 13.125 32.960938 L 9.644531 32.960938 C 9.015625 32.960938 8.484375 32.609375 8.484375 32.199219 L 8.484375 28.761719 C 8.484375 27.917969 9.351562 27.234375 10.417969 27.234375 L 13.511719 27.234375 C 13.914062 27.214844 14.285156 27.304688 14.628906 27.515625 C 14.96875 27.726562 15.21875 28.015625 15.375 28.382812 L 12.351562 28.382812 C 12.144531 28.375 12.015625 28.472656 11.964844 28.671875 L 11.277344 31.433594 L 10.417969 31.433594 L 10.417969 30.289062 C 10.417969 30.183594 10.378906 30.09375 10.304688 30.019531 C 10.230469 29.945312 10.136719 29.90625 10.03125 29.90625 C 9.925781 29.90625 9.832031 29.945312 9.757812 30.019531 C 9.683594 30.09375 9.644531 30.183594 9.644531 30.289062 L 9.644531 31.816406 C 9.644531 31.921875 9.683594 32.011719 9.757812 32.085938 C 9.832031 32.160156 9.925781 32.199219 10.03125 32.199219 L 14.21875 32.199219 C 14.136719 32.425781 13.996094 32.609375 13.796875 32.75 C 13.59375 32.890625 13.371094 32.960938 13.125 32.960938 Z M 16.304688 32.960938 L 14.671875 32.960938 C 14.933594 32.621094 15.0625 32.242188 15.058594 31.816406 C 15.058594 31.710938 15.019531 31.621094 14.945312 31.546875 C 14.871094 31.472656 14.777344 31.433594 14.671875 31.433594 L 12.074219 31.433594 L 12.652344 29.144531 L 17.269531 29.144531 Z M 21.546875 32.960938 L 20.582031 29.144531 L 25.199219 29.144531 L 25.777344 31.433594 L 23.179688 31.433594 C 23.074219 31.433594 22.980469 31.472656 22.90625 31.546875 C 22.832031 31.621094 22.792969 31.710938 22.792969 31.816406 C 22.789062 32.242188 22.917969 32.621094 23.179688 32.960938 Z M 29.367188 32.199219 C 29.367188 32.609375 28.835938 32.960938 28.207031 32.960938 L 24.726562 32.960938 C 24.480469 32.960938 24.257812 32.890625 24.054688 32.75 C 23.855469 32.609375 23.714844 32.425781 23.632812 32.199219 L 27.820312 32.199219 C 27.925781 32.199219 28.019531 32.160156 28.09375 32.085938 C 28.167969 32.011719 28.207031 31.921875 28.207031 31.816406 L 28.207031 30.289062 C 28.207031 30.183594 28.167969 30.09375 28.09375 30.019531 C 28.019531 29.945312 27.925781 29.90625 27.820312 29.90625 C 27.714844 29.90625 27.621094 29.945312 27.546875 30.019531 C 27.472656 30.09375 27.433594 30.183594 27.433594 30.289062 L 27.433594 31.433594 L 26.574219 31.433594 L 25.886719 28.671875 C 25.835938 28.472656 25.707031 28.375 25.5 28.382812 L 22.476562 28.382812 C 22.632812 28.015625 22.882812 27.726562 23.222656 27.515625 C 23.566406 27.304688 23.9375 27.214844 24.339844 27.234375 L 27.433594 27.234375 C 28.5 27.234375 29.367188 27.917969 29.367188 28.761719 Z M 29.367188 32.199219 " fill-opacity="1" fill-rule="nonzero"/></g><path fill="#000000" d="M 24.148438 17.3125 C 24.148438 16.859375 24.0625 16.417969 23.886719 16 C 23.707031 15.578125 23.457031 15.207031 23.128906 14.882812 C 22.804688 14.5625 22.429688 14.3125 22 14.140625 C 21.574219 13.964844 21.132812 13.878906 20.667969 13.878906 C 20.292969 13.878906 19.929688 13.9375 19.574219 14.058594 C 19.398438 13.886719 19.203125 13.734375 18.996094 13.605469 C 18.785156 13.472656 18.5625 13.367188 18.332031 13.285156 C 18.097656 13.199219 17.859375 13.140625 17.613281 13.109375 C 17.367188 13.074219 17.121094 13.066406 16.871094 13.085938 C 16.625 13.105469 16.382812 13.148438 16.144531 13.21875 C 15.90625 13.289062 15.679688 13.382812 15.460938 13.5 C 15.246094 13.621094 15.042969 13.757812 14.855469 13.917969 C 14.667969 14.082031 14.5 14.257812 14.351562 14.453125 C 14.203125 14.652344 14.078125 14.859375 13.972656 15.082031 C 13.871094 15.304688 13.792969 15.535156 13.738281 15.777344 C 13.6875 16.015625 13.660156 16.257812 13.660156 16.5 C 13.660156 16.746094 13.683594 16.988281 13.734375 17.226562 C 13.789062 17.46875 13.863281 17.699219 13.964844 17.921875 C 14.066406 18.144531 14.191406 18.355469 14.339844 18.550781 C 14.488281 18.75 14.65625 18.929688 14.839844 19.089844 C 15.027344 19.253906 15.226562 19.390625 15.445312 19.511719 L 15.273438 20.695312 C 15.246094 20.859375 15.300781 20.984375 15.441406 21.078125 C 15.507812 21.121094 15.578125 21.140625 15.65625 21.140625 C 15.726562 21.140625 15.792969 21.125 15.851562 21.089844 L 17.917969 19.925781 C 18.046875 19.894531 18.175781 19.859375 18.304688 19.816406 C 18.773438 20.261719 19.328125 20.550781 19.960938 20.6875 L 22.019531 21.84375 C 22.078125 21.878906 22.144531 21.894531 22.210938 21.894531 C 22.292969 21.894531 22.363281 21.871094 22.429688 21.828125 C 22.570312 21.738281 22.625 21.609375 22.59375 21.445312 L 22.425781 20.261719 C 22.957031 19.957031 23.375 19.539062 23.683594 19.015625 C 23.992188 18.488281 24.148438 17.921875 24.148438 17.3125 Z M 17.691406 19.175781 C 17.648438 19.183594 17.609375 19.199219 17.570312 19.21875 L 16.136719 20.03125 L 16.21875 19.355469 C 16.238281 19.179688 16.164062 19.050781 16.003906 18.972656 C 15.808594 18.882812 15.632812 18.769531 15.464844 18.636719 C 15.300781 18.503906 15.152344 18.355469 15.023438 18.1875 C 14.894531 18.019531 14.785156 17.839844 14.699219 17.648438 C 14.613281 17.453125 14.550781 17.253906 14.511719 17.046875 C 14.472656 16.839844 14.460938 16.632812 14.472656 16.421875 C 14.484375 16.210938 14.519531 16.003906 14.582031 15.804688 C 14.640625 15.601562 14.726562 15.410156 14.832031 15.226562 C 14.9375 15.042969 15.066406 14.878906 15.214844 14.726562 C 15.359375 14.570312 15.523438 14.4375 15.703125 14.324219 C 15.882812 14.210938 16.070312 14.117188 16.273438 14.046875 C 16.472656 13.976562 16.679688 13.929688 16.894531 13.910156 C 17.105469 13.886719 17.316406 13.890625 17.527344 13.917969 C 17.738281 13.945312 17.945312 13.996094 18.144531 14.070312 C 18.34375 14.148438 18.53125 14.242188 18.707031 14.363281 C 18.882812 14.484375 19.042969 14.621094 19.183594 14.777344 C 19.328125 14.933594 19.449219 15.105469 19.550781 15.289062 C 19.65625 15.472656 19.734375 15.667969 19.789062 15.871094 C 19.84375 16.074219 19.875 16.28125 19.882812 16.492188 C 19.886719 16.703125 19.867188 16.910156 19.824219 17.117188 C 19.78125 17.324219 19.710938 17.519531 19.621094 17.710938 C 19.527344 17.902344 19.417969 18.078125 19.28125 18.242188 C 19.148438 18.40625 18.996094 18.550781 18.828125 18.679688 C 18.660156 18.808594 18.476562 18.917969 18.28125 19.003906 C 18.089844 19.089844 17.886719 19.152344 17.675781 19.191406 Z M 21.839844 19.722656 C 21.679688 19.800781 21.605469 19.925781 21.625 20.101562 L 21.722656 20.777344 L 20.285156 19.984375 C 20.25 19.964844 20.207031 19.953125 20.167969 19.941406 C 19.757812 19.863281 19.386719 19.699219 19.058594 19.449219 C 19.445312 19.207031 19.773438 18.894531 20.039062 18.523438 C 20.304688 18.148438 20.488281 17.738281 20.585938 17.292969 C 20.6875 16.847656 20.695312 16.398438 20.613281 15.949219 C 20.53125 15.5 20.367188 15.082031 20.117188 14.699219 C 20.300781 14.660156 20.484375 14.640625 20.667969 14.640625 C 20.976562 14.644531 21.273438 14.695312 21.5625 14.796875 C 21.851562 14.894531 22.113281 15.042969 22.351562 15.230469 C 22.59375 15.417969 22.792969 15.644531 22.953125 15.898438 C 23.117188 16.15625 23.230469 16.429688 23.296875 16.726562 C 23.367188 17.019531 23.382812 17.316406 23.347656 17.617188 C 23.3125 17.917969 23.226562 18.203125 23.09375 18.476562 C 22.960938 18.75 22.785156 18.992188 22.570312 19.207031 C 22.351562 19.417969 22.105469 19.589844 21.828125 19.722656 Z M 21.839844 19.722656 " fill-opacity="1" fill-rule="nonzero"/><path fill="#000000" d="M 16.609375 16.550781 C 16.609375 16.707031 16.550781 16.84375 16.4375 16.953125 C 16.324219 17.066406 16.1875 17.121094 16.027344 17.121094 C 15.867188 17.121094 15.730469 17.066406 15.617188 16.953125 C 15.503906 16.84375 15.449219 16.707031 15.449219 16.550781 C 15.449219 16.390625 15.503906 16.257812 15.617188 16.144531 C 15.730469 16.035156 15.867188 15.976562 16.027344 15.976562 C 16.1875 15.976562 16.324219 16.035156 16.4375 16.144531 C 16.550781 16.257812 16.609375 16.390625 16.609375 16.550781 Z M 16.609375 16.550781 " fill-opacity="1" fill-rule="nonzero"/><path fill="#000000" d="M 17.769531 16.550781 C 17.769531 16.707031 17.710938 16.84375 17.597656 16.953125 C 17.484375 17.066406 17.347656 17.121094 17.1875 17.121094 C 17.027344 17.121094 16.890625 17.066406 16.777344 16.953125 C 16.664062 16.84375 16.609375 16.707031 16.609375 16.550781 C 16.609375 16.390625 16.664062 16.257812 16.777344 16.144531 C 16.890625 16.035156 17.027344 15.976562 17.1875 15.976562 C 17.347656 15.976562 17.484375 16.035156 17.597656 16.144531 C 17.710938 16.257812 17.769531 16.390625 17.769531 16.550781 Z M 17.769531 16.550781 " fill-opacity="1" fill-rule="nonzero"/><path fill="#000000" d="M 18.929688 16.550781 C 18.929688 16.707031 18.871094 16.84375 18.757812 16.953125 C 18.644531 17.066406 18.507812 17.121094 18.347656 17.121094 C 18.1875 17.121094 18.050781 17.066406 17.9375 16.953125 C 17.824219 16.84375 17.769531 16.707031 17.769531 16.550781 C 17.769531 16.390625 17.824219 16.257812 17.9375 16.144531 C 18.050781 16.035156 18.1875 15.976562 18.347656 15.976562 C 18.507812 15.976562 18.644531 16.035156 18.757812 16.144531 C 18.871094 16.257812 18.929688 16.390625 18.929688 16.550781 Z M 18.929688 16.550781 " fill-opacity="1" fill-rule="nonzero"/></svg>