<svg xmlns="http://www.w3.org/2000/svg" xmlns:xlink="http://www.w3.org/1999/xlink" width="73" zoomAndPan="magnify" viewBox="0 0 54.75 54.749999" height="73" preserveAspectRatio="xMidYMid meet" version="1.0"><defs><clipPath id="cb241040fc"><path d="M 0.71875 11 L 53.96875 11 L 53.96875 54 L 0.71875 54 Z M 0.71875 11 " clip-rule="nonzero"/></clipPath><clipPath id="0053be5263"><path d="M 8.324219 0 L 24 0 L 24 14.925781 L 8.324219 14.925781 Z M 8.324219 0 " clip-rule="nonzero"/></clipPath><clipPath id="ef3f16db6e"><path d="M 16.164062 -0.75 C 11.832031 -0.75 8.324219 2.757812 8.324219 7.085938 C 8.324219 11.417969 11.832031 14.925781 16.164062 14.925781 C 20.492188 14.925781 24 11.417969 24 7.085938 C 24 2.757812 20.492188 -0.75 16.164062 -0.75 " clip-rule="nonzero"/></clipPath><clipPath id="3125567022"><path d="M 6 17 L 29 17 L 29 40 L 6 40 Z M 6 17 " clip-rule="nonzero"/></clipPath><clipPath id="cee7ba2742"><path d="M 23.007812 17.683594 L 28.453125 23.128906 L 11.9375 39.640625 L 6.496094 34.199219 Z M 23.007812 17.683594 " clip-rule="nonzero"/></clipPath><clipPath id="ae57763dc5"><path d="M 23.007812 17.683594 L 28.417969 23.09375 L 11.929688 39.582031 L 6.519531 34.171875 Z M 23.007812 17.683594 " clip-rule="nonzero"/></clipPath><clipPath id="9fab97a122"><path d="M 22 3 L 43 3 L 43 24 L 22 24 Z M 22 3 " clip-rule="nonzero"/></clipPath><clipPath id="8c939c220e"><path d="M 39.359375 3.523438 L 42.625 6.792969 L 26.113281 23.304688 L 22.847656 20.039062 Z M 39.359375 3.523438 " clip-rule="nonzero"/></clipPath><clipPath id="d6f7e0ab38"><path d="M 39.359375 3.523438 L 42.460938 6.625 L 25.972656 23.117188 L 22.871094 20.015625 Z M 39.359375 3.523438 " clip-rule="nonzero"/></clipPath><clipPath id="39ab118d76"><path d="M 15 7 L 37 7 L 37 29 L 15 29 Z M 15 7 " clip-rule="nonzero"/></clipPath><clipPath id="cb0ec87c7c"><path d="M 15.058594 12.136719 L 20.140625 7.054688 L 36.652344 23.570312 L 31.574219 28.648438 Z M 15.058594 12.136719 " clip-rule="nonzero"/></clipPath><clipPath id="3da52a36c7"><path d="M 15.058594 12.136719 L 20.113281 7.082031 L 36.601562 23.570312 L 31.546875 28.625 Z M 15.058594 12.136719 " clip-rule="nonzero"/></clipPath><clipPath id="f501c0063b"><path d="M 9.238281 1.675781 L 45.238281 1.675781 L 45.238281 36.925781 L 9.238281 36.925781 Z M 9.238281 1.675781 " clip-rule="nonzero"/></clipPath></defs><g clip-path="url(#cb241040fc)"><path fill="#040606" d="M 25.964844 48.824219 L 25.964844 18.050781 C 17.976562 13.183594 10.730469 12.371094 3.679688 20.21875 L 3.679688 50.515625 C 7.167969 51.054688 14.421875 40.980469 25.964844 48.824219 Z M 28.71875 18.050781 L 28.71875 48.824219 C 39.726562 41.046875 46.710938 50.851562 51.003906 50.515625 L 51.003906 20.21875 C 43.957031 12.371094 36.773438 13.183594 28.71875 18.050781 Z M 27.644531 15.347656 C 37.449219 9.398438 46.105469 10.207031 53.824219 19.136719 L 53.824219 51.867188 C 47.648438 58.089844 43.890625 42.402344 27.308594 53.359375 C 11.398438 42.535156 6.835938 57.886719 0.859375 51.867188 L 0.859375 19.136719 C 8.644531 10.140625 17.171875 9.332031 27.105469 15.347656 L 27.644531 15.347656 " fill-opacity="1" fill-rule="nonzero"/></g><g clip-path="url(#0053be5263)"><g clip-path="url(#ef3f16db6e)"><path fill="#ffffff" d="M 8.324219 -0.75 L 24 -0.75 L 24 14.925781 L 8.324219 14.925781 Z M 8.324219 -0.75 " fill-opacity="1" fill-rule="nonzero"/></g></g><g clip-path="url(#3125567022)"><g clip-path="url(#cee7ba2742)"><g clip-path="url(#ae57763dc5)"><path fill="#ffffff" d="M 23.007812 17.683594 L 28.453125 23.128906 L 11.9375 39.640625 L 6.496094 34.199219 Z M 23.007812 17.683594 " fill-opacity="1" fill-rule="nonzero"/></g></g></g><g clip-path="url(#9fab97a122)"><g clip-path="url(#8c939c220e)"><g clip-path="url(#d6f7e0ab38)"><path fill="#ffffff" d="M 39.359375 3.523438 L 42.445312 6.609375 L 25.929688 23.125 L 22.847656 20.039062 Z M 39.359375 3.523438 " fill-opacity="1" fill-rule="nonzero"/></g></g></g><g clip-path="url(#39ab118d76)"><g clip-path="url(#cb0ec87c7c)"><g clip-path="url(#3da52a36c7)"><path fill="#ffffff" d="M 15.058594 12.136719 L 20.140625 7.054688 L 36.652344 23.570312 L 31.574219 28.648438 Z M 15.058594 12.136719 " fill-opacity="1" fill-rule="nonzero"/></g></g></g><g clip-path="url(#f501c0063b)"><path fill="#000000" d="M 13.738281 1.675781 L 13.289062 2.582031 L 18.011719 5.292969 C 18.011719 7.550781 17.113281 9.359375 15.085938 10.488281 L 10.363281 7.777344 L 10.136719 8.230469 C 11.261719 11.617188 13.511719 13.878906 18.011719 13.878906 C 19.136719 13.878906 22.511719 17.265625 24.3125 19.074219 L 27.914062 15.460938 C 26.113281 13.652344 22.0625 9.585938 22.0625 8.457031 C 22.0625 4.386719 20.9375 1.675781 13.738281 1.675781 Z M 41.863281 2.808594 L 37.363281 5.96875 L 36.914062 7.777344 L 23.863281 20.882812 L 22.0625 19.75 L 21.164062 20.65625 C 21.164062 23.367188 18.011719 24.722656 16.664062 24.722656 L 9.238281 32.179688 C 9.238281 34.4375 11.710938 36.921875 13.960938 36.921875 L 21.386719 29.46875 C 21.386719 28.113281 22.738281 24.949219 25.4375 24.949219 L 26.335938 24.042969 L 25.210938 22.238281 L 38.261719 9.132812 L 40.0625 8.679688 L 43.210938 4.164062 Z M 30.613281 18.171875 L 27.011719 21.785156 C 29.710938 24.496094 33.3125 28.113281 33.3125 29.242188 C 33.3125 33.308594 34.4375 36.019531 41.636719 36.019531 L 42.085938 35.117188 L 37.363281 32.402344 C 37.363281 30.144531 38.261719 28.335938 40.289062 27.207031 L 45.011719 29.917969 L 45.238281 29.46875 C 44.113281 26.078125 41.863281 23.820312 37.363281 23.820312 C 36.238281 23.820312 33.3125 20.882812 30.613281 18.171875 Z M 30.613281 18.171875 " fill-opacity="1" fill-rule="nonzero"/></g></svg>