<svg xmlns="http://www.w3.org/2000/svg" xmlns:xlink="http://www.w3.org/1999/xlink" width="50" zoomAndPan="magnify" viewBox="0 0 37.5 37.499999" height="50" preserveAspectRatio="xMidYMid meet" version="1.0"><defs><clipPath id="9d6ecf5445"><path d="M 0.5 2.398438 L 37.007812 2.398438 L 37.007812 35.324219 L 0.5 35.324219 Z M 0.5 2.398438 " clip-rule="nonzero"/></clipPath><clipPath id="5e1fb7908a"><path d="M 3.75 4.808594 L 19.5 4.808594 L 19.5 24.308594 L 3.75 24.308594 Z M 3.75 4.808594 " clip-rule="nonzero"/></clipPath><clipPath id="37b2b27fd6"><path d="M 20.828125 6.554688 L 33.585938 6.554688 L 33.585938 21.554688 L 20.828125 21.554688 Z M 20.828125 6.554688 " clip-rule="nonzero"/></clipPath><clipPath id="7a59e0af23"><path d="M 25.710938 9.484375 L 35.820312 9.484375 L 35.820312 19.492188 L 25.710938 19.492188 Z M 25.710938 9.484375 " clip-rule="nonzero"/></clipPath></defs><g clip-path="url(#9d6ecf5445)"><path fill="#000000" d="M 18.875 27.226562 C 18.574219 27.226562 18.332031 26.984375 18.332031 26.6875 C 18.332031 26.386719 18.574219 26.144531 18.875 26.144531 C 19.171875 26.144531 19.414062 26.386719 19.414062 26.6875 C 19.414062 26.984375 19.171875 27.226562 18.875 27.226562 Z M 18.875 25.394531 C 18.160156 25.394531 17.582031 25.976562 17.582031 26.6875 C 17.582031 27.398438 18.160156 27.976562 18.875 27.976562 C 19.585938 27.976562 20.164062 27.398438 20.164062 26.6875 C 20.164062 25.976562 19.585938 25.394531 18.875 25.394531 Z M 34.523438 29.066406 L 3.222656 29.066406 C 2.132812 29.066406 1.25 28.121094 1.25 26.957031 L 1.25 24.308594 L 36.5 24.308594 L 36.5 26.957031 C 36.5 28.121094 35.613281 29.066406 34.523438 29.066406 Z M 23.25 34.574219 L 14.496094 34.574219 L 16.117188 29.816406 L 21.628906 29.816406 Z M 3.222656 3.148438 L 34.523438 3.148438 C 35.613281 3.148438 36.5 4.097656 36.5 5.261719 L 36.5 23.558594 L 1.25 23.558594 L 1.25 5.261719 C 1.25 4.097656 2.132812 3.148438 3.222656 3.148438 Z M 34.523438 2.398438 L 3.222656 2.398438 C 1.71875 2.398438 0.5 3.683594 0.5 5.261719 L 0.5 26.957031 C 0.5 28.53125 1.71875 29.816406 3.222656 29.816406 L 15.324219 29.816406 L 13.617188 34.832031 C 13.582031 34.945312 13.597656 35.070312 13.667969 35.167969 C 13.742188 35.265625 13.851562 35.324219 13.976562 35.324219 L 23.773438 35.324219 C 23.894531 35.324219 24.007812 35.265625 24.078125 35.167969 C 24.148438 35.070312 24.164062 34.945312 24.128906 34.832031 L 22.421875 29.816406 L 34.523438 29.816406 C 36.027344 29.816406 37.25 28.53125 37.25 26.957031 L 37.25 5.261719 C 37.25 3.683594 36.027344 2.398438 34.523438 2.398438 " fill-opacity="1" fill-rule="nonzero"/></g><g clip-path="url(#5e1fb7908a)"><path fill="#000000" d="M 16.539062 18.660156 L 13.828125 18.0625 L 13.828125 17.402344 C 14.277344 17.144531 14.667969 16.820312 15 16.425781 L 16.035156 16.425781 C 16.296875 16.425781 16.519531 16.335938 16.703125 16.152344 C 16.886719 15.964844 16.980469 15.746094 16.980469 15.484375 L 16.980469 15.171875 C 17.242188 15.171875 17.464844 15.078125 17.648438 14.894531 C 17.832031 14.710938 17.925781 14.488281 17.925781 14.226562 L 17.925781 12.34375 C 17.925781 12.144531 17.867188 11.960938 17.75 11.800781 C 17.636719 11.636719 17.484375 11.523438 17.296875 11.457031 L 17.296875 10.457031 C 17.296875 10.085938 17.257812 9.71875 17.1875 9.351562 C 17.113281 8.988281 17.007812 8.636719 16.863281 8.292969 C 16.722656 7.949219 16.546875 7.625 16.339844 7.316406 C 16.132812 7.003906 15.898438 6.71875 15.632812 6.457031 C 15.371094 6.195312 15.085938 5.960938 14.773438 5.753906 C 14.464844 5.546875 14.140625 5.375 13.792969 5.230469 C 13.449219 5.089844 13.097656 4.980469 12.730469 4.910156 C 12.367188 4.835938 11.996094 4.800781 11.625 4.800781 C 11.253906 4.800781 10.882812 4.835938 10.519531 4.910156 C 10.152344 4.980469 9.800781 5.089844 9.457031 5.230469 C 9.109375 5.375 8.785156 5.546875 8.476562 5.753906 C 8.164062 5.960938 7.878906 6.195312 7.617188 6.457031 C 7.351562 6.71875 7.117188 7.003906 6.910156 7.316406 C 6.703125 7.625 6.527344 7.949219 6.386719 8.292969 C 6.242188 8.636719 6.136719 8.988281 6.0625 9.351562 C 5.992188 9.71875 5.953125 10.085938 5.953125 10.457031 L 5.953125 11.457031 C 5.765625 11.523438 5.613281 11.636719 5.5 11.800781 C 5.382812 11.960938 5.324219 12.144531 5.324219 12.34375 L 5.324219 14.226562 C 5.324219 14.488281 5.417969 14.710938 5.601562 14.894531 C 5.785156 15.078125 6.007812 15.171875 6.269531 15.171875 L 7.511719 15.171875 C 7.886719 16.136719 8.519531 16.882812 9.421875 17.402344 L 9.421875 18.0625 L 6.710938 18.660156 C 6.289062 18.753906 5.898438 18.910156 5.53125 19.136719 C 5.164062 19.363281 4.847656 19.644531 4.578125 19.976562 C 4.308594 20.3125 4.101562 20.683594 3.960938 21.089844 C 3.816406 21.492188 3.75 21.910156 3.75 22.339844 L 3.75 23.96875 C 3.75 24.054688 3.78125 24.128906 3.84375 24.191406 C 3.902344 24.25 3.976562 24.28125 4.066406 24.28125 L 19.183594 24.28125 C 19.273438 24.28125 19.347656 24.25 19.40625 24.191406 C 19.46875 24.128906 19.5 24.054688 19.5 23.96875 L 19.5 22.339844 C 19.5 21.910156 19.433594 21.492188 19.289062 21.089844 C 19.148438 20.683594 18.941406 20.3125 18.671875 19.976562 C 18.402344 19.644531 18.085938 19.363281 17.71875 19.136719 C 17.351562 18.910156 16.960938 18.753906 16.539062 18.660156 Z M 14.289062 18.804688 L 13.097656 20.710938 L 12.132812 20.132812 L 13.617188 18.65625 Z M 16.351562 15.484375 C 16.351562 15.570312 16.320312 15.644531 16.257812 15.707031 C 16.195312 15.769531 16.121094 15.796875 16.035156 15.796875 L 15.441406 15.796875 C 15.5625 15.597656 15.667969 15.386719 15.753906 15.171875 L 16.351562 15.171875 Z M 15.40625 11.398438 L 14.40625 11.398438 C 13.890625 11.398438 13.410156 11.273438 12.960938 11.019531 C 12.511719 10.769531 12.152344 10.421875 11.886719 9.980469 C 11.859375 9.933594 11.820312 9.898438 11.769531 9.871094 C 11.722656 9.84375 11.671875 9.828125 11.617188 9.828125 C 11.558594 9.828125 11.507812 9.84375 11.460938 9.871094 C 11.410156 9.898438 11.371094 9.933594 11.34375 9.980469 C 11.078125 10.421875 10.71875 10.769531 10.269531 11.019531 C 9.824219 11.273438 9.339844 11.398438 8.824219 11.398438 L 7.84375 11.398438 L 7.84375 10.457031 C 7.84375 9.957031 7.941406 9.476562 8.132812 9.015625 C 8.324219 8.550781 8.597656 8.144531 8.953125 7.789062 C 9.304688 7.4375 9.714844 7.164062 10.179688 6.972656 C 10.640625 6.78125 11.125 6.6875 11.625 6.6875 C 12.125 6.6875 12.609375 6.78125 13.070312 6.972656 C 13.535156 7.164062 13.945312 7.4375 14.296875 7.789062 C 14.652344 8.144531 14.925781 8.550781 15.117188 9.015625 C 15.308594 9.476562 15.40625 9.957031 15.40625 10.457031 Z M 17.296875 14.226562 C 17.296875 14.3125 17.265625 14.386719 17.203125 14.449219 C 17.140625 14.511719 17.066406 14.542969 16.980469 14.542969 L 15.929688 14.542969 C 16 14.230469 16.035156 13.917969 16.035156 13.597656 L 16.035156 12.027344 L 16.980469 12.027344 C 17.066406 12.027344 17.140625 12.058594 17.203125 12.121094 C 17.265625 12.179688 17.296875 12.253906 17.296875 12.34375 Z M 11.625 5.429688 C 11.957031 5.429688 12.285156 5.460938 12.609375 5.527344 C 12.933594 5.589844 13.246094 5.6875 13.554688 5.8125 C 13.859375 5.9375 14.148438 6.09375 14.425781 6.277344 C 14.699219 6.460938 14.953125 6.667969 15.1875 6.902344 C 15.421875 7.136719 15.632812 7.390625 15.816406 7.664062 C 16 7.9375 16.15625 8.226562 16.28125 8.53125 C 16.40625 8.835938 16.503906 9.152344 16.566406 9.476562 C 16.632812 9.800781 16.664062 10.125 16.664062 10.457031 L 16.664062 11.398438 L 16.035156 11.398438 L 16.035156 10.457031 C 16.035156 10.167969 16.007812 9.882812 15.949219 9.597656 C 15.894531 9.316406 15.808594 9.039062 15.699219 8.773438 C 15.589844 8.507812 15.453125 8.253906 15.292969 8.011719 C 15.132812 7.773438 14.949219 7.550781 14.742188 7.347656 C 14.539062 7.140625 14.316406 6.960938 14.074219 6.800781 C 13.835938 6.636719 13.582031 6.503906 13.3125 6.390625 C 13.046875 6.28125 12.769531 6.199219 12.484375 6.140625 C 12.203125 6.085938 11.914062 6.058594 11.625 6.058594 C 11.335938 6.058594 11.046875 6.085938 10.765625 6.140625 C 10.480469 6.199219 10.203125 6.28125 9.9375 6.390625 C 9.667969 6.503906 9.414062 6.636719 9.175781 6.800781 C 8.933594 6.960938 8.710938 7.140625 8.507812 7.347656 C 8.300781 7.550781 8.117188 7.773438 7.957031 8.011719 C 7.796875 8.253906 7.660156 8.507812 7.550781 8.773438 C 7.441406 9.039062 7.355469 9.316406 7.300781 9.597656 C 7.242188 9.882812 7.214844 10.167969 7.214844 10.457031 L 7.214844 11.398438 L 6.585938 11.398438 L 6.585938 10.457031 C 6.585938 10.125 6.617188 9.800781 6.683594 9.476562 C 6.746094 9.152344 6.84375 8.835938 6.96875 8.53125 C 7.09375 8.226562 7.25 7.9375 7.433594 7.664062 C 7.617188 7.390625 7.828125 7.136719 8.0625 6.902344 C 8.296875 6.667969 8.550781 6.460938 8.824219 6.277344 C 9.101562 6.09375 9.390625 5.9375 9.695312 5.8125 C 10.003906 5.6875 10.316406 5.589844 10.640625 5.527344 C 10.964844 5.460938 11.292969 5.429688 11.625 5.429688 Z M 6.269531 14.542969 C 6.183594 14.542969 6.109375 14.511719 6.046875 14.449219 C 5.984375 14.386719 5.953125 14.3125 5.953125 14.226562 L 5.953125 12.34375 C 5.953125 12.253906 5.984375 12.179688 6.046875 12.121094 C 6.109375 12.058594 6.183594 12.027344 6.269531 12.027344 L 7.214844 12.027344 L 7.214844 13.597656 C 7.214844 13.917969 7.25 14.230469 7.320312 14.542969 Z M 7.84375 13.597656 L 7.84375 12.027344 L 8.84375 12.027344 C 9.382812 12.027344 9.898438 11.910156 10.386719 11.675781 C 10.875 11.441406 11.285156 11.113281 11.625 10.691406 C 11.964844 11.113281 12.375 11.441406 12.863281 11.675781 C 13.351562 11.910156 13.867188 12.027344 14.40625 12.027344 L 15.40625 12.027344 L 15.40625 13.597656 C 15.402344 14.410156 15.164062 15.140625 14.691406 15.796875 L 12.511719 15.796875 C 12.464844 15.65625 12.382812 15.535156 12.277344 15.433594 C 12.167969 15.328125 12.042969 15.253906 11.898438 15.210938 C 11.753906 15.167969 11.609375 15.160156 11.460938 15.183594 C 11.316406 15.207031 11.179688 15.265625 11.058594 15.355469 C 10.941406 15.445312 10.847656 15.554688 10.777344 15.6875 C 10.710938 15.820312 10.675781 15.964844 10.675781 16.113281 C 10.675781 16.261719 10.710938 16.402344 10.777344 16.535156 C 10.847656 16.671875 10.941406 16.78125 11.058594 16.871094 C 11.179688 16.960938 11.316406 17.015625 11.460938 17.042969 C 11.609375 17.066406 11.753906 17.058594 11.898438 17.015625 C 12.042969 16.96875 12.167969 16.898438 12.277344 16.792969 C 12.382812 16.691406 12.464844 16.566406 12.511719 16.425781 L 14.117188 16.425781 C 13.558594 16.914062 12.914062 17.210938 12.179688 17.320312 C 11.449219 17.429688 10.742188 17.332031 10.066406 17.027344 C 9.394531 16.722656 8.855469 16.261719 8.449219 15.640625 C 8.046875 15.019531 7.847656 14.339844 7.84375 13.597656 Z M 11.941406 16.113281 C 11.941406 16.199219 11.910156 16.273438 11.847656 16.335938 C 11.785156 16.394531 11.710938 16.425781 11.625 16.425781 C 11.539062 16.425781 11.464844 16.394531 11.402344 16.335938 C 11.339844 16.273438 11.308594 16.199219 11.308594 16.113281 C 11.308594 16.027344 11.339844 15.953125 11.402344 15.890625 C 11.464844 15.828125 11.539062 15.796875 11.625 15.796875 C 11.710938 15.796875 11.785156 15.828125 11.847656 15.890625 C 11.910156 15.953125 11.941406 16.027344 11.941406 16.113281 Z M 11.625 17.996094 C 12.167969 17.996094 12.695312 17.898438 13.199219 17.703125 L 13.199219 18.183594 L 11.625 19.753906 L 10.050781 18.183594 L 10.050781 17.703125 C 10.554688 17.898438 11.082031 17.996094 11.625 17.996094 Z M 9.632812 18.65625 L 11.117188 20.132812 L 10.152344 20.710938 L 8.960938 18.804688 Z M 4.378906 22.339844 C 4.378906 21.984375 4.441406 21.636719 4.558594 21.296875 C 4.675781 20.960938 4.847656 20.652344 5.074219 20.375 C 5.296875 20.097656 5.5625 19.863281 5.867188 19.671875 C 6.167969 19.484375 6.496094 19.351562 6.847656 19.273438 L 8.308594 18.960938 L 9.78125 21.316406 C 9.847656 21.410156 9.9375 21.457031 10.050781 21.453125 C 10.109375 21.453125 10.160156 21.441406 10.210938 21.410156 L 11.308594 20.753906 L 11.308594 23.652344 L 6.898438 23.652344 L 6.898438 22.082031 L 6.269531 22.082031 L 6.269531 23.652344 L 4.378906 23.652344 Z M 18.871094 23.652344 L 16.980469 23.652344 L 16.980469 22.082031 L 16.351562 22.082031 L 16.351562 23.652344 L 11.941406 23.652344 L 11.941406 20.753906 L 13.039062 21.410156 C 13.089844 21.441406 13.140625 21.453125 13.199219 21.453125 C 13.316406 21.453125 13.40625 21.40625 13.46875 21.308594 L 14.941406 18.941406 L 16.402344 19.253906 C 16.753906 19.332031 17.082031 19.464844 17.386719 19.65625 C 17.695312 19.847656 17.957031 20.082031 18.183594 20.363281 C 18.40625 20.644531 18.578125 20.953125 18.695312 21.292969 C 18.8125 21.632812 18.871094 21.980469 18.871094 22.339844 Z M 18.871094 23.652344 " fill-opacity="1" fill-rule="nonzero"/></g><g clip-path="url(#37b2b27fd6)"><path fill="#212121" d="M 21.144531 6.554688 L 33.246094 6.554688 C 33.421875 6.554688 33.5625 6.691406 33.5625 6.867188 L 33.5625 9.648438 L 32.933594 10.277344 L 32.933594 7.179688 L 21.457031 7.179688 L 21.457031 20.929688 L 32.933594 20.929688 L 32.933594 14.441406 L 33.5625 13.816406 L 33.5625 21.242188 C 33.5625 21.414062 33.421875 21.554688 33.246094 21.554688 L 21.144531 21.554688 C 20.96875 21.554688 20.828125 21.414062 20.828125 21.242188 L 20.828125 6.867188 C 20.828125 6.691406 20.96875 6.554688 21.144531 6.554688 " fill-opacity="1" fill-rule="nonzero"/></g><path fill="#212121" d="M 26.382812 8.773438 C 26.207031 8.773438 26.066406 8.910156 26.066406 9.085938 C 26.066406 9.257812 26.207031 9.398438 26.382812 9.398438 L 31.703125 9.398438 C 31.875 9.398438 32.015625 9.257812 32.015625 9.085938 C 32.015625 8.910156 31.875 8.773438 31.703125 8.773438 L 26.382812 8.773438 " fill-opacity="1" fill-rule="nonzero"/><path fill="#212121" d="M 23.460938 8.035156 L 24.230469 8.035156 C 24.363281 8.035156 24.46875 8.140625 24.46875 8.269531 L 24.46875 9.730469 C 24.46875 9.859375 24.363281 9.964844 24.230469 9.964844 L 23.460938 9.964844 L 23.460938 9.496094 L 23.996094 9.496094 L 23.996094 8.503906 L 23.460938 8.503906 Z M 22.6875 8.035156 L 23.460938 8.035156 L 23.460938 8.503906 L 22.925781 8.503906 L 22.925781 9.496094 L 23.460938 9.496094 L 23.460938 9.964844 L 22.6875 9.964844 C 22.558594 9.964844 22.453125 9.859375 22.453125 9.730469 L 22.453125 8.269531 C 22.453125 8.140625 22.558594 8.035156 22.6875 8.035156 " fill-opacity="1" fill-rule="nonzero"/><path fill="#212121" d="M 26.382812 12.128906 C 26.207031 12.128906 26.066406 12.265625 26.066406 12.441406 C 26.066406 12.613281 26.207031 12.753906 26.382812 12.753906 L 30.433594 12.753906 L 31.066406 12.128906 L 26.382812 12.128906 " fill-opacity="1" fill-rule="nonzero"/><path fill="#212121" d="M 26.382812 15.484375 C 26.207031 15.484375 26.066406 15.621094 26.066406 15.796875 C 26.066406 15.96875 26.207031 16.109375 26.382812 16.109375 L 27.054688 16.109375 L 27.683594 15.484375 L 26.382812 15.484375 " fill-opacity="1" fill-rule="nonzero"/><path fill="#212121" d="M 23.460938 11.390625 L 24.230469 11.390625 C 24.363281 11.390625 24.46875 11.496094 24.46875 11.625 L 24.46875 13.085938 C 24.46875 13.214844 24.363281 13.320312 24.230469 13.320312 L 23.460938 13.320312 L 23.460938 12.851562 L 23.996094 12.851562 L 23.996094 11.859375 L 23.460938 11.859375 Z M 22.6875 11.390625 L 23.460938 11.390625 L 23.460938 11.859375 L 22.925781 11.859375 L 22.925781 12.851562 L 23.460938 12.851562 L 23.460938 13.320312 L 22.6875 13.320312 C 22.558594 13.320312 22.453125 13.214844 22.453125 13.085938 L 22.453125 11.625 C 22.453125 11.496094 22.558594 11.390625 22.6875 11.390625 " fill-opacity="1" fill-rule="nonzero"/><path fill="#212121" d="M 23.460938 14.746094 L 24.230469 14.746094 C 24.363281 14.746094 24.46875 14.851562 24.46875 14.980469 L 24.46875 16.441406 C 24.46875 16.570312 24.363281 16.675781 24.230469 16.675781 L 23.460938 16.675781 L 23.460938 16.207031 L 23.996094 16.207031 L 23.996094 15.214844 L 23.460938 15.214844 Z M 22.6875 14.746094 L 23.460938 14.746094 L 23.460938 15.214844 L 22.925781 15.214844 L 22.925781 16.207031 L 23.460938 16.207031 L 23.460938 16.675781 L 22.6875 16.675781 C 22.558594 16.675781 22.453125 16.570312 22.453125 16.441406 L 22.453125 14.980469 C 22.453125 14.851562 22.558594 14.746094 22.6875 14.746094 " fill-opacity="1" fill-rule="nonzero"/><g clip-path="url(#7a59e0af23)"><path fill="#212121" d="M 30.816406 12.816406 L 34.074219 9.585938 C 34.195312 9.464844 34.394531 9.464844 34.519531 9.585938 L 35.726562 10.785156 C 35.851562 10.90625 35.851562 11.105469 35.726562 11.226562 L 30.816406 16.101562 L 30.816406 15.214844 L 35.058594 11.003906 L 34.296875 10.25 L 30.816406 13.703125 Z M 26.527344 17.070312 L 30.816406 12.816406 L 30.816406 13.703125 L 27.015625 17.472656 L 26.570312 18.652344 L 27.78125 18.226562 L 30.816406 15.214844 L 30.816406 16.101562 L 28.179688 18.714844 C 28.140625 18.753906 28.09375 18.78125 28.042969 18.796875 L 26.148438 19.464844 C 25.984375 19.523438 25.804688 19.4375 25.746094 19.277344 C 25.714844 19.195312 25.722656 19.109375 25.757812 19.039062 L 26.453125 17.1875 L 26.746094 17.296875 L 26.453125 17.1875 C 26.46875 17.140625 26.496094 17.101562 26.527344 17.070312 " fill-opacity="1" fill-rule="nonzero"/></g><path fill="#212121" d="M 33 11.441406 C 32.875 11.320312 32.675781 11.320312 32.554688 11.441406 C 32.429688 11.5625 32.429688 11.761719 32.554688 11.882812 L 33.410156 12.734375 C 33.53125 12.855469 33.730469 12.855469 33.855469 12.734375 C 33.976562 12.613281 33.976562 12.414062 33.855469 12.292969 L 33 11.441406 " fill-opacity="1" fill-rule="nonzero"/><path fill="#212121" d="M 23.40625 8.804688 C 23.34375 8.75 23.242188 8.757812 23.1875 8.824219 C 23.128906 8.886719 23.136719 8.988281 23.203125 9.042969 L 23.519531 9.308594 L 23.519531 9.3125 C 23.582031 9.363281 23.675781 9.359375 23.730469 9.304688 L 25.039062 8.195312 C 25.105469 8.136719 25.113281 8.039062 25.054688 7.972656 C 25 7.910156 24.898438 7.902344 24.832031 7.957031 L 23.621094 8.988281 L 23.40625 8.804688 " fill-opacity="1" fill-rule="nonzero"/><path fill="#212121" d="M 23.40625 12.144531 C 23.34375 12.085938 23.242188 12.09375 23.1875 12.160156 C 23.128906 12.226562 23.136719 12.324219 23.203125 12.378906 L 23.519531 12.648438 C 23.582031 12.699219 23.675781 12.695312 23.730469 12.640625 L 25.039062 11.53125 C 25.105469 11.472656 25.113281 11.375 25.054688 11.3125 C 25 11.246094 24.898438 11.238281 24.832031 11.292969 L 23.621094 12.324219 L 23.40625 12.144531 " fill-opacity="1" fill-rule="nonzero"/></svg>