<svg xmlns="http://www.w3.org/2000/svg" xmlns:xlink="http://www.w3.org/1999/xlink" width="73" zoomAndPan="magnify" viewBox="0 0 54.75 54.749999" height="73" preserveAspectRatio="xMidYMid meet" version="1.0"><defs><clipPath id="6eff96da90"><path d="M 8.175781 0 L 47 0 L 47 54.5 L 8.175781 54.5 Z M 8.175781 0 " clip-rule="nonzero"/></clipPath><clipPath id="5131b532f0"><path d="M 0 28.953125 L 17.507812 28.953125 L 17.507812 31.953125 L 0 31.953125 Z M 0 28.953125 " clip-rule="nonzero"/></clipPath><clipPath id="3d0dd781ba"><path d="M 32.921875 15.476562 L 53.183594 15.476562 L 53.183594 35.734375 L 32.921875 35.734375 Z M 32.921875 15.476562 " clip-rule="nonzero"/></clipPath><clipPath id="accd0bd114"><path d="M 43.050781 15.476562 C 37.457031 15.476562 32.921875 20.011719 32.921875 25.605469 C 32.921875 31.199219 37.457031 35.734375 43.050781 35.734375 C 48.648438 35.734375 53.183594 31.199219 53.183594 25.605469 C 53.183594 20.011719 48.648438 15.476562 43.050781 15.476562 " clip-rule="nonzero"/></clipPath><clipPath id="85d1c25ce8"><path d="M 15.433594 7.207031 L 39.992188 7.207031 L 39.992188 31.765625 L 15.433594 31.765625 Z M 15.433594 7.207031 " clip-rule="nonzero"/></clipPath><clipPath id="fe46ae1c90"><path d="M 27.714844 7.207031 C 20.933594 7.207031 15.433594 12.703125 15.433594 19.484375 C 15.433594 26.265625 20.933594 31.765625 27.714844 31.765625 C 34.496094 31.765625 39.992188 26.265625 39.992188 19.484375 C 39.992188 12.703125 34.496094 7.207031 27.714844 7.207031 " clip-rule="nonzero"/></clipPath><clipPath id="4da348e722"><path d="M 0 8.234375 L 16.757812 8.234375 L 16.757812 11.234375 L 0 11.234375 Z M 0 8.234375 " clip-rule="nonzero"/></clipPath><clipPath id="29f0eace98"><path d="M 0 14.726562 L 13.757812 14.726562 L 13.757812 17.726562 L 0 17.726562 Z M 0 14.726562 " clip-rule="nonzero"/></clipPath><clipPath id="06d7fdd4eb"><path d="M 0 21.585938 L 13.757812 21.585938 L 13.757812 24.585938 L 0 24.585938 Z M 0 21.585938 " clip-rule="nonzero"/></clipPath><clipPath id="441ed760da"><path d="M 15.261719 7.851562 L 39.488281 7.851562 L 39.488281 32.078125 L 15.261719 32.078125 Z M 15.261719 7.851562 " clip-rule="nonzero"/></clipPath><clipPath id="3f6839ab00"><path d="M 27.375 7.851562 C 20.683594 7.851562 15.261719 13.277344 15.261719 19.964844 C 15.261719 26.65625 20.683594 32.078125 27.375 32.078125 C 34.066406 32.078125 39.488281 26.65625 39.488281 19.964844 C 39.488281 13.277344 34.066406 7.851562 27.375 7.851562 " clip-rule="nonzero"/></clipPath><clipPath id="c903ddd827"><path d="M 13.34375 5.660156 L 40.644531 5.660156 L 40.644531 34.160156 L 13.34375 34.160156 Z M 13.34375 5.660156 " clip-rule="nonzero"/></clipPath><clipPath id="acedf78662"><path d="M 34.277344 16.800781 L 51.527344 16.800781 L 51.527344 34.160156 L 34.277344 34.160156 Z M 34.277344 16.800781 " clip-rule="nonzero"/></clipPath><clipPath id="da293f5a68"><path d="M 2.785156 15 L 8 15 L 8 17 L 2.785156 17 Z M 2.785156 15 " clip-rule="nonzero"/></clipPath></defs><g clip-path="url(#6eff96da90)"><path fill="#000000" d="M 23.773438 1 C 22.265625 1.046875 20.8125 1.832031 19.980469 3.207031 L 19.6875 3.691406 C 19.269531 4.382812 18.53125 4.808594 17.726562 4.828125 L 17.722656 4.828125 L 17.15625 4.839844 C 14.714844 4.890625 12.730469 6.878906 12.679688 9.324219 L 12.664062 9.894531 C 12.648438 10.703125 12.222656 11.441406 11.53125 11.859375 L 11.046875 12.15625 C 8.960938 13.421875 8.230469 16.140625 9.40625 18.285156 L 9.410156 18.285156 L 9.683594 18.785156 C 10.070312 19.492188 10.070312 20.347656 9.683594 21.054688 L 9.410156 21.550781 C 8.234375 23.695312 8.960938 26.414062 11.050781 27.679688 L 11.535156 27.972656 C 12.226562 28.394531 12.652344 29.132812 12.667969 29.941406 L 12.679688 30.511719 C 12.722656 32.488281 14.039062 34.148438 15.828125 34.746094 L 10.054688 47.277344 C 9.976562 47.449219 9.941406 47.632812 9.957031 47.820312 C 9.96875 48.011719 10.027344 48.183594 10.128906 48.34375 C 10.230469 48.503906 10.363281 48.628906 10.53125 48.722656 C 10.695312 48.8125 10.875 48.859375 11.0625 48.859375 L 18.308594 48.859375 L 22.417969 54.007812 C 22.476562 54.082031 22.546875 54.148438 22.625 54.203125 C 22.699219 54.261719 22.78125 54.308594 22.871094 54.34375 C 22.960938 54.378906 23.050781 54.402344 23.148438 54.414062 C 23.242188 54.425781 23.335938 54.425781 23.433594 54.414062 C 23.527344 54.402344 23.617188 54.378906 23.707031 54.339844 C 23.796875 54.304688 23.878906 54.257812 23.953125 54.199219 C 24.03125 54.140625 24.097656 54.074219 24.15625 54 C 24.21875 53.925781 24.265625 53.84375 24.304688 53.757812 L 27.765625 45.832031 L 31.226562 53.757812 C 31.265625 53.84375 31.3125 53.925781 31.375 54 C 31.433594 54.074219 31.5 54.140625 31.578125 54.199219 C 31.652344 54.257812 31.734375 54.304688 31.824219 54.339844 C 31.914062 54.378906 32.003906 54.402344 32.101562 54.414062 C 32.195312 54.425781 32.289062 54.425781 32.382812 54.414062 C 32.480469 54.402344 32.570312 54.378906 32.660156 54.34375 C 32.75 54.308594 32.832031 54.261719 32.90625 54.203125 C 32.984375 54.148438 33.054688 54.082031 33.113281 54.007812 L 37.222656 48.859375 L 44.46875 48.859375 C 44.65625 48.859375 44.835938 48.8125 45 48.722656 C 45.167969 48.628906 45.300781 48.503906 45.402344 48.34375 C 45.507812 48.183594 45.5625 48.011719 45.578125 47.820312 C 45.589844 47.632812 45.554688 47.449219 45.476562 47.277344 L 39.695312 34.726562 C 41.453125 34.113281 42.742188 32.46875 42.78125 30.511719 L 42.78125 30.507812 L 42.796875 29.941406 C 42.8125 29.132812 43.238281 28.390625 43.929688 27.972656 L 44.417969 27.679688 C 46.503906 26.414062 47.230469 23.695312 46.054688 21.550781 L 45.777344 21.046875 C 45.390625 20.339844 45.390625 19.488281 45.777344 18.78125 L 46.054688 18.285156 L 46.054688 18.28125 C 47.230469 16.140625 46.503906 13.421875 44.414062 12.15625 L 44.414062 12.152344 L 43.925781 11.859375 C 43.234375 11.441406 42.8125 10.703125 42.792969 9.894531 L 42.78125 9.324219 C 42.730469 6.878906 40.742188 4.886719 38.304688 4.839844 L 37.734375 4.824219 C 36.929688 4.808594 36.191406 4.378906 35.773438 3.691406 L 35.476562 3.203125 C 34.214844 1.109375 31.5 0.382812 29.359375 1.558594 L 29.359375 1.5625 L 28.863281 1.835938 C 28.15625 2.226562 27.300781 2.226562 26.597656 1.835938 L 26.097656 1.5625 C 25.566406 1.265625 24.996094 1.089844 24.417969 1.027344 C 24.203125 1.003906 23.988281 0.996094 23.773438 1 Z M 23.714844 3.21875 C 24.15625 3.1875 24.609375 3.28125 25.027344 3.511719 L 25.523438 3.785156 C 26.894531 4.542969 28.566406 4.542969 29.9375 3.785156 L 30.433594 3.507812 L 30.433594 3.511719 C 31.546875 2.898438 32.917969 3.265625 33.578125 4.355469 L 33.871094 4.84375 C 34.683594 6.183594 36.125 7.019531 37.6875 7.050781 L 38.257812 7.0625 C 39.53125 7.089844 40.535156 8.09375 40.5625 9.367188 L 40.5625 9.371094 L 40.570312 9.941406 C 40.605469 11.507812 41.4375 12.953125 42.777344 13.765625 L 43.261719 14.058594 C 44.351562 14.71875 44.71875 16.089844 44.105469 17.207031 L 43.832031 17.707031 C 43.074219 19.082031 43.074219 20.753906 43.832031 22.125 L 43.832031 22.128906 L 44.109375 22.625 C 44.722656 23.742188 44.351562 25.113281 43.265625 25.773438 L 42.777344 26.070312 C 41.4375 26.882812 40.605469 28.324219 40.574219 29.894531 L 40.5625 30.464844 C 40.539062 31.742188 39.53125 32.746094 38.261719 32.769531 L 37.691406 32.78125 C 36.125 32.816406 34.683594 33.648438 33.875 34.988281 L 33.875 34.992188 L 33.578125 35.480469 C 32.921875 36.570312 31.550781 36.9375 30.433594 36.324219 L 29.9375 36.046875 C 28.566406 35.292969 26.898438 35.292969 25.527344 36.046875 L 25.027344 36.324219 C 23.914062 36.9375 22.542969 36.570312 21.882812 35.480469 L 21.589844 34.992188 C 20.78125 33.652344 19.339844 32.816406 17.773438 32.78125 L 17.203125 32.769531 C 15.929688 32.746094 14.925781 31.742188 14.902344 30.464844 L 14.890625 29.894531 C 14.859375 28.324219 14.023438 26.882812 12.683594 26.070312 L 12.199219 25.773438 C 11.109375 25.113281 10.742188 23.742188 11.355469 22.625 L 11.628906 22.128906 L 11.628906 22.125 C 12.382812 20.753906 12.382812 19.082031 11.628906 17.707031 L 11.351562 17.210938 L 11.355469 17.210938 C 10.742188 16.09375 11.109375 14.71875 12.195312 14.058594 L 12.683594 13.765625 C 14.019531 12.953125 14.855469 11.507812 14.886719 9.941406 L 14.902344 9.371094 C 14.925781 8.097656 15.929688 7.089844 17.203125 7.0625 L 17.773438 7.054688 C 19.335938 7.019531 20.777344 6.183594 21.589844 4.84375 L 21.882812 4.359375 C 22.214844 3.8125 22.71875 3.445312 23.285156 3.292969 C 23.425781 3.257812 23.570312 3.230469 23.714844 3.21875 Z M 35.824219 12.222656 L 26.667969 26.558594 L 19.308594 19.921875 L 17.820312 21.582031 L 27.128906 29.96875 L 37.695312 13.421875 Z M 37.398438 35.058594 L 42.730469 46.632812 L 36.6875 46.632812 C 36.332031 46.632812 36.042969 46.769531 35.820312 47.050781 L 32.523438 51.175781 L 28.980469 43.050781 L 30.847656 38.769531 C 32.636719 39.046875 34.496094 38.261719 35.480469 36.632812 L 35.777344 36.144531 C 36.132812 35.550781 36.730469 35.171875 37.398438 35.058594 Z M 18.128906 35.066406 C 18.773438 35.195312 19.34375 35.570312 19.6875 36.144531 L 19.984375 36.632812 C 21.246094 38.722656 23.960938 39.453125 26.101562 38.273438 L 26.601562 38 C 27.277344 37.625 28.089844 37.621094 28.777344 37.964844 L 23.007812 51.175781 L 19.710938 47.050781 C 19.488281 46.769531 19.199219 46.632812 18.84375 46.632812 L 12.800781 46.632812 Z M 18.128906 35.066406 " fill-opacity="1" fill-rule="nonzero"/></g><g clip-path="url(#5131b532f0)"><path fill="#ffffff" d="M 15.660156 28.953125 L -23.390625 28.953125 C -24.164062 28.953125 -24.785156 29.625 -24.785156 30.453125 C -24.785156 31.285156 -24.164062 31.953125 -23.390625 31.953125 L 15.660156 31.953125 C 16.429688 31.953125 17.054688 31.285156 17.054688 30.453125 C 17.054688 29.625 16.429688 28.953125 15.660156 28.953125 Z M 15.660156 28.953125 " fill-opacity="1" fill-rule="nonzero"/></g><g clip-path="url(#3d0dd781ba)"><g clip-path="url(#accd0bd114)"><path fill="#ffffff" d="M 32.921875 15.476562 L 53.183594 15.476562 L 53.183594 35.734375 L 32.921875 35.734375 Z M 32.921875 15.476562 " fill-opacity="1" fill-rule="nonzero"/></g></g><g clip-path="url(#85d1c25ce8)"><g clip-path="url(#fe46ae1c90)"><path fill="#ffffff" d="M 15.433594 7.207031 L 39.992188 7.207031 L 39.992188 31.765625 L 15.433594 31.765625 Z M 15.433594 7.207031 " fill-opacity="1" fill-rule="nonzero"/></g></g><g clip-path="url(#4da348e722)"><path fill="#ffffff" d="M 14.910156 8.234375 L -24.140625 8.234375 C -24.914062 8.234375 -25.535156 8.902344 -25.535156 9.734375 C -25.535156 10.5625 -24.914062 11.234375 -24.140625 11.234375 L 14.910156 11.234375 C 15.679688 11.234375 16.304688 10.5625 16.304688 9.734375 C 16.304688 8.902344 15.679688 8.234375 14.910156 8.234375 Z M 14.910156 8.234375 " fill-opacity="1" fill-rule="nonzero"/></g><g clip-path="url(#29f0eace98)"><path fill="#ffffff" d="M 11.910156 14.726562 L -27.140625 14.726562 C -27.914062 14.726562 -28.535156 15.398438 -28.535156 16.226562 C -28.535156 17.054688 -27.914062 17.726562 -27.140625 17.726562 L 11.910156 17.726562 C 12.679688 17.726562 13.304688 17.054688 13.304688 16.226562 C 13.304688 15.398438 12.679688 14.726562 11.910156 14.726562 Z M 11.910156 14.726562 " fill-opacity="1" fill-rule="nonzero"/></g><g clip-path="url(#06d7fdd4eb)"><path fill="#ffffff" d="M 11.910156 21.585938 L -27.140625 21.585938 C -27.914062 21.585938 -28.535156 22.257812 -28.535156 23.085938 C -28.535156 23.914062 -27.914062 24.585938 -27.140625 24.585938 L 11.910156 24.585938 C 12.679688 24.585938 13.304688 23.914062 13.304688 23.085938 C 13.304688 22.257812 12.679688 21.585938 11.910156 21.585938 Z M 11.910156 21.585938 " fill-opacity="1" fill-rule="nonzero"/></g><g clip-path="url(#441ed760da)"><g clip-path="url(#3f6839ab00)"><path fill="#ffffff" d="M 15.261719 7.851562 L 39.488281 7.851562 L 39.488281 32.078125 L 15.261719 32.078125 Z M 15.261719 7.851562 " fill-opacity="1" fill-rule="nonzero"/></g></g><path fill="#000000" d="M 28.105469 20.386719 L 28.167969 20.402344 C 28.8125 20.566406 29.179688 20.769531 29.21875 20.789062 C 30.003906 21.230469 30.480469 21.953125 30.496094 22.71875 C 30.511719 23.855469 29.535156 24.863281 28.167969 25.113281 L 28.105469 25.125 Z M 26.554688 18.511719 L 26.496094 18.496094 C 26.0625 18.40625 25.753906 18.28125 25.550781 18.109375 C 25.113281 17.738281 24.867188 17.25 24.859375 16.742188 C 24.851562 16.21875 25.089844 15.714844 25.535156 15.324219 C 25.804688 15.085938 26.128906 14.90625 26.492188 14.789062 L 26.554688 14.765625 Z M 30.757812 25.601562 C 31.183594 25.230469 31.515625 24.792969 31.746094 24.308594 C 31.988281 23.796875 32.109375 23.253906 32.097656 22.691406 C 32.074219 21.34375 31.292969 20.105469 30 19.382812 C 29.878906 19.3125 29.207031 18.957031 28.148438 18.742188 L 28.105469 18.734375 L 28.105469 14.710938 L 28.167969 14.726562 C 28.578125 14.824219 28.953125 15.007812 29.257812 15.257812 C 29.714844 15.636719 29.972656 16.132812 29.984375 16.65625 C 29.992188 17.089844 30.351562 17.449219 30.789062 17.449219 L 30.800781 17.449219 C 31.242188 17.441406 31.59375 17.070312 31.585938 16.625 C 31.570312 15.621094 31.105469 14.691406 30.273438 14.007812 C 29.695312 13.53125 28.980469 13.214844 28.203125 13.089844 L 28.160156 13.082031 L 28.144531 12.105469 C 28.136719 11.667969 27.777344 11.3125 27.339844 11.3125 L 27.328125 11.3125 C 26.886719 11.320312 26.53125 11.691406 26.539062 12.132812 L 26.558594 13.109375 L 26.515625 13.117188 C 25.746094 13.269531 25.039062 13.613281 24.480469 14.109375 C 23.671875 14.820312 23.238281 15.765625 23.253906 16.769531 C 23.269531 17.753906 23.71875 18.667969 24.515625 19.34375 L 24.523438 19.351562 C 25 19.75 25.632812 20 26.515625 20.144531 L 26.554688 20.148438 L 26.554688 25.050781 L 26.492188 25.03125 C 25.9375 24.867188 25.460938 24.578125 25.113281 24.1875 C 24.757812 23.789062 24.5625 23.316406 24.554688 22.824219 C 24.546875 22.386719 24.1875 22.03125 23.75 22.03125 L 23.738281 22.03125 C 23.523438 22.035156 23.324219 22.121094 23.175781 22.277344 C 23.027344 22.429688 22.945312 22.636719 22.949219 22.851562 C 22.960938 23.410156 23.097656 23.949219 23.359375 24.453125 C 23.605469 24.929688 23.953125 25.355469 24.386719 25.710938 C 24.96875 26.191406 25.6875 26.527344 26.460938 26.683594 L 26.5 26.691406 L 26.515625 27.714844 C 26.523438 28.152344 26.882812 28.507812 27.320312 28.507812 L 27.332031 28.507812 C 27.546875 28.503906 27.746094 28.417969 27.898438 28.261719 C 28.046875 28.105469 28.125 27.902344 28.121094 27.6875 L 28.105469 26.753906 L 28.152344 26.75 C 29.144531 26.625 30.046875 26.230469 30.757812 25.601562 " fill-opacity="1" fill-rule="nonzero"/><g clip-path="url(#c903ddd827)"><path fill="#000000" d="M 33.472656 31.363281 C 31.648438 32.324219 29.59375 32.832031 27.523438 32.832031 C 20.4375 32.832031 14.675781 27.035156 14.675781 19.910156 C 14.675781 12.785156 20.4375 6.988281 27.523438 6.988281 C 32.695312 6.988281 37.34375 10.085938 39.363281 14.886719 C 39.507812 15.222656 39.894531 15.378906 40.230469 15.238281 C 40.5625 15.09375 40.722656 14.707031 40.578125 14.367188 C 40.042969 13.101562 39.328125 11.917969 38.453125 10.851562 C 37.585938 9.792969 36.570312 8.867188 35.441406 8.097656 C 33.097656 6.503906 30.359375 5.660156 27.523438 5.660156 C 19.710938 5.660156 13.355469 12.054688 13.355469 19.910156 C 13.355469 27.769531 19.710938 34.160156 27.523438 34.160156 C 28.683594 34.160156 29.839844 34.019531 30.953125 33.738281 C 32.039062 33.464844 33.09375 33.0625 34.085938 32.539062 C 34.40625 32.371094 34.53125 31.96875 34.363281 31.644531 C 34.191406 31.320312 33.792969 31.195312 33.472656 31.363281 " fill-opacity="1" fill-rule="nonzero"/></g><g clip-path="url(#acedf78662)"><path fill="#000000" d="M 42.902344 32.832031 C 38.875 32.832031 35.597656 29.539062 35.597656 25.484375 C 35.597656 21.433594 38.875 18.136719 42.902344 18.136719 C 46.933594 18.136719 50.210938 21.433594 50.210938 25.484375 C 50.210938 29.539062 46.933594 32.832031 42.902344 32.832031 Z M 50.851562 22.109375 C 50.417969 21.074219 49.792969 20.148438 49.003906 19.351562 C 48.210938 18.554688 47.289062 17.929688 46.261719 17.492188 C 45.195312 17.039062 44.066406 16.8125 42.902344 16.8125 C 41.738281 16.8125 40.609375 17.039062 39.546875 17.492188 C 38.519531 17.929688 37.597656 18.554688 36.804688 19.351562 C 36.011719 20.148438 35.390625 21.074219 34.957031 22.109375 C 34.507812 23.179688 34.277344 24.316406 34.277344 25.484375 C 34.277344 26.65625 34.507812 27.792969 34.957031 28.863281 C 35.390625 29.894531 36.011719 30.824219 36.804688 31.621094 C 37.597656 32.414062 38.519531 33.042969 39.546875 33.476562 C 40.609375 33.929688 41.738281 34.160156 42.902344 34.160156 C 44.066406 34.160156 45.195312 33.929688 46.261719 33.476562 C 47.289062 33.042969 48.210938 32.414062 49.003906 31.621094 C 49.792969 30.824219 50.417969 29.894531 50.851562 28.863281 C 51.300781 27.792969 51.527344 26.65625 51.527344 25.484375 C 51.527344 24.316406 51.300781 23.179688 50.851562 22.109375 " fill-opacity="1" fill-rule="nonzero"/></g><path fill="#000000" d="M 42.902344 26.199219 C 42.511719 26.199219 42.195312 25.878906 42.195312 25.484375 C 42.195312 25.09375 42.511719 24.773438 42.902344 24.773438 C 43.292969 24.773438 43.613281 25.09375 43.613281 25.484375 C 43.613281 25.878906 43.292969 26.199219 42.902344 26.199219 Z M 47.542969 24.824219 L 44.820312 24.824219 C 44.617188 24.230469 44.152344 23.761719 43.5625 23.558594 L 43.5625 20.3125 C 43.5625 19.945312 43.265625 19.648438 42.902344 19.648438 C 42.539062 19.648438 42.242188 19.945312 42.242188 20.3125 L 42.242188 23.558594 C 41.449219 23.832031 40.875 24.59375 40.875 25.484375 C 40.875 26.609375 41.785156 27.523438 42.902344 27.523438 C 43.789062 27.523438 44.546875 26.949219 44.820312 26.148438 L 47.542969 26.148438 C 47.90625 26.148438 48.203125 25.851562 48.203125 25.484375 C 48.203125 25.121094 47.90625 24.824219 47.542969 24.824219 " fill-opacity="1" fill-rule="nonzero"/><path fill="#000000" d="M 10.644531 10.316406 L 12.992188 10.316406 C 13.355469 10.316406 13.652344 10.019531 13.652344 9.652344 C 13.652344 9.285156 13.355469 8.988281 12.992188 8.988281 L 10.644531 8.988281 C 10.28125 8.988281 9.984375 9.285156 9.984375 9.652344 C 9.984375 10.019531 10.28125 10.316406 10.644531 10.316406 " fill-opacity="1" fill-rule="nonzero"/><g clip-path="url(#da293f5a68)"><path fill="#000000" d="M 7.523438 16.316406 C 7.523438 15.949219 7.230469 15.652344 6.863281 15.652344 L 3.453125 15.652344 C 3.089844 15.652344 2.792969 15.949219 2.792969 16.316406 C 2.792969 16.683594 3.089844 16.980469 3.453125 16.980469 L 6.863281 16.980469 C 7.230469 16.980469 7.523438 16.683594 7.523438 16.316406 " fill-opacity="1" fill-rule="nonzero"/></g><path fill="#000000" d="M 10.644531 15.652344 L 9.847656 15.652344 C 9.484375 15.652344 9.191406 15.949219 9.191406 16.316406 C 9.191406 16.683594 9.484375 16.980469 9.847656 16.980469 L 10.644531 16.980469 C 11.007812 16.980469 11.304688 16.683594 11.304688 16.316406 C 11.304688 15.949219 11.007812 15.652344 10.644531 15.652344 " fill-opacity="1" fill-rule="nonzero"/><path fill="#000000" d="M 8.585938 29.503906 L 4.769531 29.503906 C 4.40625 29.503906 4.109375 29.800781 4.109375 30.167969 C 4.109375 30.535156 4.40625 30.832031 4.769531 30.832031 L 8.585938 30.832031 C 8.949219 30.832031 9.246094 30.535156 9.246094 30.167969 C 9.246094 29.800781 8.949219 29.503906 8.585938 29.503906 " fill-opacity="1" fill-rule="nonzero"/><path fill="#000000" d="M 12.992188 29.503906 L 12.707031 29.503906 C 12.339844 29.503906 12.046875 29.800781 12.046875 30.167969 C 12.046875 30.535156 12.339844 30.832031 12.707031 30.832031 L 12.992188 30.832031 C 13.355469 30.832031 13.652344 30.535156 13.652344 30.167969 C 13.652344 29.800781 13.355469 29.503906 12.992188 29.503906 " fill-opacity="1" fill-rule="nonzero"/><path fill="#000000" d="M 10.304688 22.316406 L 6.863281 22.316406 C 6.5 22.316406 6.207031 22.613281 6.207031 22.980469 C 6.207031 23.347656 6.5 23.644531 6.863281 23.644531 L 10.304688 23.644531 C 10.667969 23.644531 10.964844 23.347656 10.964844 22.980469 C 10.964844 22.613281 10.667969 22.316406 10.304688 22.316406 " fill-opacity="1" fill-rule="nonzero"/></svg>