<svg xmlns="http://www.w3.org/2000/svg" xmlns:xlink="http://www.w3.org/1999/xlink" width="500" zoomAndPan="magnify" viewBox="0 0 375 374.999991" height="500" preserveAspectRatio="xMidYMid meet" version="1.0"><defs><g/><clipPath id="40ee262fdb"><path d="M 28.542969 2.4375 L 336 2.4375 L 336 368.4375 L 28.542969 368.4375 Z M 28.542969 2.4375 " clip-rule="nonzero"/></clipPath><clipPath id="e20d1a403c"><path d="M 28.542969 2.4375 L 336.042969 2.4375 L 336.042969 368.4375 L 28.542969 368.4375 Z M 28.542969 2.4375 " clip-rule="nonzero"/></clipPath><clipPath id="4e42d65d38"><path d="M 164 87.347656 L 199 87.347656 L 199 135 L 164 135 Z M 164 87.347656 " clip-rule="nonzero"/></clipPath><clipPath id="64af391d7b"><path d="M 153.082031 252.933594 L 222.082031 252.933594 L 222.082031 311.433594 L 153.082031 311.433594 Z M 153.082031 252.933594 " clip-rule="nonzero"/></clipPath><clipPath id="febe2ad8f0"><path d="M 153.082031 252.933594 L 213 252.933594 L 213 299 L 153.082031 299 Z M 153.082031 252.933594 " clip-rule="nonzero"/></clipPath></defs><rect x="-37.5" width="450" fill="#ffffff" y="-37.499999" height="449.999989" fill-opacity="1"/><rect x="-37.5" width="450" fill="#ffffff" y="-37.499999" height="449.999989" fill-opacity="1"/><rect x="-37.5" width="450" fill="#ffffff" y="-37.499999" height="449.999989" fill-opacity="1"/><path stroke-linecap="butt" transform="matrix(0.222972, 0, 0, 0.223427, 6.468412, -10.819344)" fill-opacity="1" fill="#ff8a2c" fill-rule="evenodd" stroke-linejoin="miter" d="M 790.93428 118.812587 L 796.522859 118.812587 L 820.541483 130.893589 C 836.553899 138.935935 847.135408 144.21591 852.28601 146.716031 C 857.436612 149.216152 874.955667 157.345914 904.843174 171.087836 C 934.730681 184.829757 950.182488 191.770652 951.181074 191.910518 C 952.17966 192.050385 960.115792 195.30229 974.989469 201.701201 C 989.863147 208.082627 1001.303089 212.803135 1009.309297 215.862723 C 1017.315505 218.922311 1028.895601 223.083351 1044.049583 228.363326 C 1059.221084 233.625817 1068.804007 236.965139 1072.798352 238.346325 C 1076.810215 239.744994 1081.803146 241.405913 1087.812181 243.346566 C 1093.821217 245.287219 1101.54712 247.647473 1110.989891 250.427327 C 1120.415142 253.207181 1132.433214 256.546503 1147.026586 260.427809 C 1161.60244 264.309115 1175.775355 267.788304 1189.492775 270.847892 C 1203.227714 273.889997 1212.092356 275.83065 1216.0867 276.669851 C 1220.098564 277.509053 1232.817397 279.869306 1254.278239 283.750613 C 1275.721562 287.631919 1289.176196 289.992172 1294.607103 290.831374 C 1300.03801 291.670575 1313.334973 293.751095 1334.497991 297.072933 C 1355.661009 300.412255 1366.38267 302.073175 1366.680494 302.073175 C 1366.960799 302.073175 1377.262003 304.031311 1397.566588 307.912617 C 1417.871172 311.793923 1428.1023 313.80451 1428.242453 313.944377 L 1428.452681 314.154177 L 1427.17379 376.220108 C 1426.315357 417.585739 1424.160513 471.049856 1420.726778 536.577492 C 1417.293043 602.105129 1414.57759 647.929017 1412.580418 674.031675 C 1410.583245 700.134332 1408.288249 722.478067 1405.712948 741.097847 C 1403.137647 759.700142 1400.141889 777.32337 1396.708154 793.985013 C 1393.274419 810.646656 1389.56038 827.448165 1385.548516 844.389542 C 1381.554172 861.330919 1377.980285 876.174292 1374.826855 888.954629 C 1371.690944 901.734965 1367.959385 915.476887 1363.667217 930.180393 C 1359.392568 944.901383 1356.817266 953.78293 1355.958833 956.842518 C 1355.100399 959.902107 1353.803989 963.783413 1352.087122 968.50392 C 1350.370254 973.224427 1348.373082 979.06387 1346.078086 986.004764 C 1343.800609 992.945658 1340.226722 1002.946141 1335.356424 1015.988728 C 1330.503646 1029.048798 1326.491783 1039.451398 1323.355872 1047.231493 C 1320.202442 1055.011589 1316.34825 1064.312737 1311.758258 1075.134937 C 1307.185785 1085.957138 1301.316901 1099.017208 1294.169127 1114.297665 C 1287.021353 1129.560639 1282.729184 1138.442187 1281.310141 1140.942307 C 1279.873578 1143.442428 1274.6529 1152.533775 1265.648106 1168.233833 C 1256.643312 1183.916408 1251.194886 1193.217556 1249.337866 1196.137277 C 1247.480846 1199.056998 1243.048525 1206.417493 1236.040903 1218.218762 C 1229.033281 1230.02003 1224.460808 1237.502909 1222.323484 1240.702364 C 1220.16864 1243.901819 1216.875058 1248.90206 1212.442737 1255.703087 C 1208.010416 1262.504115 1204.436529 1267.784089 1201.721075 1271.525529 C 1199.005622 1275.266968 1195.852192 1279.725225 1192.278305 1284.84785 C 1188.704418 1289.987958 1185.270683 1294.708465 1181.99462 1299.009372 C 1178.701037 1303.327762 1176.125736 1306.929334 1174.268716 1309.849055 C 1172.411697 1312.768777 1169.696243 1316.510216 1166.122356 1321.090856 C 1162.548469 1325.671497 1159.114734 1330.252137 1155.821152 1334.832778 C 1152.52757 1339.413418 1148.953682 1344.133926 1145.09949 1348.9943 C 1141.227779 1353.854674 1137.951716 1358.033198 1135.236263 1361.494903 C 1132.50329 1364.974092 1126.722002 1371.565319 1117.85736 1381.286068 C 1108.992719 1391.006816 1098.551362 1402.10875 1086.533291 1414.609353 C 1074.515219 1427.092473 1063.93371 1437.792289 1054.788763 1446.673837 C 1045.626298 1455.555384 1039.547186 1461.185026 1036.551427 1463.54528 C 1033.555669 1465.905534 1026.548047 1471.86736 1015.528562 1481.448241 C 1004.526595 1491.029123 997.799278 1496.868565 995.36413 1498.949085 C 992.928981 1501.029605 986.937465 1506.169713 977.354542 1514.351926 C 967.771619 1522.551622 961.482278 1527.831597 958.469001 1530.191851 C 955.473242 1532.552105 952.039508 1535.331959 948.167796 1538.513931 C 944.313604 1541.713386 938.952774 1546.084226 932.085304 1551.643935 C 925.217835 1557.18616 919.997156 1561.29475 916.423269 1563.917254 C 912.849382 1566.557241 909.415647 1568.917495 906.139584 1570.998015 C 902.846002 1573.096018 896.836966 1576.697591 888.112477 1581.837699 C 879.387988 1586.977807 873.676776 1590.439512 870.943803 1592.240298 C 868.22835 1594.058568 865.162515 1595.929288 861.728781 1597.869941 C 858.295046 1599.810594 854.721159 1602.03098 851.007119 1604.531101 C 847.293079 1607.031222 844.560107 1608.832008 842.84324 1609.950943 C 841.143891 1611.052395 837.412333 1613.010531 831.701121 1615.772902 C 825.97239 1618.552756 819.10492 1621.752211 811.098712 1625.353784 C 803.092504 1628.972839 797.521445 1631.333093 794.368015 1632.434545 L 789.655389 1634.112947 L 784.504787 1632.854145 C 781.071053 1632.032428 777.357013 1630.633759 773.34515 1628.693106 C 769.350805 1626.752453 762.623488 1623.413131 753.180718 1618.692623 C 743.755466 1613.972116 738.30704 1611.052395 736.887997 1609.950943 C 735.451434 1608.832008 731.807471 1606.401821 725.938588 1602.660381 C 720.087223 1598.918942 715.654902 1596.139088 712.641625 1594.338302 C 709.645867 1592.520032 703.776983 1589.058327 695.052494 1583.918219 C 686.328005 1578.778111 680.318969 1575.176538 677.042906 1573.096018 C 673.749324 1570.998015 670.315589 1568.637761 666.741702 1566.015257 C 663.167815 1563.37527 659.085875 1560.245748 654.513401 1556.626693 C 649.940928 1553.02512 643.861816 1548.094813 636.276066 1541.853253 C 628.707834 1535.59421 622.120669 1530.191851 616.54961 1525.611211 C 610.961031 1521.03057 602.814671 1514.089676 592.09301 1504.771045 C 581.371348 1495.469897 574.503879 1489.647937 571.50812 1487.287684 C 568.494843 1484.92743 561.925197 1479.367721 551.764146 1470.626041 C 541.620613 1461.884361 535.961958 1456.954053 534.82322 1455.835118 C 533.684481 1454.733666 528.603955 1449.803358 519.581642 1441.044195 C 510.576848 1432.302514 504.287507 1426.060954 500.71362 1422.302032 C 497.139733 1418.560593 489.273678 1410.238513 477.115454 1397.318309 C 464.95723 1384.398106 457.669303 1376.495627 455.234154 1373.575905 C 452.799006 1370.656184 449.225118 1366.355277 444.512493 1360.655702 C 439.799867 1354.97361 436.068308 1350.392969 433.352855 1346.91378 C 430.637401 1343.452075 427.921948 1339.833019 425.206494 1336.09158 C 422.491041 1332.332657 419.635435 1328.451351 416.622158 1324.430178 C 413.626399 1320.409005 410.910946 1316.78995 408.475797 1313.590495 C 406.040649 1310.408523 403.9734 1307.558735 402.256533 1305.058615 C 400.539665 1302.558494 398.174593 1299.289106 395.178835 1295.267933 C 392.165557 1291.24676 389.590256 1287.627704 387.452932 1284.445732 C 385.315607 1281.246277 382.442482 1277.085237 378.868595 1271.945129 C 375.294708 1266.805021 372.579254 1262.783848 370.722234 1259.864127 C 368.865215 1256.944406 365.851937 1252.363765 361.71744 1246.122205 C 357.565424 1239.880646 354.849971 1235.562256 353.553561 1233.202002 C 352.27467 1230.841748 348.700783 1224.879922 342.831899 1215.29904 C 336.980535 1205.718159 333.108824 1199.476599 331.251804 1196.556878 C 329.394784 1193.637156 324.752235 1185.647261 317.306637 1172.604673 C 309.878557 1159.562086 304.289979 1149.701471 300.575939 1143.04031 C 296.8619 1136.361667 293.568317 1130.120107 290.712711 1124.280664 C 287.857106 1118.458705 283.845242 1109.717025 278.69464 1098.03814 C 273.544038 1086.376738 270.968737 1080.414912 270.968737 1080.135178 C 270.968737 1079.855445 268.410955 1073.474018 263.260353 1060.973415 C 258.109751 1048.472812 254.097887 1038.62968 251.242281 1031.409052 C 248.386675 1024.188424 244.374812 1013.208873 239.22421 998.505367 C 234.091127 983.784377 228.940525 968.084319 223.789923 951.44016 C 218.63932 934.778517 212.91059 914.497819 206.621249 890.615548 C 200.331908 866.733277 195.899587 848.970182 193.324286 837.308781 C 190.748985 825.647379 187.175098 808.706003 182.602625 786.484651 C 178.030152 764.280783 175.314698 749.69966 174.456264 742.758766 C 173.597831 735.817872 171.740811 714.575588 168.867686 679.031916 C 166.01208 643.488244 164.15506 616.686251 163.296627 598.643423 C 162.438193 580.583111 161.439607 561.438831 160.283349 541.158133 C 159.144611 520.894918 157.567896 487.711499 155.570723 441.607877 C 153.573551 395.521738 152.574965 362.897787 152.574965 343.736023 L 152.574965 314.993378 L 155.360495 313.524776 C 157.217515 312.563191 162.29804 311.374323 170.584553 309.993137 C 178.888585 308.611952 190.328528 306.793682 204.904382 304.573295 C 219.497754 302.352908 241.659358 298.751336 271.406713 293.751095 C 301.154068 288.750854 322.457239 285.131798 335.333744 282.911411 C 348.19273 280.691024 365.221251 277.229319 386.384269 272.508812 C 407.547287 267.788304 425.854699 263.347531 441.288987 259.169007 C 456.740793 255.007967 470.037755 251.126661 481.197393 247.507606 C 492.357031 243.906033 501.064001 241.126179 507.370861 239.185526 C 513.660202 237.244873 519.669237 235.30422 525.380449 233.346083 C 531.10918 231.40543 542.549123 227.244391 559.700277 220.862964 C 576.868951 214.464054 592.951443 208.012694 607.965273 201.4914 C 622.979103 194.970107 630.985311 191.630785 632.001416 191.490918 C 633.000002 191.351051 640.217853 188.221529 653.654968 182.119836 C 667.109602 176.018144 679.250307 170.458435 690.12964 165.458194 C 700.991454 160.457952 711.713115 155.457711 722.294624 150.45747 C 732.876133 145.457229 746.032943 138.935935 761.765054 130.893589 L 785.363221 118.812587 Z M 790.93428 118.812587 " stroke="#000000" stroke-width="2" stroke-opacity="1" stroke-miterlimit="4"/><path stroke-linecap="butt" transform="matrix(0.222972, 0, 0, 0.223427, 6.468412, -10.819344)" fill-opacity="1" fill="#ff8a2c" fill-rule="evenodd" stroke-linejoin="miter" d="M 769.333286 132.956626 L 774.921864 132.956626 L 798.940488 145.037628 C 814.952904 153.097458 825.534414 158.359949 830.685016 160.86007 C 835.835618 163.36019 853.354672 171.489953 883.24218 185.231875 C 913.129687 198.973796 928.581493 205.91469 929.580079 206.054557 C 930.578666 206.194424 938.514797 209.463813 953.388475 215.845239 C 968.262152 222.226666 979.702095 226.947173 987.708303 230.006762 C 995.714511 233.06635 1007.294606 237.22739 1022.466107 242.507365 C 1037.62009 247.787339 1047.203013 251.109178 1051.197357 252.507847 C 1055.209221 253.889032 1060.21967 255.549952 1066.211187 257.508088 C 1072.220223 259.448741 1079.946126 261.808995 1089.388896 264.588849 C 1098.831667 267.35122 1110.832219 270.690542 1125.425592 274.571848 C 1140.001445 278.470638 1154.174361 281.932343 1167.891781 284.991931 C 1181.626719 288.051519 1190.491361 289.992172 1194.485706 290.81389 C 1198.497569 291.653092 1211.233922 294.013345 1232.677245 297.894651 C 1254.120568 301.793441 1267.575202 304.153695 1273.006109 304.975413 C 1278.437016 305.814614 1291.733978 307.895134 1312.896996 311.234456 C 1334.060014 314.556294 1344.799195 316.234697 1345.0795 316.234697 C 1345.359805 316.234697 1355.661009 318.17535 1375.965593 322.056656 C 1396.270178 325.955445 1406.501306 327.966032 1406.641458 328.105899 L 1406.851687 328.315699 L 1405.572796 390.364146 C 1404.714362 431.747261 1402.559518 485.193895 1399.125784 550.739015 C 1395.692049 616.266651 1392.976595 662.073056 1390.979423 688.175714 C 1388.982251 714.278371 1386.687255 736.63959 1384.111954 755.241885 C 1381.536653 773.844181 1378.540894 791.484892 1375.10716 808.146535 C 1371.673425 824.790695 1367.959385 841.592204 1363.947522 858.533581 C 1359.953177 875.474957 1356.37929 890.335814 1353.22586 903.098667 C 1350.089949 915.879004 1346.358391 929.620926 1342.066222 944.341915 C 1337.791573 959.062905 1335.216272 967.944452 1334.357838 971.004041 C 1333.499405 974.046145 1332.202995 977.944935 1330.486127 982.665442 C 1328.76926 987.38595 1326.772088 993.207909 1324.477092 1000.148803 C 1322.199614 1007.089697 1318.625727 1017.09018 1313.75543 1030.132767 C 1308.902652 1043.192837 1304.890788 1053.595437 1301.754878 1061.375532 C 1298.601448 1069.155628 1294.747256 1078.456776 1290.157263 1089.278976 C 1285.58479 1100.11866 1279.715907 1113.161247 1272.568132 1128.441704 C 1265.420358 1143.704678 1261.12819 1152.603709 1259.709146 1155.103829 C 1258.272584 1157.60395 1253.051905 1166.695298 1244.047111 1182.377872 C 1235.042317 1198.060447 1229.593891 1207.361595 1227.736871 1210.281316 C 1225.879852 1213.201037 1221.447531 1220.561532 1214.439909 1232.362801 C 1207.432287 1244.164069 1202.859814 1251.664431 1200.722489 1254.846403 C 1198.567645 1258.045858 1195.274063 1263.046099 1190.841742 1269.847126 C 1186.409421 1276.648153 1182.835534 1281.928128 1180.120081 1285.669568 C 1177.404627 1289.42849 1174.268716 1293.869264 1170.67731 1299.009372 C 1167.103423 1304.14948 1163.669688 1308.869987 1160.393625 1313.170894 C 1157.100043 1317.471801 1154.524742 1321.073373 1152.667722 1323.993094 C 1150.810702 1326.912816 1148.095249 1330.654255 1144.521362 1335.234895 C 1140.947474 1339.833019 1137.51374 1344.41366 1134.220157 1348.9943 C 1130.926575 1353.574941 1127.352688 1358.295448 1123.498496 1363.155822 C 1119.626785 1368.016197 1116.350722 1372.177237 1113.635268 1375.638942 C 1110.902296 1379.118131 1105.121008 1385.709358 1096.256366 1395.430106 C 1087.391724 1405.150855 1076.950368 1416.252789 1064.932296 1428.753392 C 1052.914225 1441.253995 1042.332715 1451.936328 1033.187769 1460.817876 C 1024.025303 1469.716906 1017.96371 1475.329065 1014.950433 1477.689319 C 1011.954675 1480.049572 1004.947053 1486.028882 993.927567 1495.609764 C 982.925601 1505.190645 976.198284 1511.012604 973.763135 1513.093124 C 971.327987 1515.173644 965.33647 1520.313752 955.753547 1528.513448 C 946.170624 1536.695661 939.881284 1541.975636 936.868006 1544.33589 C 933.872248 1546.696144 930.438513 1549.475998 926.566802 1552.675453 C 922.71261 1555.857425 917.351779 1560.228265 910.48431 1565.787974 C 903.61684 1571.347682 898.396162 1575.438789 894.822275 1578.078776 C 891.248388 1580.718764 887.814653 1583.079017 884.53859 1585.159537 C 881.245007 1587.240057 875.235972 1590.84163 866.511482 1595.981738 C 857.786993 1601.121846 852.075781 1604.601034 849.342809 1606.401821 C 846.627355 1608.202607 843.561521 1610.073326 840.127786 1612.013979 C 836.694051 1613.972116 833.120164 1616.192503 829.406125 1618.692623 C 825.692085 1621.192744 822.959112 1622.99353 821.259764 1624.094982 C 819.542897 1625.213917 815.811338 1627.15457 810.100126 1629.934424 C 804.371395 1632.714279 797.521445 1635.89625 789.497718 1639.515306 C 781.49151 1643.116878 775.920451 1645.477132 772.767021 1646.596067 L 768.054395 1648.256986 L 762.903793 1647.015668 C 759.470058 1646.176466 755.756019 1644.795281 751.744155 1642.837144 C 747.749811 1640.896491 741.022494 1637.574653 731.579723 1632.854145 C 722.154472 1628.133638 716.706046 1625.213917 715.287002 1624.094982 C 713.85044 1622.99353 710.206476 1620.563343 704.337593 1616.80442 C 698.486229 1613.062981 694.053908 1610.283127 691.040631 1608.482341 C 688.044872 1606.681554 682.175989 1603.202366 673.4515 1598.062258 C 664.72701 1592.922149 658.717975 1589.320577 655.441911 1587.240057 C 652.148329 1585.159537 648.714594 1582.799284 645.140707 1580.159296 C 641.56682 1577.519309 637.48488 1574.389787 632.912407 1570.788215 C 628.339934 1567.169159 622.260822 1562.238851 614.675071 1555.997292 C 607.106839 1549.755732 600.519675 1544.33589 594.948615 1539.755249 C 589.377556 1535.174609 581.213677 1528.233715 570.492015 1518.932567 C 559.770354 1509.631419 552.902884 1503.791976 549.907126 1501.431723 C 546.893848 1499.071469 540.324203 1493.529244 530.163151 1484.77008 C 520.019619 1476.028399 514.360964 1471.098092 513.222225 1469.99664 C 512.083487 1468.877705 507.002961 1463.947397 497.998167 1455.205717 C 488.975854 1446.464036 482.686513 1440.204993 479.112626 1436.463554 C 475.538739 1432.704631 467.672683 1424.382552 455.514459 1411.462348 C 443.356235 1398.559628 436.068308 1390.639666 433.63316 1387.719944 C 431.198011 1384.817706 427.624124 1380.499316 422.911498 1374.817224 C 418.198873 1369.117648 414.467314 1364.537008 411.75186 1361.075302 C 409.036407 1357.596114 406.320953 1353.994541 403.6055 1350.235619 C 400.890047 1346.49418 398.034441 1342.59539 395.021163 1338.574217 C 392.025405 1334.553044 389.309951 1330.933989 386.874803 1327.752017 C 384.439654 1324.552562 382.372406 1321.702774 380.655538 1319.202653 C 378.938671 1316.702533 376.573599 1313.450628 373.57784 1309.411971 C 370.564563 1305.390798 368.006781 1301.789226 365.851937 1298.589771 C 363.714612 1295.390316 360.841487 1291.229276 357.2676 1286.089168 C 353.693713 1280.94906 350.97826 1276.927887 349.12124 1274.008166 C 347.26422 1271.105928 344.268462 1266.525287 340.116446 1260.266244 C 335.96443 1254.024685 333.248976 1249.723778 331.970085 1247.363524 C 330.673675 1245.00327 327.099788 1239.023961 321.230905 1229.443079 C 315.379541 1219.862198 311.507829 1213.620638 309.65081 1210.700917 C 307.79379 1207.781195 303.15124 1199.808783 295.705642 1186.748712 C 288.277563 1173.706125 282.688984 1163.84551 278.974945 1157.184349 C 275.260905 1150.523189 271.967323 1144.264146 269.111717 1138.442187 C 266.256111 1132.602744 262.244248 1123.861064 257.093645 1112.199662 C 251.943043 1100.53826 249.385261 1094.558951 249.385261 1094.279217 C 249.385261 1094.016967 246.80996 1087.618057 241.659358 1075.134937 C 236.508756 1062.634334 232.496893 1052.773719 229.641287 1045.553091 C 226.785681 1038.332463 222.773817 1027.370396 217.623215 1012.649406 C 212.490132 997.928416 207.33953 982.245842 202.188928 965.584199 C 197.038326 948.922556 191.309595 928.641857 185.020254 904.77707 C 178.730914 880.894799 174.298593 863.114221 171.723292 851.45282 C 169.147991 839.791418 165.574104 822.850042 161.00163 800.646173 C 156.429157 778.424822 153.713704 763.843699 152.85527 756.902805 C 151.996836 749.961911 150.139817 728.719627 147.266692 693.175955 C 144.411086 657.632282 142.554066 630.847774 141.695632 612.787462 C 140.837198 594.744634 139.838612 575.58287 138.699874 555.302172 C 137.543616 535.038957 135.966901 501.855538 133.969729 455.769399 C 131.972557 409.665777 130.973971 377.041826 130.973971 357.880062 L 130.973971 329.137417 L 133.7595 327.686298 C 135.61652 326.70723 140.697046 325.535845 148.983559 324.137176 C 157.287591 322.75599 168.727534 320.955204 183.303387 318.734817 C 197.89676 316.514431 220.058364 312.895375 249.805719 307.895134 C 279.553074 302.894893 300.856244 299.29332 313.732749 297.072933 C 326.591736 294.852547 343.620257 291.373358 364.783275 286.65285 C 385.946293 281.932343 404.253705 277.491569 419.687992 273.33053 C 435.139798 269.152006 448.436761 265.2707 459.596399 261.669128 C 470.756037 258.050072 479.480526 255.270218 485.769867 253.329565 C 492.059207 251.388912 498.068243 249.448259 503.779455 247.507606 C 509.508186 245.549469 520.948128 241.388429 538.099283 235.007003 C 555.267957 228.625576 571.350449 222.156733 586.364279 215.635439 C 601.378109 209.114145 609.384317 205.774824 610.400422 205.634957 C 611.399008 205.49509 618.616858 202.383052 632.053973 196.263875 C 645.508607 190.162182 657.649312 184.602474 668.528645 179.602233 C 679.390459 174.601991 690.112121 169.619234 700.69363 164.618992 C 711.275139 159.618751 724.431949 153.097458 740.16406 145.037628 L 763.762227 132.956626 L 769.350805 132.956626 Z M 769.333286 132.956626 " stroke="#000000" stroke-width="2" stroke-opacity="1" stroke-miterlimit="4"/><g clip-path="url(#40ee262fdb)"><path fill="#ff9e51" d="M 182.398438 2.722656 L 183.738281 2.722656 L 189.519531 5.636719 C 193.375 7.578125 195.921875 8.851562 197.160156 9.453125 C 198.398438 10.054688 202.617188 12.015625 209.808594 15.328125 C 217 18.644531 220.71875 20.316406 220.960938 20.351562 C 221.199219 20.386719 223.109375 21.171875 226.6875 22.710938 C 230.269531 24.253906 233.019531 25.390625 234.949219 26.128906 C 236.875 26.863281 239.664062 27.867188 243.3125 29.140625 C 246.960938 30.414062 249.265625 31.21875 250.230469 31.550781 C 251.191406 31.886719 252.398438 32.289062 253.84375 32.757812 C 255.289062 33.226562 257.144531 33.796875 259.417969 34.464844 C 261.6875 35.132812 264.578125 35.9375 268.089844 36.875 C 271.601562 37.8125 275.007812 38.648438 278.3125 39.386719 C 281.613281 40.125 283.75 40.59375 284.710938 40.792969 C 285.675781 40.992188 288.738281 41.5625 293.902344 42.5 C 299.0625 43.4375 302.296875 44.007812 303.605469 44.207031 C 304.914062 44.410156 308.113281 44.910156 313.207031 45.714844 C 318.300781 46.519531 320.882812 46.921875 320.949219 46.921875 C 321.019531 46.921875 323.496094 47.390625 328.382812 48.328125 C 333.269531 49.265625 335.730469 49.75 335.765625 49.785156 L 335.816406 49.832031 L 335.507812 64.800781 C 335.300781 74.777344 334.785156 87.667969 333.960938 103.472656 C 333.132812 119.277344 332.480469 130.328125 331.996094 136.621094 C 331.515625 142.914062 330.964844 148.308594 330.347656 152.792969 C 329.726562 157.28125 329.003906 161.53125 328.179688 165.550781 C 327.351562 169.566406 326.457031 173.621094 325.492188 177.703125 C 324.53125 181.789062 323.667969 185.371094 322.914062 188.453125 C 322.15625 191.535156 321.261719 194.847656 320.226562 198.398438 C 319.195312 201.945312 318.578125 204.089844 318.371094 204.824219 C 318.164062 205.5625 317.855469 206.5 317.441406 207.636719 C 317.027344 208.777344 316.546875 210.183594 315.996094 211.855469 C 315.445312 213.53125 314.585938 215.941406 313.414062 219.089844 C 312.242188 222.238281 311.28125 224.75 310.523438 226.625 C 309.765625 228.5 308.835938 230.742188 307.734375 233.351562 C 306.632812 235.964844 305.222656 239.113281 303.503906 242.796875 C 301.78125 246.480469 300.75 248.621094 300.40625 249.222656 C 300.0625 249.828125 298.804688 252.019531 296.636719 255.804688 C 294.46875 259.585938 293.160156 261.832031 292.714844 262.535156 C 292.265625 263.238281 291.199219 265.011719 289.511719 267.859375 C 287.828125 270.703125 286.726562 272.511719 286.210938 273.28125 C 285.691406 274.050781 284.902344 275.257812 283.835938 276.898438 C 282.769531 278.539062 281.90625 279.8125 281.253906 280.714844 C 280.601562 281.621094 279.84375 282.691406 278.980469 283.929688 C 278.121094 285.167969 277.296875 286.308594 276.503906 287.34375 C 275.710938 288.382812 275.09375 289.253906 274.644531 289.957031 C 274.199219 290.660156 273.542969 291.5625 272.683594 292.667969 C 271.824219 293.773438 270.996094 294.878906 270.207031 295.984375 C 269.414062 297.089844 268.554688 298.226562 267.625 299.398438 C 266.695312 300.570312 265.90625 301.574219 265.25 302.414062 C 264.597656 303.25 263.203125 304.839844 261.070312 307.183594 C 258.933594 309.527344 256.421875 312.207031 253.53125 315.21875 C 250.640625 318.234375 248.09375 320.8125 245.890625 322.953125 C 243.691406 325.097656 242.226562 326.453125 241.503906 327.023438 C 240.78125 327.589844 239.09375 329.03125 236.445312 331.339844 C 233.796875 333.652344 232.179688 335.058594 231.59375 335.558594 C 231.007812 336.0625 229.5625 337.300781 227.257812 339.277344 C 224.949219 341.253906 223.4375 342.523438 222.714844 343.09375 C 221.992188 343.664062 221.164062 344.332031 220.234375 345.101562 C 219.308594 345.875 218.015625 346.929688 216.363281 348.265625 C 214.710938 349.605469 213.457031 350.59375 212.597656 351.230469 C 211.734375 351.867188 210.910156 352.4375 210.117188 352.9375 C 209.328125 353.441406 207.882812 354.3125 205.78125 355.550781 C 203.683594 356.789062 202.304688 357.625 201.652344 358.0625 C 200.996094 358.496094 200.257812 358.949219 199.433594 359.417969 C 198.605469 359.886719 197.746094 360.421875 196.851562 361.023438 C 195.957031 361.628906 195.300781 362.0625 194.890625 362.332031 C 194.476562 362.597656 193.582031 363.066406 192.203125 363.738281 C 190.828125 364.40625 189.175781 365.175781 187.25 366.046875 C 185.320312 366.917969 183.980469 367.488281 183.222656 367.753906 L 182.085938 368.15625 L 180.847656 367.855469 C 180.023438 367.652344 179.128906 367.320312 178.164062 366.851562 C 177.199219 366.382812 175.582031 365.578125 173.3125 364.441406 C 171.039062 363.300781 169.730469 362.597656 169.386719 362.332031 C 169.042969 362.0625 168.167969 361.476562 166.753906 360.574219 C 165.34375 359.667969 164.277344 359 163.554688 358.5625 C 162.832031 358.128906 161.421875 357.292969 159.320312 356.050781 C 157.222656 354.8125 155.777344 353.941406 154.984375 353.441406 C 154.195312 352.9375 153.367188 352.367188 152.507812 351.734375 C 151.648438 351.097656 150.667969 350.34375 149.566406 349.472656 C 148.464844 348.601562 147 347.414062 145.175781 345.90625 C 143.351562 344.398438 141.769531 343.09375 140.429688 341.988281 C 139.085938 340.882812 137.125 339.210938 134.542969 336.96875 C 131.960938 334.722656 130.308594 333.316406 129.585938 332.746094 C 128.863281 332.179688 127.28125 330.839844 124.839844 328.730469 C 122.394531 326.621094 121.035156 325.429688 120.761719 325.164062 C 120.484375 324.894531 119.261719 323.707031 117.09375 321.597656 C 114.925781 319.488281 113.414062 317.980469 112.550781 317.078125 C 111.691406 316.171875 109.796875 314.164062 106.875 311.050781 C 103.949219 307.9375 102.191406 306.027344 101.609375 305.324219 C 101.023438 304.621094 100.164062 303.585938 99.027344 302.210938 C 97.890625 300.839844 96.996094 299.734375 96.34375 298.898438 C 95.6875 298.058594 95.035156 297.1875 94.382812 296.285156 C 93.726562 295.382812 93.039062 294.445312 92.316406 293.472656 C 91.59375 292.5 90.9375 291.632812 90.355469 290.859375 C 89.769531 290.089844 89.269531 289.40625 88.855469 288.800781 C 88.445312 288.199219 87.875 287.414062 87.152344 286.441406 C 86.429688 285.46875 85.8125 284.601562 85.296875 283.828125 C 84.777344 283.058594 84.089844 282.054688 83.230469 280.816406 C 82.371094 279.578125 81.714844 278.605469 81.269531 277.902344 C 80.820312 277.199219 80.097656 276.09375 79.101562 274.589844 C 78.101562 273.082031 77.449219 272.042969 77.140625 271.472656 C 76.828125 270.90625 75.96875 269.464844 74.558594 267.15625 C 73.148438 264.84375 72.21875 263.339844 71.769531 262.636719 C 71.324219 261.933594 70.203125 260.007812 68.414062 256.859375 C 66.625 253.710938 65.28125 251.335938 64.386719 249.726562 C 63.492188 248.121094 62.703125 246.613281 62.015625 245.207031 C 61.324219 243.800781 60.363281 241.691406 59.121094 238.878906 C 57.882812 236.066406 57.265625 234.625 57.265625 234.558594 C 57.265625 234.492188 56.644531 232.953125 55.40625 229.9375 C 54.167969 226.925781 53.203125 224.546875 52.515625 222.804688 C 51.828125 221.066406 50.863281 218.421875 49.625 214.871094 C 48.386719 211.320312 47.148438 207.539062 45.90625 203.519531 C 44.667969 199.503906 43.292969 194.613281 41.777344 188.855469 C 40.265625 183.09375 39.195312 178.808594 38.578125 175.996094 C 37.957031 173.183594 37.097656 169.097656 35.996094 163.742188 C 34.894531 158.386719 34.242188 154.871094 34.035156 153.195312 C 33.828125 151.519531 33.378906 146.398438 32.691406 137.828125 C 32.003906 129.253906 31.558594 122.792969 31.351562 118.441406 C 31.144531 114.085938 30.902344 109.464844 30.628906 104.578125 C 30.351562 99.6875 29.972656 91.6875 29.492188 80.570312 C 29.011719 69.453125 28.769531 61.585938 28.769531 56.964844 L 28.769531 50.035156 L 29.441406 49.683594 C 29.886719 49.449219 31.109375 49.164062 33.105469 48.828125 C 35.101562 48.492188 37.855469 48.058594 41.363281 47.523438 C 44.875 46.988281 50.210938 46.117188 57.367188 44.910156 C 64.527344 43.707031 69.652344 42.835938 72.75 42.300781 C 75.847656 41.765625 79.945312 40.925781 85.039062 39.789062 C 90.132812 38.648438 94.535156 37.578125 98.253906 36.574219 C 101.96875 35.570312 105.171875 34.632812 107.855469 33.761719 C 110.539062 32.890625 112.636719 32.222656 114.152344 31.753906 C 115.667969 31.285156 117.113281 30.816406 118.488281 30.347656 C 119.867188 29.878906 122.617188 28.871094 126.75 27.332031 C 130.878906 25.792969 134.75 24.234375 138.363281 22.660156 C 141.976562 21.089844 143.902344 20.285156 144.144531 20.25 C 144.386719 20.21875 146.125 19.464844 149.359375 17.992188 C 152.59375 16.515625 155.519531 15.179688 158.132812 13.972656 C 160.75 12.765625 163.332031 11.5625 165.878906 10.355469 C 168.425781 9.152344 171.589844 7.578125 175.375 5.636719 L 181.054688 2.722656 Z M 182.398438 2.722656 " fill-opacity="1" fill-rule="evenodd"/></g><g clip-path="url(#e20d1a403c)"><path stroke-linecap="butt" transform="matrix(0.222972, 0, 0, 0.223427, 6.468412, -10.819344)" fill="none" stroke-linejoin="miter" d="M 789.024704 60.610479 L 795.033739 60.610479 L 820.96194 73.653066 C 838.253247 82.342297 849.675671 88.041872 855.229211 90.73431 C 860.782752 93.426747 879.703331 102.203394 911.95591 117.029284 C 944.20849 131.872658 960.88663 139.355536 961.972812 139.512886 C 963.041474 139.670237 971.608292 143.184392 987.655746 150.072836 C 1003.720719 156.978764 1016.054133 162.066422 1024.708546 165.370777 C 1033.34544 168.657649 1045.854045 173.150872 1062.216843 178.850448 C 1078.57964 184.550024 1088.915882 188.151596 1093.243088 189.637682 C 1097.552776 191.141251 1102.966164 192.942037 1109.448214 195.04004 C 1115.930264 197.138043 1124.251815 199.690614 1134.447905 202.680269 C 1144.626476 205.669923 1157.590576 209.271496 1173.340207 213.467502 C 1189.089837 217.663509 1204.366452 221.404948 1219.187573 224.709303 C 1233.991174 228.013658 1243.574097 230.111662 1247.883784 231.003313 C 1252.210991 231.894965 1265.94593 234.447535 1289.10612 238.643542 C 1312.248791 242.839548 1326.754569 245.392119 1332.623452 246.28377 C 1338.492335 247.192905 1352.840441 249.430775 1375.685288 253.032348 C 1398.530136 256.63392 1410.110231 258.434706 1410.408055 258.434706 C 1410.723398 258.434706 1421.830478 260.532709 1443.746816 264.728716 C 1465.663153 268.924723 1476.700158 271.092659 1476.857829 271.25001 L 1477.085577 271.45981 L 1475.701572 338.456048 C 1474.773062 383.108552 1472.460547 440.803642 1468.764026 511.54132 C 1465.049986 582.278997 1462.124304 631.739425 1459.951942 659.905119 C 1457.797098 688.070813 1455.326911 712.215335 1452.5589 732.286233 C 1449.773371 752.374614 1446.532346 771.396511 1442.835825 789.386889 C 1439.121785 807.359784 1435.109922 825.507512 1430.782715 843.777624 C 1426.473028 862.06522 1422.601317 878.097462 1419.220139 891.891833 C 1415.821443 905.686205 1411.809579 920.512095 1407.16703 936.40447 C 1402.541999 952.279361 1399.773989 961.877726 1398.845479 965.164598 C 1397.916969 968.468953 1396.532964 972.66496 1394.675944 977.752618 C 1392.818924 982.857759 1390.66408 989.151769 1388.193893 996.634647 C 1385.723707 1004.135009 1381.869515 1014.922243 1376.613798 1029.013832 C 1371.358082 1043.10542 1367.048394 1054.347221 1363.649698 1062.739234 C 1360.251001 1071.131248 1356.081466 1081.166697 1351.141093 1092.845582 C 1346.200719 1104.54195 1339.876341 1118.633539 1332.167957 1135.120348 C 1324.442053 1151.607157 1319.817023 1161.188039 1318.275346 1163.880476 C 1316.733669 1166.590397 1311.092534 1176.398563 1301.369458 1193.339939 C 1291.646383 1210.263833 1285.7775 1220.316765 1283.780327 1223.46377 C 1281.765636 1226.610775 1276.982934 1234.548221 1269.414703 1247.293591 C 1261.86399 1260.021477 1256.923617 1268.116273 1254.611101 1271.560495 C 1252.281067 1275.004717 1248.742218 1280.407076 1243.959516 1287.750087 C 1239.176814 1295.093099 1235.305103 1300.792675 1232.379421 1304.831331 C 1229.453739 1308.887471 1226.055042 1313.677911 1222.183331 1319.220137 C 1218.329139 1324.762362 1214.632619 1329.867504 1211.07625 1334.500594 C 1207.519882 1339.151168 1204.751872 1343.049958 1202.73718 1346.196962 C 1200.740008 1349.343967 1197.796807 1353.382624 1193.942615 1358.330415 C 1190.088423 1363.278206 1186.374383 1368.225997 1182.835534 1373.173788 C 1179.279166 1378.121579 1175.424974 1383.209237 1171.255439 1388.454245 C 1167.085904 1393.699254 1163.547055 1398.192477 1160.603854 1401.9514 C 1157.678172 1405.692839 1151.423869 1412.808567 1141.858465 1423.298583 C 1132.275542 1433.7886 1121.01079 1445.782185 1108.04669 1459.261856 C 1095.082589 1472.759011 1083.660166 1484.298029 1073.779419 1493.878911 C 1063.916191 1503.477276 1057.346545 1509.544002 1054.10552 1512.096573 C 1050.864495 1514.63166 1043.296263 1521.08302 1031.418344 1531.415686 C 1019.540425 1541.765836 1012.287537 1548.059846 1009.659678 1550.297716 C 1007.03182 1552.553069 1000.54977 1558.095295 990.213528 1566.941875 C 979.859766 1575.788456 973.079892 1581.470548 969.838867 1584.023119 C 966.597842 1586.57569 962.883802 1589.565344 958.714267 1593.009566 C 954.562251 1596.471272 948.763444 1601.191779 941.352884 1607.171089 C 933.942324 1613.167881 928.318707 1617.591172 924.464515 1620.440959 C 920.592804 1623.290747 916.896284 1625.843318 913.339916 1628.081188 C 909.801067 1630.336542 903.319016 1634.235331 893.893765 1639.777556 C 884.486033 1645.319782 878.301806 1649.061221 875.376124 1651.019357 C 872.432923 1652.96001 869.121822 1654.98808 865.425301 1657.086083 C 861.711261 1659.184087 857.857069 1661.579307 853.845206 1664.271745 C 849.833342 1666.981666 846.890141 1668.922319 845.05064 1670.128671 C 843.193621 1671.317539 839.181757 1673.415542 832.997531 1676.42268 C 826.830824 1679.412335 819.420263 1682.856557 810.783369 1686.755347 C 802.128956 1690.654136 796.119921 1693.206707 792.721224 1694.395575 L 787.623179 1696.196361 L 782.069639 1694.850143 C 778.373118 1693.941008 774.361255 1692.454922 770.034048 1690.356919 C 765.706842 1688.258916 758.453953 1684.657343 748.275382 1679.569685 C 738.079292 1674.464544 732.210409 1671.317539 730.668732 1670.128671 C 729.127055 1668.922319 725.202787 1666.299815 718.860889 1662.261158 C 712.536511 1658.205019 707.753809 1655.215364 704.512784 1653.257227 C 701.271758 1651.316574 694.94738 1647.575135 685.522128 1642.015426 C 676.114396 1636.473201 669.632346 1632.574412 666.075978 1630.336542 C 662.537129 1628.081188 658.823089 1625.528617 654.968897 1622.696313 C 651.114705 1619.846525 646.717422 1616.472236 641.777049 1612.573447 C 636.836675 1608.674658 630.26703 1603.359716 622.085631 1596.611139 C 613.904233 1589.862561 606.809016 1584.023119 600.79998 1579.075328 C 594.773425 1574.127537 585.978859 1566.644658 574.398764 1556.609209 C 562.818669 1546.556277 555.408109 1540.262267 552.167084 1537.709696 C 548.926059 1535.174609 541.830842 1529.177816 530.881432 1519.736801 C 519.914504 1510.295787 513.817873 1504.963362 512.591539 1503.774493 C 511.347686 1502.568141 505.864222 1497.253199 496.141147 1487.812185 C 486.418072 1478.37117 479.638197 1471.622593 475.766486 1467.583936 C 471.912294 1463.527797 463.415553 1454.541349 450.3113 1440.607111 C 437.189528 1426.672872 429.305953 1418.123509 426.695614 1414.976504 C 424.067756 1411.829499 420.213564 1407.196408 415.115519 1401.042265 C 410.017474 1394.905606 406.00561 1389.957814 403.079928 1386.216375 C 400.136727 1382.457453 397.211045 1378.558663 394.285363 1374.520007 C 391.342162 1370.481351 388.258808 1366.285344 385.017783 1361.931987 C 381.776758 1357.57863 378.833557 1353.697324 376.223217 1350.235619 C 373.595359 1346.791397 371.35292 1343.731809 369.4959 1341.021888 C 367.6564 1338.32945 365.098618 1334.815295 361.857593 1330.461938 C 358.616568 1326.108581 355.848557 1322.227275 353.536042 1318.765569 C 351.206007 1315.321347 348.122654 1310.828124 344.268462 1305.285898 C 340.41427 1299.743673 337.471068 1295.390316 335.473896 1292.243311 C 333.459205 1289.096306 330.21818 1284.148515 325.750821 1277.417421 C 321.265943 1270.668844 318.340261 1266.01827 316.956255 1263.465699 C 315.554731 1260.930612 311.700539 1254.479252 305.37616 1244.146586 C 299.051782 1233.796436 294.882246 1227.065342 292.867555 1223.918337 C 290.870383 1220.771332 285.842414 1212.152036 277.818687 1198.060447 C 269.79496 1183.968858 263.768405 1173.338975 259.756542 1166.13583 C 255.744678 1158.950169 252.205829 1152.201591 249.122476 1145.907582 C 246.021603 1139.613572 241.711915 1130.172557 236.140856 1117.584537 C 230.587316 1104.996517 227.819305 1098.545157 227.819305 1098.24794 C 227.819305 1097.950723 225.033775 1091.062279 219.480235 1077.565124 C 213.926695 1064.085453 209.599488 1053.438087 206.516135 1045.640508 C 203.432781 1037.860412 199.105574 1026.024177 193.552034 1010.131802 C 187.998494 994.239427 182.444953 977.315534 176.873894 959.325156 C 171.320354 941.352261 165.153646 919.463093 158.356253 893.692619 C 151.576379 867.904662 146.776158 848.725415 144.008147 836.137396 C 141.222618 823.549376 137.368426 805.261781 132.428052 781.292093 C 127.487679 757.322405 124.561997 741.587381 123.633487 734.087019 C 122.704977 726.586657 120.690286 703.665971 117.606932 665.307478 C 114.523578 626.931501 112.526406 598.014022 111.597896 578.537558 C 110.669386 559.043611 109.583205 538.360795 108.356871 516.489111 C 107.113018 494.599943 105.41367 458.79402 103.258826 409.036376 C 101.103982 359.278731 100.017801 324.067242 100.017801 303.384427 L 100.017801 272.368945 L 103.031078 270.795442 C 105.028251 269.746441 110.511715 268.470155 119.463952 266.966586 C 128.416189 265.463017 140.767122 263.522364 156.499233 261.127144 C 172.248864 258.731923 196.179892 254.833134 228.274801 249.430775 C 260.387228 244.0459 283.372228 240.147111 297.264838 237.75189 C 311.157448 235.35667 329.534937 231.597747 352.379784 226.510089 C 375.224631 221.404948 394.968606 216.614507 411.646746 212.121284 C 428.307367 207.62806 442.672992 203.432053 454.708583 199.533264 C 466.744173 195.634474 476.151906 192.64482 482.949299 190.546816 C 489.746692 188.448813 496.228742 186.35081 502.395449 184.252806 C 508.579676 182.154803 520.91309 177.644096 539.44825 170.755652 C 557.965891 163.867208 575.327274 156.891347 591.5324 149.845552 C 607.737525 142.817241 616.374419 139.215669 617.460601 139.058319 C 618.546782 138.918452 626.342762 135.544163 640.848539 128.952936 C 655.354316 122.344226 668.476088 116.364917 680.196336 110.962558 C 691.934102 105.5602 703.514197 100.175325 714.936621 94.772966 C 726.359045 89.388091 740.549479 82.342297 757.525443 73.653066 L 782.998149 60.610479 Z M 789.024704 60.610479 " stroke="#000000" stroke-width="2" stroke-opacity="1" stroke-miterlimit="4"/></g><path stroke-linecap="butt" transform="matrix(0.222972, 0, 0, 0.223427, 6.468412, -10.819344)" fill-opacity="1" fill="#737373" fill-rule="evenodd" stroke-linejoin="miter" d="M 791.564966 125.561164 L 797.136026 125.561164 L 821.15465 137.642167 C 837.184585 145.684513 847.766094 150.964488 852.916696 153.464608 C 858.049779 155.964729 875.568834 164.094492 905.456341 177.836413 C 935.343848 191.578335 950.795655 198.519229 951.794241 198.659096 C 952.792827 198.798963 960.728959 202.068351 975.602636 208.449778 C 990.476314 214.831204 1001.916256 219.551712 1009.922464 222.6113 C 1017.928672 225.670888 1029.526286 229.831928 1044.680269 235.111903 C 1059.834251 240.374395 1069.417174 243.713716 1073.429038 245.094902 C 1077.423382 246.493571 1082.433832 248.15449 1088.442867 250.095143 C 1094.451903 252.035796 1102.160287 254.39605 1111.603058 257.175904 C 1121.045828 259.955759 1133.0639 263.29508 1147.639753 267.176387 C 1162.233126 271.057693 1176.388522 274.536881 1190.123461 277.59647 C 1203.840881 280.638574 1212.705522 282.596711 1216.717386 283.418429 C 1220.71173 284.25763 1233.448083 286.617884 1254.891406 290.49919 C 1276.352248 294.397979 1289.789363 296.758233 1295.22027 297.579951 C 1300.651177 298.419152 1313.94814 300.499672 1335.128677 303.838994 C 1356.291695 307.160833 1367.013356 308.821752 1367.293661 308.821752 C 1367.591485 308.821752 1377.87517 310.779888 1398.179755 314.661194 C 1418.484339 318.5425 1428.715467 320.553087 1428.855619 320.692954 L 1429.083367 320.902754 L 1427.786957 382.968685 C 1426.928523 424.3518 1424.791199 477.798434 1421.357464 543.32607 C 1417.923729 608.853706 1415.208276 654.677594 1413.193585 680.780252 C 1411.196412 706.88291 1408.918935 729.244128 1406.343634 747.846424 C 1403.768333 766.44872 1400.755056 784.071947 1397.321321 800.73359 C 1393.887586 817.395233 1390.173547 834.196743 1386.179202 851.138119 C 1382.167339 868.079496 1378.593451 882.922869 1375.440022 895.703206 C 1372.304111 908.483543 1368.590071 922.225464 1364.297903 936.946454 C 1360.005734 951.64996 1357.430433 960.548991 1356.572 963.591096 C 1355.713566 966.650684 1354.434675 970.53199 1352.717808 975.252497 C 1351.00094 979.973005 1348.986249 985.812447 1346.708772 992.753341 C 1344.413776 999.694236 1340.839889 1009.694718 1335.98711 1022.737305 C 1331.116813 1035.797376 1327.122469 1046.199975 1323.969039 1053.980071 C 1320.815609 1061.760166 1316.961417 1071.061314 1312.388944 1081.883515 C 1307.81647 1092.723198 1301.947587 1105.765785 1294.799813 1121.046243 C 1287.652039 1136.309217 1283.35987 1145.190764 1281.923308 1147.690884 C 1280.486745 1150.191005 1275.266067 1159.282353 1266.261273 1174.982411 C 1257.256479 1190.664985 1251.825572 1199.966133 1249.968552 1202.885854 C 1248.111532 1205.805576 1243.679211 1213.16607 1236.671589 1224.967339 C 1229.663967 1236.768607 1225.073975 1244.251486 1222.93665 1247.450941 C 1220.799326 1250.650396 1217.505743 1255.650637 1213.073423 1262.451664 C 1208.641102 1269.252692 1205.067215 1274.532667 1202.351761 1278.274106 C 1199.618789 1282.033028 1196.482878 1286.473802 1192.908991 1291.61391 C 1189.335104 1296.736535 1185.901369 1301.457042 1182.607787 1305.775432 C 1179.314204 1310.076339 1176.738903 1313.677911 1174.881883 1316.597633 C 1173.024864 1319.517354 1170.30941 1323.258793 1166.735523 1327.839434 C 1163.161636 1332.420074 1159.727901 1337.000715 1156.434319 1341.581355 C 1153.158256 1346.161996 1149.584368 1350.882503 1145.712657 1355.742877 C 1141.858465 1360.603252 1138.564883 1364.781775 1135.849429 1368.24348 C 1133.133976 1371.722669 1127.335169 1378.313896 1118.470527 1388.034645 C 1109.605886 1397.755393 1099.164529 1408.857327 1087.146457 1421.35793 C 1075.145905 1433.84105 1064.564396 1444.540867 1055.40193 1453.422414 C 1046.256984 1462.303961 1040.177872 1467.933603 1037.164594 1470.293857 C 1034.168836 1472.654111 1027.161214 1478.615937 1016.159248 1488.196819 C 1005.139762 1497.7777 998.412445 1503.617143 995.994816 1505.697663 C 993.559667 1507.778183 987.550631 1512.918291 977.967708 1521.117987 C 968.384786 1529.3002 962.095445 1534.580175 959.082168 1536.940428 C 956.086409 1539.300682 952.652674 1542.080536 948.798482 1545.262508 C 944.926771 1548.461963 939.565941 1552.832803 932.698471 1558.392512 C 925.848521 1563.934737 920.627842 1568.043327 917.053955 1570.665831 C 913.480068 1573.305819 910.046333 1575.666072 906.752751 1577.764076 C 903.459169 1579.844596 897.450133 1583.446168 888.725644 1588.586276 C 880.001155 1593.726384 874.289943 1597.18809 871.574489 1599.006359 C 868.859036 1600.807145 865.775682 1602.677865 862.341947 1604.618518 C 858.908213 1606.559171 855.334326 1608.779558 851.620286 1611.279678 C 847.906246 1613.779799 845.190793 1615.598068 843.473926 1616.69952 C 841.757058 1617.818455 838.043019 1619.759108 832.314288 1622.538963 C 826.603076 1625.301334 819.735606 1628.500789 811.729398 1632.119844 C 803.72319 1635.721417 798.134612 1638.08167 794.998701 1639.200605 L 790.268556 1640.861525 L 785.117954 1639.602723 C 781.701739 1638.781005 777.97018 1637.382336 773.975836 1635.441683 C 769.963972 1633.50103 763.254174 1630.161708 753.811404 1625.4412 C 744.368633 1620.720693 738.937726 1617.818455 737.501164 1616.69952 C 736.08212 1615.598068 732.420638 1613.167881 726.569273 1609.408959 C 720.70039 1605.667519 716.268069 1602.887665 713.272311 1601.086879 C 710.259034 1599.268609 704.407669 1595.806904 695.68318 1590.666796 C 686.958691 1585.526688 680.949655 1581.925116 677.656073 1579.844596 C 674.36249 1577.746592 670.928756 1575.386339 667.354869 1572.763835 C 663.780981 1570.123847 659.716561 1566.994325 655.126568 1563.392753 C 650.554095 1559.773697 644.474983 1554.84339 636.906752 1548.60183 C 629.321001 1542.342787 622.751355 1536.940428 617.162777 1532.359788 C 611.591717 1527.779147 603.445357 1520.838253 592.706176 1511.537105 C 581.984515 1502.218474 575.117046 1496.396515 572.121287 1494.036261 C 569.125529 1491.676007 562.538364 1486.116299 552.394832 1477.374618 C 542.23378 1468.632938 536.592644 1463.70263 535.436387 1462.583695 C 534.297648 1461.482243 529.217122 1456.551936 520.212328 1447.810255 C 511.207534 1439.051091 504.900674 1432.809532 501.326787 1429.050609 C 497.7529 1425.30917 489.886844 1416.98709 477.72862 1404.066887 C 465.587916 1391.164166 458.28247 1383.244204 455.86484 1380.324483 C 453.429692 1377.404761 449.855804 1373.103855 445.12566 1367.421762 C 440.413034 1361.722187 436.698994 1357.141546 433.983541 1353.662358 C 431.268087 1350.200652 428.552634 1346.581596 425.819661 1342.840157 C 423.104208 1339.098718 420.248602 1335.199929 417.252844 1331.178756 C 414.239566 1327.157583 411.524113 1323.538527 409.088964 1320.339072 C 406.671335 1317.1571 404.586567 1314.307312 402.8697 1311.807192 C 401.152832 1309.307071 398.805279 1306.055166 395.792002 1302.01651 C 392.796243 1297.995337 390.220942 1294.376281 388.066098 1291.19431 C 385.928774 1287.994855 383.073168 1283.833815 379.499281 1278.693707 C 375.925394 1273.553599 373.20994 1269.532426 371.335401 1266.612704 C 369.478381 1263.692983 366.482623 1259.112343 362.330607 1252.870783 C 358.178591 1246.629223 355.463138 1242.310833 354.184247 1239.950579 C 352.887837 1237.590325 349.313949 1231.628499 343.462585 1222.047618 C 337.593702 1212.466736 333.73951 1206.225176 331.864971 1203.305455 C 330.007951 1200.385734 325.365402 1192.413321 317.937322 1179.353251 C 310.491724 1166.310664 304.920665 1156.450048 301.206625 1149.788888 C 297.475067 1143.110244 294.199003 1136.868684 291.325878 1131.029242 C 288.470272 1125.207282 284.475928 1116.465602 279.325326 1104.8042 C 274.174724 1093.125315 271.599423 1087.163489 271.599423 1086.883756 C 271.599423 1086.604022 269.024122 1080.222595 263.87352 1067.721992 C 258.722918 1055.238873 254.728573 1045.378257 251.855448 1038.157629 C 248.999842 1030.937001 245.005498 1019.957451 239.854896 1005.253944 C 234.704294 990.532955 229.553692 974.85038 224.403089 958.188737 C 219.252487 941.527094 213.541276 921.246396 207.251935 897.364125 C 200.945075 873.481854 196.512754 855.71876 193.937453 844.057358 C 191.379671 832.395956 187.788265 815.45458 183.215792 793.233228 C 178.643319 771.02936 175.927865 756.448237 175.069431 749.507343 C 174.210998 742.566449 172.353978 721.324166 169.498372 685.780493 C 166.625247 650.236821 164.768227 623.434829 163.909794 605.392 C 163.05136 587.349172 162.052774 568.187409 160.914035 547.90671 C 159.775297 527.643495 158.198582 494.460076 156.201409 448.356454 C 154.186718 402.270315 153.188132 369.646364 153.188132 350.484601 L 153.188132 321.741955 L 155.973662 320.290837 C 157.830682 319.311768 162.911207 318.1229 171.215239 316.741714 C 179.501752 315.360529 190.941695 313.542259 205.535068 311.321872 C 220.110921 309.101486 242.290044 305.499913 272.01988 300.499672 C 301.767235 295.499431 323.087925 291.897859 335.946911 289.659988 C 348.823416 287.439602 365.834418 283.977896 386.997436 279.257389 C 408.160454 274.536881 426.467866 270.096108 441.919673 265.917585 C 457.35396 261.756545 470.668441 257.875239 481.81056 254.256183 C 492.970198 250.654611 501.694687 247.874756 507.984028 245.934103 C 514.273369 243.99345 520.282404 242.052797 526.011135 240.094661 C 531.722347 238.154008 543.16229 233.992968 560.330963 227.611541 C 577.482118 221.212631 593.56461 214.761271 608.595959 208.239977 C 623.609789 201.718684 631.615997 198.379362 632.614583 198.239495 C 633.613169 198.099628 640.83102 194.970107 654.285654 188.868414 C 667.722769 182.766721 679.880993 177.207012 690.742807 172.206771 C 701.604621 167.20653 712.343801 162.206289 722.92531 157.206047 C 733.506819 152.22329 746.663629 145.684513 762.39574 137.642167 L 785.993907 125.561164 Z M 791.564966 125.561164 " stroke="#000000" stroke-width="2" stroke-opacity="1" stroke-miterlimit="4"/><path stroke-linecap="butt" transform="matrix(0.222972, 0, 0, 0.223427, 6.468412, -10.819344)" fill-opacity="1" fill="#ff9e51" fill-rule="evenodd" stroke-linejoin="miter" d="M 789.672909 170.003867 L 794.84103 170.003867 L 817.125267 181.368052 C 831.981426 188.955831 841.792096 193.921105 846.574798 196.263875 C 851.339981 198.624129 867.580145 206.264358 895.312808 219.202045 C 923.027953 232.139732 937.341021 238.678509 938.269531 238.818375 C 939.19804 238.940759 946.573562 242.01783 960.361059 248.032107 C 974.148555 254.028899 984.765102 258.487156 992.193181 261.354427 C 999.62126 264.221699 1010.360441 268.155455 1024.410723 273.120729 C 1038.478523 278.086004 1047.360684 281.215525 1051.074724 282.526777 C 1054.788763 283.838029 1059.431313 285.394048 1065.002372 287.229801 C 1070.573432 289.065554 1077.738725 291.285941 1086.480733 293.890962 C 1095.240261 296.513466 1106.382379 299.642987 1119.90709 303.314493 C 1133.4318 306.968516 1146.571091 310.237904 1159.307444 313.105175 C 1172.026277 315.98993 1180.260233 317.808199 1183.974273 318.594951 C 1187.688312 319.381702 1199.478636 321.602089 1219.380282 325.256111 C 1239.281928 328.927617 1251.737976 331.148004 1256.783464 331.934755 C 1261.811433 332.721506 1274.162366 334.679642 1293.783708 337.809164 C 1313.405049 340.956169 1323.355872 342.512188 1323.618658 342.512188 C 1323.881444 342.512188 1333.446848 344.347941 1352.279831 348.001963 C 1371.112815 351.673469 1380.590624 353.561672 1380.713257 353.684056 L 1380.923486 353.893856 L 1379.73219 412.305764 C 1378.926314 451.258692 1376.94666 501.575804 1373.758192 563.257101 C 1370.569724 624.938398 1368.046981 668.069849 1366.189961 692.651454 C 1364.332941 717.215576 1362.213135 738.265542 1359.830544 755.766386 C 1357.447952 773.284714 1354.662423 789.893906 1351.473955 805.576481 C 1348.285487 821.259056 1344.851752 837.064014 1341.137713 853.008839 C 1337.423673 868.953664 1334.095053 882.940352 1331.186889 894.968905 C 1328.261207 906.979973 1324.809954 919.91766 1320.833128 933.781966 C 1316.856303 947.628787 1314.473711 956.003317 1313.667835 958.870588 C 1312.879477 961.755343 1311.688182 965.409365 1310.093948 969.850139 C 1308.499714 974.290912 1306.642694 979.780688 1304.522888 986.319465 C 1302.403083 992.858242 1299.091981 1002.26429 1294.572065 1014.555092 C 1290.069668 1026.828411 1286.355628 1036.636577 1283.429946 1043.962105 C 1280.521783 1051.27015 1276.930377 1060.029314 1272.690766 1070.222113 C 1268.451155 1080.414912 1263.020248 1092.705715 1256.380526 1107.077037 C 1249.758323 1121.465843 1245.763979 1129.82289 1244.45005 1132.183143 C 1243.118601 1134.525914 1238.283342 1143.092761 1229.926753 1157.8662 C 1221.570164 1172.622157 1216.524676 1181.381321 1214.807809 1184.126208 C 1213.073423 1186.871096 1208.973964 1193.794507 1202.474395 1204.913924 C 1195.974825 1216.015858 1191.717695 1223.079136 1189.738042 1226.086274 C 1187.74087 1229.093412 1184.692554 1233.796436 1180.593095 1240.195346 C 1176.476117 1246.594256 1173.165016 1251.559531 1170.642272 1255.09117 C 1168.119528 1258.622808 1165.193846 1262.801332 1161.882745 1267.644223 C 1158.571643 1272.46963 1155.383175 1276.927887 1152.33486 1280.966543 C 1149.286544 1285.022683 1146.903953 1288.414455 1145.169567 1291.159343 C 1143.452699 1293.90423 1140.929955 1297.435869 1137.618854 1301.754259 C 1134.307753 1306.07265 1131.119285 1310.373556 1128.070969 1314.691946 C 1125.022654 1319.010336 1121.694033 1323.45111 1118.120146 1328.014267 C 1114.546259 1332.594908 1111.480424 1336.511181 1108.9752 1339.780569 C 1106.452456 1343.049958 1101.074106 1349.256551 1092.857669 1358.400348 C 1084.623714 1367.561629 1074.953195 1378.016679 1063.811077 1389.782981 C 1052.668958 1401.531799 1042.858287 1411.602215 1034.361546 1419.959262 C 1025.882323 1428.333791 1020.241187 1433.63125 1017.455658 1435.851636 C 1014.670128 1438.072023 1008.170559 1443.684182 997.95695 1452.705596 C 987.743341 1461.72701 981.506558 1467.216786 979.264119 1469.174922 C 977.00416 1471.133058 971.433101 1475.975949 962.55094 1483.686111 C 953.66878 1491.396274 947.817415 1496.361548 945.031886 1498.581935 C 942.246356 1500.802322 939.075407 1503.407342 935.484001 1506.41448 C 931.910114 1509.421619 926.934702 1513.547692 920.575285 1518.775217 C 914.198349 1524.002741 909.36309 1527.849081 906.051989 1530.331718 C 902.723369 1532.814355 899.55242 1535.052225 896.504104 1537.010362 C 893.455789 1538.968498 887.884729 1542.36027 879.790926 1547.203161 C 871.697123 1552.028569 866.388849 1555.297957 863.866105 1556.993843 C 861.36088 1558.707212 858.505274 1560.455549 855.316807 1562.291301 C 852.128339 1564.127054 848.817237 1566.207574 845.365983 1568.567828 C 841.91473 1570.910598 839.409505 1572.623968 837.815271 1573.655486 C 836.221037 1574.704488 832.769783 1576.54024 827.46151 1579.145261 C 822.153236 1581.767765 815.793819 1584.774903 808.36574 1588.166675 C 800.937661 1591.575931 795.76954 1593.796318 792.843857 1594.827836 L 788.481613 1596.401338 L 783.698911 1595.229953 C 780.510443 1594.443202 777.076708 1593.13195 773.362669 1591.31368 C 769.648629 1589.477927 763.411846 1586.348406 754.652318 1581.890149 C 745.892791 1577.449375 740.864822 1574.704488 739.533374 1573.655486 C 738.201926 1572.623968 734.820748 1570.333647 729.389841 1566.802009 C 723.958934 1563.27037 719.841956 1560.665349 717.056427 1558.95198 C 714.270897 1557.256094 708.83999 1553.986705 700.746187 1549.161298 C 692.652384 1544.318407 687.081324 1540.926635 684.033009 1538.968498 C 680.984693 1537.010362 677.796225 1534.789975 674.485124 1532.307338 C 671.174023 1529.807217 667.389907 1526.870013 663.150295 1523.478241 C 658.893165 1520.086469 653.269549 1515.435895 646.226889 1509.561485 C 639.201748 1503.669593 633.105117 1498.581935 627.936995 1494.263545 C 622.751355 1489.962638 615.200643 1483.423861 605.24982 1474.664697 C 595.298997 1465.905534 588.93958 1460.415758 586.15405 1458.195371 C 583.36852 1455.974985 577.271889 1450.74746 567.846638 1442.512797 C 558.438905 1434.278134 553.200708 1429.645043 552.132046 1428.596042 C 551.080903 1427.54704 546.368277 1422.913949 538.011688 1414.679287 C 529.655099 1406.444624 523.821253 1400.552731 520.510152 1397.038576 C 517.181532 1393.506937 509.893605 1385.656908 498.611334 1373.505972 C 487.346581 1361.355036 480.584226 1353.907125 478.324268 1351.162237 C 476.081829 1348.417349 472.753209 1344.36121 468.373445 1338.993818 C 464.011201 1333.643909 460.559947 1329.325519 458.037203 1326.056131 C 455.514459 1322.804226 452.991715 1319.39497 450.468971 1315.863332 C 447.963747 1312.349176 445.30085 1308.67767 442.51532 1304.883781 C 439.729791 1301.107375 437.207047 1297.69812 434.964608 1294.690982 C 432.70465 1291.683844 430.777554 1289.008889 429.18332 1286.666119 C 427.606605 1284.305865 425.416723 1281.228794 422.631193 1277.452388 C 419.845664 1273.658499 417.445553 1270.249243 415.4659 1267.259589 C 413.468728 1264.252451 410.823351 1260.318694 407.512249 1255.493287 C 404.183629 1250.650396 401.678404 1246.856507 399.944018 1244.111619 C 398.22715 1241.366731 395.441621 1237.065825 391.587428 1231.173932 C 387.750755 1225.299523 385.228012 1221.243383 384.036716 1219.022996 C 382.827901 1216.802609 379.5168 1211.190451 374.085893 1202.169037 C 368.637467 1193.147622 365.06358 1187.273213 363.346712 1184.528326 C 361.612326 1181.783438 357.302638 1174.265593 350.41765 1161.97479 C 343.515142 1149.683988 338.347021 1140.417806 334.895767 1134.14128 C 331.444514 1127.864753 328.396198 1121.990344 325.733302 1116.500569 C 323.087925 1111.010794 319.373885 1102.776131 314.608702 1091.79658 C 309.826 1080.81703 307.443409 1075.187387 307.443409 1074.94262 C 307.443409 1074.68037 305.043298 1068.666094 300.278115 1056.899792 C 295.495413 1045.13349 291.781374 1035.849826 289.135997 1029.066282 C 286.490619 1022.265254 282.77658 1011.932588 277.993878 998.085766 C 273.211176 984.238945 268.445993 969.465505 263.663291 953.78293 C 258.898108 938.100356 253.589835 919.008526 247.755989 896.542407 C 241.922144 874.058805 237.805166 857.327229 235.422575 846.347678 C 233.039983 835.368128 229.711363 819.423303 225.471752 798.513203 C 221.232141 777.603104 218.709397 763.878666 217.921039 757.339889 C 217.115163 750.818595 215.398295 730.81763 212.735399 697.354478 C 210.090022 663.891326 208.373154 638.680319 207.567278 621.686493 C 206.77892 604.692666 205.85041 586.649838 204.781748 567.575491 C 203.730605 548.501145 202.259004 517.258379 200.401984 473.864677 C 198.544965 430.470976 197.616455 399.770195 197.616455 381.727366 L 197.616455 354.680607 L 200.209275 353.299422 C 201.926142 352.390287 206.638768 351.271352 214.329633 349.977583 C 222.020498 348.666331 232.637045 346.970445 246.161755 344.872442 C 259.686466 342.774438 280.253836 339.382666 307.828828 334.679642 C 335.421339 329.976618 355.182833 326.567363 367.113309 324.486843 C 379.061304 322.38884 394.845973 319.119451 414.467314 314.678678 C 434.088655 310.237904 451.064619 306.059381 465.395206 302.143108 C 479.725793 298.209352 492.059207 294.555329 502.395449 291.163558 C 512.749211 287.754302 520.843014 285.149281 526.676859 283.313529 C 532.510705 281.477776 538.081764 279.659506 543.390037 277.823753 C 548.680792 275.988 559.297339 272.071728 575.204641 266.057451 C 591.129462 260.060659 606.055696 253.976449 619.965826 247.83979 C 633.893474 241.685647 641.321553 238.556125 642.250063 238.416258 C 643.178573 238.293875 649.888371 235.35667 662.344419 229.604644 C 674.817986 223.852619 686.082738 218.625094 696.173714 213.92207 C 706.24717 209.219046 716.197993 204.498538 726.008664 199.795514 C 735.819334 195.09249 748.030115 188.955831 762.605969 181.368052 L 784.487268 170.003867 Z M 789.672909 170.003867 " stroke="#000000" stroke-width="2" stroke-opacity="1" stroke-miterlimit="4"/><path fill="#ffffff" d="M 75.863281 204.261719 L 289.265625 204.261719 L 289.265625 207.425781 L 75.863281 207.425781 Z M 75.863281 204.261719 " fill-opacity="1" fill-rule="nonzero"/><path fill="#ffffff" d="M 290.398438 208.445312 L 74.957031 208.445312 L 74.957031 203.355469 L 290.398438 203.355469 Z M 76.882812 206.410156 L 288.355469 206.410156 L 288.355469 205.277344 L 76.882812 205.277344 Z M 76.882812 206.410156 " fill-opacity="1" fill-rule="nonzero"/><g clip-path="url(#4e42d65d38)"><path fill="#ffffff" d="M 183.640625 134.269531 C 182.507812 134.269531 181.601562 133.367188 181.601562 132.234375 L 181.601562 124.433594 C 181.601562 121.042969 182.847656 117.875 185.117188 115.5 C 186.820312 113.691406 188.972656 111.316406 190.5625 109.734375 C 193.171875 107.023438 194.304688 104.082031 194.078125 101.140625 C 193.625 95.714844 188.972656 91.417969 183.640625 91.417969 C 183.527344 91.417969 183.527344 91.417969 183.414062 91.417969 C 180.125 91.417969 177.0625 93 175.132812 95.714844 C 174.90625 96.054688 174.679688 96.394531 174.453125 96.84375 C 173.089844 98.992188 170.933594 102.273438 166.511719 103.0625 C 165.375 103.289062 164.355469 102.5 164.128906 101.480469 C 163.902344 100.464844 164.695312 99.332031 165.714844 99.105469 C 168.441406 98.65625 169.6875 96.621094 170.933594 94.695312 C 171.390625 94.132812 171.617188 93.679688 171.84375 93.339844 C 174.566406 89.609375 178.761719 87.460938 183.414062 87.347656 C 191.015625 87.347656 197.597656 93.226562 198.164062 100.804688 C 198.503906 104.875 196.914062 108.832031 193.625 112.449219 C 192.039062 114.144531 189.882812 116.40625 188.179688 118.214844 C 186.589844 119.910156 185.683594 122.171875 185.683594 124.433594 L 185.683594 132.234375 C 185.683594 133.367188 184.777344 134.269531 183.640625 134.269531 Z M 183.640625 134.269531 " fill-opacity="1" fill-rule="nonzero"/></g><path fill="#ffffff" d="M 162.765625 141.621094 C 158.457031 146.371094 151.988281 158.128906 143.367188 162.992188 C 140.417969 164.6875 89.476562 185.605469 84.484375 188.65625 C 71.4375 196.796875 70.757812 204.375 70.757812 204.375 C 70.757812 204.375 68.148438 214.097656 77 209.347656 C 86.753906 204.035156 183.640625 152.925781 183.640625 152.925781 L 183.640625 132.347656 C 175.472656 132.347656 167.984375 135.96875 162.765625 141.621094 Z M 162.765625 141.621094 " fill-opacity="1" fill-rule="nonzero"/><path fill="#ffffff" d="M 204.742188 141.621094 C 209.054688 146.371094 215.523438 158.128906 224.144531 162.992188 C 227.09375 164.6875 278.03125 185.605469 283.023438 188.65625 C 296.070312 196.796875 296.753906 204.375 296.753906 204.375 C 296.753906 204.375 299.363281 214.097656 290.511719 209.347656 C 280.757812 204.035156 183.867188 152.925781 183.867188 152.925781 L 183.867188 132.347656 C 192.039062 132.347656 199.523438 135.96875 204.742188 141.621094 Z M 204.742188 141.621094 " fill-opacity="1" fill-rule="nonzero"/><path fill="#ffffff" d="M 176.671875 310.375 C 172.078125 297.851562 158.25 282.839844 154.398438 278.816406 C 158.515625 279.789062 170.6875 283.058594 176.28125 288.769531 C 176.363281 288.851562 176.472656 288.898438 176.585938 288.898438 C 176.613281 288.898438 176.640625 288.894531 176.667969 288.886719 C 176.808594 288.863281 176.925781 288.765625 176.980469 288.632812 C 185.589844 268.023438 202.050781 255.253906 204.414062 253.496094 L 221.164062 269.585938 C 219.164062 269.941406 213.976562 271.21875 207.101562 275.53125 C 199.222656 280.476562 187.589844 290.523438 176.671875 310.375 " fill-opacity="1" fill-rule="nonzero"/><g clip-path="url(#64af391d7b)"><path fill="#737373" d="M 204.453125 252.9375 C 204.453125 252.9375 185.988281 265.960938 176.585938 288.46875 C 169.660156 281.398438 153.089844 278.082031 153.089844 278.082031 C 153.089844 278.082031 171.667969 296.667969 176.585938 311.425781 C 197.894531 272.070312 222.089844 269.882812 222.089844 269.882812 Z M 204.378906 254.054688 L 220.277344 269.328125 C 217.835938 269.863281 213.011719 271.320312 206.875 275.167969 C 199.058594 280.074219 187.578125 289.964844 176.746094 309.359375 C 174.433594 303.5 170.039062 296.554688 163.660156 288.679688 C 160.523438 284.808594 157.578125 281.566406 155.71875 279.582031 C 160.683594 280.855469 170.996094 283.984375 175.972656 289.066406 C 176.136719 289.234375 176.359375 289.324219 176.585938 289.324219 C 176.640625 289.324219 176.695312 289.320312 176.746094 289.308594 C 177.03125 289.253906 177.265625 289.0625 177.375 288.800781 C 182.175781 277.308594 189.410156 268.367188 194.632812 262.886719 C 199.148438 258.148438 202.980469 255.113281 204.378906 254.054688 " fill-opacity="1" fill-rule="nonzero"/></g><g clip-path="url(#febe2ad8f0)"><path fill="#737373" d="M 176.679688 298.574219 C 197.988281 259.214844 212.609375 261.765625 212.609375 261.765625 L 204.453125 252.9375 C 204.453125 252.9375 185.988281 265.960938 176.585938 288.46875 C 169.660156 281.398438 153.089844 278.082031 153.089844 278.082031 C 153.089844 278.082031 171.761719 283.8125 176.679688 298.574219 " fill-opacity="1" fill-rule="nonzero"/></g><g fill="#737373" fill-opacity="1"><g transform="translate(108.906246, 80.924289)"><g/></g></g><g fill="#737373" fill-opacity="1"><g transform="translate(114.057803, 80.924289)"><g/></g></g><g fill="#737373" fill-opacity="1"><g transform="translate(119.207026, 80.924289)"><g><path d="M 18.109375 -12.90625 C 18.109375 -11.664062 17.8125 -10.59375 17.21875 -9.6875 C 16.625 -8.78125 15.789062 -8.082031 14.71875 -7.59375 C 13.644531 -7.101562 12.414062 -6.859375 11.03125 -6.859375 L 7.5 -6.859375 C 7.289062 -6.859375 7.1875 -6.757812 7.1875 -6.5625 L 7.1875 -0.75 C 7.1875 -0.46875 7.117188 -0.269531 6.984375 -0.15625 C 6.847656 -0.0507812 6.632812 0 6.34375 0 L 2.015625 0 C 1.753906 0 1.578125 -0.0507812 1.484375 -0.15625 C 1.390625 -0.257812 1.34375 -0.421875 1.34375 -0.640625 L 1.34375 -18.53125 C 1.34375 -18.925781 1.503906 -19.125 1.828125 -19.125 L 10.359375 -19.125 C 11.796875 -19.125 13.101562 -18.882812 14.28125 -18.40625 C 15.457031 -17.9375 16.390625 -17.238281 17.078125 -16.3125 C 17.765625 -15.382812 18.109375 -14.25 18.109375 -12.90625 Z M 12.140625 -12.984375 C 12.140625 -13.585938 11.929688 -14.070312 11.515625 -14.4375 C 11.109375 -14.8125 10.601562 -15 10 -15 L 7.78125 -15 C 7.5625 -15 7.40625 -14.953125 7.3125 -14.859375 C 7.226562 -14.773438 7.1875 -14.640625 7.1875 -14.453125 L 7.1875 -11.546875 C 7.1875 -11.335938 7.21875 -11.1875 7.28125 -11.09375 C 7.351562 -11.007812 7.46875 -10.96875 7.625 -10.96875 L 10.15625 -10.96875 C 10.75 -10.96875 11.226562 -11.160156 11.59375 -11.546875 C 11.957031 -11.941406 12.140625 -12.421875 12.140625 -12.984375 Z M 12.140625 -12.984375 "/></g></g></g><g fill="#737373" fill-opacity="1"><g transform="translate(138.035966, 80.924289)"><g><path d="M 1.34375 -18.53125 C 1.34375 -18.925781 1.503906 -19.125 1.828125 -19.125 L 15.75 -19.125 C 16.050781 -19.125 16.203125 -18.941406 16.203125 -18.578125 L 16.1875 -15.59375 C 16.1875 -15.125 15.960938 -14.890625 15.515625 -14.890625 L 7.78125 -14.890625 C 7.382812 -14.890625 7.1875 -14.726562 7.1875 -14.40625 L 7.1875 -12.21875 C 7.1875 -12.039062 7.226562 -11.90625 7.3125 -11.8125 C 7.40625 -11.71875 7.519531 -11.671875 7.65625 -11.671875 L 12.296875 -11.671875 C 12.648438 -11.671875 12.828125 -11.5 12.828125 -11.15625 L 12.828125 -7.96875 C 12.828125 -7.675781 12.675781 -7.53125 12.375 -7.53125 L 7.59375 -7.53125 C 7.476562 -7.53125 7.378906 -7.492188 7.296875 -7.421875 C 7.222656 -7.347656 7.1875 -7.257812 7.1875 -7.15625 L 7.1875 -4.59375 C 7.1875 -4.445312 7.207031 -4.347656 7.25 -4.296875 C 7.289062 -4.242188 7.375 -4.21875 7.5 -4.21875 L 15.875 -4.21875 C 16.25 -4.21875 16.4375 -4.054688 16.4375 -3.734375 L 16.4375 -0.5625 C 16.4375 -0.394531 16.382812 -0.257812 16.28125 -0.15625 C 16.175781 -0.0507812 16.019531 0 15.8125 0 L 2.03125 0 C 1.78125 0 1.601562 -0.0507812 1.5 -0.15625 C 1.394531 -0.257812 1.34375 -0.421875 1.34375 -0.640625 Z M 1.34375 -18.53125 "/></g></g></g><g fill="#737373" fill-opacity="1"><g transform="translate(155.319439, 80.924289)"><g><path d="M 18.0625 -0.828125 C 18.09375 -0.753906 18.109375 -0.660156 18.109375 -0.546875 C 18.109375 -0.390625 18.0625 -0.257812 17.96875 -0.15625 C 17.875 -0.0507812 17.75 0 17.59375 0 L 12.59375 0 C 12.238281 0 12.007812 -0.179688 11.90625 -0.546875 L 9.484375 -7.1875 C 9.429688 -7.320312 9.34375 -7.421875 9.21875 -7.484375 C 9.101562 -7.554688 8.925781 -7.59375 8.6875 -7.59375 L 7.5 -7.59375 C 7.394531 -7.59375 7.316406 -7.554688 7.265625 -7.484375 C 7.210938 -7.421875 7.1875 -7.363281 7.1875 -7.3125 L 7.1875 -0.75 C 7.1875 -0.46875 7.117188 -0.269531 6.984375 -0.15625 C 6.847656 -0.0507812 6.632812 0 6.34375 0 L 2.015625 0 C 1.753906 0 1.578125 -0.0507812 1.484375 -0.15625 C 1.390625 -0.257812 1.34375 -0.421875 1.34375 -0.640625 L 1.34375 -18.53125 C 1.34375 -18.925781 1.503906 -19.125 1.828125 -19.125 L 10.4375 -19.125 C 12.925781 -19.125 14.859375 -18.644531 16.234375 -17.6875 C 17.609375 -16.738281 18.296875 -15.394531 18.296875 -13.65625 C 18.296875 -12.46875 17.976562 -11.410156 17.34375 -10.484375 C 16.71875 -9.554688 15.910156 -8.90625 14.921875 -8.53125 C 14.816406 -8.476562 14.765625 -8.390625 14.765625 -8.265625 C 14.765625 -8.210938 14.78125 -8.132812 14.8125 -8.03125 Z M 10.203125 -11.4375 C 10.859375 -11.4375 11.359375 -11.601562 11.703125 -11.9375 C 12.054688 -12.269531 12.234375 -12.722656 12.234375 -13.296875 C 12.234375 -13.929688 12.019531 -14.425781 11.59375 -14.78125 C 11.175781 -15.132812 10.660156 -15.3125 10.046875 -15.3125 L 7.78125 -15.3125 C 7.5625 -15.3125 7.40625 -15.269531 7.3125 -15.1875 C 7.226562 -15.113281 7.1875 -14.984375 7.1875 -14.796875 L 7.1875 -11.984375 C 7.1875 -11.796875 7.21875 -11.65625 7.28125 -11.5625 C 7.34375 -11.476562 7.457031 -11.4375 7.625 -11.4375 Z M 10.203125 -11.4375 "/></g></g></g><g fill="#737373" fill-opacity="1"><g transform="translate(174.354442, 80.924289)"><g><path d="M 1.34375 -18.53125 C 1.34375 -18.71875 1.382812 -18.863281 1.46875 -18.96875 C 1.550781 -19.070312 1.671875 -19.125 1.828125 -19.125 L 15.5625 -19.125 C 15.875 -19.125 16.03125 -18.941406 16.03125 -18.578125 L 16 -15.59375 C 16 -15.125 15.785156 -14.890625 15.359375 -14.890625 L 7.78125 -14.890625 C 7.382812 -14.890625 7.1875 -14.726562 7.1875 -14.40625 L 7.1875 -11.984375 C 7.1875 -11.640625 7.34375 -11.46875 7.65625 -11.46875 L 12.375 -11.46875 C 12.71875 -11.46875 12.890625 -11.296875 12.890625 -10.953125 L 12.890625 -7.8125 C 12.890625 -7.519531 12.734375 -7.375 12.421875 -7.375 L 7.59375 -7.375 C 7.476562 -7.375 7.378906 -7.335938 7.296875 -7.265625 C 7.222656 -7.191406 7.1875 -7.097656 7.1875 -6.984375 L 7.1875 -0.75 C 7.1875 -0.46875 7.117188 -0.269531 6.984375 -0.15625 C 6.847656 -0.0507812 6.632812 0 6.34375 0 L 2.03125 0 C 1.78125 0 1.601562 -0.0507812 1.5 -0.15625 C 1.394531 -0.257812 1.34375 -0.421875 1.34375 -0.640625 Z M 1.34375 -18.53125 "/></g></g></g><g fill="#737373" fill-opacity="1"><g transform="translate(191.097009, 80.924289)"><g><path d="M 1.34375 -18.53125 C 1.34375 -18.925781 1.503906 -19.125 1.828125 -19.125 L 15.75 -19.125 C 16.050781 -19.125 16.203125 -18.941406 16.203125 -18.578125 L 16.1875 -15.59375 C 16.1875 -15.125 15.960938 -14.890625 15.515625 -14.890625 L 7.78125 -14.890625 C 7.382812 -14.890625 7.1875 -14.726562 7.1875 -14.40625 L 7.1875 -12.21875 C 7.1875 -12.039062 7.226562 -11.90625 7.3125 -11.8125 C 7.40625 -11.71875 7.519531 -11.671875 7.65625 -11.671875 L 12.296875 -11.671875 C 12.648438 -11.671875 12.828125 -11.5 12.828125 -11.15625 L 12.828125 -7.96875 C 12.828125 -7.675781 12.675781 -7.53125 12.375 -7.53125 L 7.59375 -7.53125 C 7.476562 -7.53125 7.378906 -7.492188 7.296875 -7.421875 C 7.222656 -7.347656 7.1875 -7.257812 7.1875 -7.15625 L 7.1875 -4.59375 C 7.1875 -4.445312 7.207031 -4.347656 7.25 -4.296875 C 7.289062 -4.242188 7.375 -4.21875 7.5 -4.21875 L 15.875 -4.21875 C 16.25 -4.21875 16.4375 -4.054688 16.4375 -3.734375 L 16.4375 -0.5625 C 16.4375 -0.394531 16.382812 -0.257812 16.28125 -0.15625 C 16.175781 -0.0507812 16.019531 0 15.8125 0 L 2.03125 0 C 1.78125 0 1.601562 -0.0507812 1.5 -0.15625 C 1.394531 -0.257812 1.34375 -0.421875 1.34375 -0.640625 Z M 1.34375 -18.53125 "/></g></g></g><g fill="#737373" fill-opacity="1"><g transform="translate(208.380482, 80.924289)"><g><path d="M 9.921875 -19.375 C 11.347656 -19.375 12.632812 -19.117188 13.78125 -18.609375 C 14.9375 -18.109375 15.882812 -17.410156 16.625 -16.515625 C 17.363281 -15.617188 17.84375 -14.597656 18.0625 -13.453125 C 18.113281 -13.242188 18.140625 -13.078125 18.140625 -12.953125 C 18.140625 -12.804688 18.109375 -12.707031 18.046875 -12.65625 C 17.984375 -12.601562 17.878906 -12.566406 17.734375 -12.546875 L 13.21875 -12.265625 C 13.039062 -12.265625 12.925781 -12.289062 12.875 -12.34375 C 12.832031 -12.40625 12.785156 -12.539062 12.734375 -12.75 C 12.578125 -13.570312 12.289062 -14.21875 11.875 -14.6875 C 11.46875 -15.164062 10.867188 -15.40625 10.078125 -15.40625 C 9.054688 -15.40625 8.269531 -14.957031 7.71875 -14.0625 C 7.175781 -13.175781 6.90625 -11.726562 6.90625 -9.71875 C 6.90625 -7.632812 7.15625 -6.15625 7.65625 -5.28125 C 8.164062 -4.40625 8.960938 -3.96875 10.046875 -3.96875 C 10.960938 -3.96875 11.738281 -4.195312 12.375 -4.65625 C 13.019531 -5.125 13.554688 -5.898438 13.984375 -6.984375 C 14.035156 -7.140625 14.179688 -7.21875 14.421875 -7.21875 C 14.546875 -7.21875 14.644531 -7.207031 14.71875 -7.1875 L 17.9375 -6.546875 C 18.1875 -6.460938 18.3125 -6.265625 18.3125 -5.953125 C 18.3125 -5.472656 18.015625 -4.726562 17.421875 -3.71875 C 16.835938 -2.71875 15.910156 -1.804688 14.640625 -0.984375 C 13.378906 -0.160156 11.789062 0.25 9.875 0.25 C 8.050781 0.25 6.453125 -0.179688 5.078125 -1.046875 C 3.703125 -1.910156 2.640625 -3.101562 1.890625 -4.625 C 1.140625 -6.144531 0.765625 -7.875 0.765625 -9.8125 C 0.765625 -11.738281 1.140625 -13.421875 1.890625 -14.859375 C 2.640625 -16.304688 3.703125 -17.421875 5.078125 -18.203125 C 6.460938 -18.984375 8.078125 -19.375 9.921875 -19.375 Z M 9.921875 -19.375 "/></g></g></g><g fill="#737373" fill-opacity="1"><g transform="translate(227.363975, 80.924289)"><g><path d="M 0.71875 -18.53125 C 0.71875 -18.695312 0.773438 -18.835938 0.890625 -18.953125 C 1.003906 -19.066406 1.160156 -19.125 1.359375 -19.125 L 16.78125 -19.125 C 16.976562 -19.125 17.132812 -19.066406 17.25 -18.953125 C 17.363281 -18.835938 17.421875 -18.695312 17.421875 -18.53125 L 17.421875 -15.453125 C 17.421875 -15.128906 17.226562 -14.96875 16.84375 -14.96875 L 12.296875 -14.96875 C 12.085938 -14.96875 11.984375 -14.882812 11.984375 -14.71875 L 11.984375 -0.5625 C 11.984375 -0.375 11.9375 -0.234375 11.84375 -0.140625 C 11.757812 -0.046875 11.640625 0 11.484375 0 L 6.59375 0 C 6.28125 0 6.125 -0.171875 6.125 -0.515625 L 6.125 -14.609375 C 6.125 -14.847656 6.03125 -14.96875 5.84375 -14.96875 L 1.3125 -14.96875 C 0.914062 -14.96875 0.71875 -15.128906 0.71875 -15.453125 Z M 0.71875 -18.53125 "/></g></g></g><g fill="#737373" fill-opacity="1"><g transform="translate(245.488268, 80.924289)"><g/></g></g><g fill="#737373" fill-opacity="1"><g transform="translate(250.639825, 80.924289)"><g/></g></g><g fill="#737373" fill-opacity="1"><g transform="translate(255.791383, 80.924289)"><g/></g></g><g fill="#737373" fill-opacity="1"><g transform="translate(260.942941, 80.924289)"><g/></g></g><g fill="#737373" fill-opacity="1"><g transform="translate(158.741684, 195.399978)"><g><path d="M 1.53125 -21.203125 C 1.53125 -21.421875 1.578125 -21.585938 1.671875 -21.703125 C 1.773438 -21.816406 1.914062 -21.875 2.09375 -21.875 L 17.8125 -21.875 C 18.164062 -21.875 18.34375 -21.671875 18.34375 -21.265625 L 18.3125 -17.84375 C 18.3125 -17.3125 18.066406 -17.046875 17.578125 -17.046875 L 8.90625 -17.046875 C 8.445312 -17.046875 8.21875 -16.859375 8.21875 -16.484375 L 8.21875 -13.703125 C 8.21875 -13.316406 8.394531 -13.125 8.75 -13.125 L 14.15625 -13.125 C 14.539062 -13.125 14.734375 -12.925781 14.734375 -12.53125 L 14.734375 -8.9375 C 14.734375 -8.601562 14.5625 -8.4375 14.21875 -8.4375 L 8.703125 -8.4375 C 8.554688 -8.4375 8.4375 -8.394531 8.34375 -8.3125 C 8.257812 -8.238281 8.21875 -8.128906 8.21875 -7.984375 L 8.21875 -0.859375 C 8.21875 -0.546875 8.140625 -0.320312 7.984375 -0.1875 C 7.828125 -0.0625 7.582031 0 7.25 0 L 2.328125 0 C 2.035156 0 1.828125 -0.0546875 1.703125 -0.171875 C 1.585938 -0.296875 1.53125 -0.484375 1.53125 -0.734375 Z M 1.53125 -21.203125 "/></g></g></g><g fill="#737373" fill-opacity="1"><g transform="translate(177.89891, 195.399978)"><g><path d="M 7.703125 -21.875 C 8.046875 -21.875 8.21875 -21.671875 8.21875 -21.265625 L 8.21875 -0.859375 C 8.21875 -0.546875 8.140625 -0.320312 7.984375 -0.1875 C 7.828125 -0.0625 7.582031 0 7.25 0 L 2.328125 0 C 2.035156 0 1.828125 -0.0546875 1.703125 -0.171875 C 1.585938 -0.296875 1.53125 -0.484375 1.53125 -0.734375 L 1.53125 -21.203125 C 1.53125 -21.421875 1.578125 -21.585938 1.671875 -21.703125 C 1.773438 -21.816406 1.914062 -21.875 2.09375 -21.875 Z M 7.703125 -21.875 "/></g></g></g><g fill="#737373" fill-opacity="1"><g transform="translate(187.654356, 195.399978)"><g><path d="M 0.828125 -21.203125 C 0.828125 -21.398438 0.890625 -21.5625 1.015625 -21.6875 C 1.140625 -21.8125 1.320312 -21.875 1.5625 -21.875 L 19.1875 -21.875 C 19.425781 -21.875 19.609375 -21.8125 19.734375 -21.6875 C 19.867188 -21.5625 19.9375 -21.398438 19.9375 -21.203125 L 19.9375 -17.6875 C 19.9375 -17.3125 19.71875 -17.125 19.28125 -17.125 L 14.0625 -17.125 C 13.820312 -17.125 13.703125 -17.023438 13.703125 -16.828125 L 13.703125 -0.65625 C 13.703125 -0.4375 13.65625 -0.269531 13.5625 -0.15625 C 13.46875 -0.0507812 13.332031 0 13.15625 0 L 7.546875 0 C 7.191406 0 7.015625 -0.195312 7.015625 -0.59375 L 7.015625 -16.71875 C 7.015625 -16.988281 6.90625 -17.125 6.6875 -17.125 L 1.5 -17.125 C 1.050781 -17.125 0.828125 -17.3125 0.828125 -17.6875 Z M 0.828125 -21.203125 "/></g></g></g><g fill="#737373" fill-opacity="1"><g transform="translate(85.341334, 242.000389)"><g><path d="M 11.125 0.296875 C 9.09375 0.296875 7.300781 -0.171875 5.75 -1.109375 C 4.195312 -2.046875 2.992188 -3.347656 2.140625 -5.015625 C 1.296875 -6.691406 0.875 -8.613281 0.875 -10.78125 C 0.875 -13 1.320312 -14.957031 2.21875 -16.65625 C 3.125 -18.351562 4.378906 -19.671875 5.984375 -20.609375 C 7.597656 -21.546875 9.4375 -22.015625 11.5 -22.015625 C 13.1875 -22.015625 14.6875 -21.707031 16 -21.09375 C 17.320312 -20.476562 18.382812 -19.679688 19.1875 -18.703125 C 20 -17.734375 20.535156 -16.703125 20.796875 -15.609375 C 20.847656 -15.367188 20.875 -15.179688 20.875 -15.046875 C 20.875 -14.867188 20.832031 -14.75 20.75 -14.6875 C 20.675781 -14.632812 20.550781 -14.597656 20.375 -14.578125 L 15.375 -13.828125 C 15.15625 -13.828125 15.015625 -13.863281 14.953125 -13.9375 C 14.898438 -14.019531 14.84375 -14.175781 14.78125 -14.40625 C 14.625 -15.300781 14.257812 -16.035156 13.6875 -16.609375 C 13.113281 -17.191406 12.335938 -17.484375 11.359375 -17.484375 C 10.210938 -17.484375 9.335938 -16.988281 8.734375 -16 C 8.140625 -15.019531 7.84375 -13.335938 7.84375 -10.953125 C 7.84375 -8.453125 8.164062 -6.710938 8.8125 -5.734375 C 9.457031 -4.765625 10.382812 -4.28125 11.59375 -4.28125 C 13.175781 -4.28125 14.226562 -4.960938 14.75 -6.328125 L 14.84375 -6.59375 L 14.90625 -6.828125 C 14.90625 -7.003906 14.796875 -7.09375 14.578125 -7.09375 L 11.828125 -7.09375 C 11.609375 -7.09375 11.457031 -7.140625 11.375 -7.234375 C 11.289062 -7.328125 11.25 -7.492188 11.25 -7.734375 L 11.25 -10.546875 C 11.25 -10.867188 11.453125 -11.03125 11.859375 -11.03125 L 20.0625 -10.984375 C 20.40625 -10.984375 20.675781 -10.898438 20.875 -10.734375 C 21.070312 -10.566406 21.171875 -10.347656 21.171875 -10.078125 L 21.171875 -0.5 C 21.171875 -0.363281 21.117188 -0.242188 21.015625 -0.140625 C 20.921875 -0.046875 20.804688 0 20.671875 0 L 19.5625 0 C 19.207031 0 18.894531 -0.1875 18.625 -0.5625 L 17.453125 -2.25 C 17.429688 -2.3125 17.390625 -2.34375 17.328125 -2.34375 C 17.296875 -2.34375 17.226562 -2.296875 17.125 -2.203125 C 16.625 -1.710938 16.140625 -1.300781 15.671875 -0.96875 C 15.210938 -0.632812 14.601562 -0.335938 13.84375 -0.078125 C 13.082031 0.171875 12.175781 0.296875 11.125 0.296875 Z M 11.125 0.296875 "/></g></g></g><g fill="#737373" fill-opacity="1"><g transform="translate(107.627271, 242.000389)"><g><path d="M 20.03125 -8.578125 C 20.03125 -5.378906 19.21875 -3.097656 17.59375 -1.734375 C 15.976562 -0.378906 13.664062 0.296875 10.65625 0.296875 C 7.28125 0.296875 4.875 -0.484375 3.4375 -2.046875 C 2 -3.609375 1.28125 -5.984375 1.28125 -9.171875 L 1.28125 -21.046875 C 1.28125 -21.265625 1.328125 -21.429688 1.421875 -21.546875 C 1.523438 -21.671875 1.664062 -21.734375 1.84375 -21.734375 L 7.40625 -21.734375 C 7.757812 -21.734375 7.9375 -21.523438 7.9375 -21.109375 L 7.9375 -8.46875 C 7.9375 -7.019531 8.210938 -5.972656 8.765625 -5.328125 C 9.328125 -4.679688 10.125 -4.359375 11.15625 -4.359375 C 12.164062 -4.359375 12.984375 -4.679688 13.609375 -5.328125 C 14.234375 -5.972656 14.546875 -7.046875 14.546875 -8.546875 L 14.546875 -21.046875 C 14.546875 -21.503906 14.734375 -21.734375 15.109375 -21.734375 L 19.5 -21.734375 C 19.851562 -21.734375 20.03125 -21.523438 20.03125 -21.109375 Z M 20.03125 -8.578125 "/></g></g></g><g fill="#737373" fill-opacity="1"><g transform="translate(128.9468, 242.000389)"><g><path d="M 1.265625 0 C 1.109375 0 0.976562 -0.0507812 0.875 -0.15625 C 0.78125 -0.269531 0.734375 -0.421875 0.734375 -0.609375 C 0.734375 -0.742188 0.757812 -0.898438 0.8125 -1.078125 L 7.90625 -21.046875 C 8 -21.304688 8.101562 -21.484375 8.21875 -21.578125 C 8.34375 -21.679688 8.53125 -21.734375 8.78125 -21.734375 L 14.546875 -21.734375 C 14.785156 -21.734375 14.992188 -21.65625 15.171875 -21.5 C 15.359375 -21.351562 15.503906 -21.164062 15.609375 -20.9375 L 22.640625 -1 C 22.671875 -0.84375 22.6875 -0.722656 22.6875 -0.640625 C 22.6875 -0.460938 22.644531 -0.3125 22.5625 -0.1875 C 22.488281 -0.0625 22.375 0 22.21875 0 L 16.484375 0 C 16.148438 0 15.9375 -0.164062 15.84375 -0.5 L 14.703125 -3.859375 C 14.640625 -3.992188 14.582031 -4.085938 14.53125 -4.140625 C 14.488281 -4.191406 14.398438 -4.21875 14.265625 -4.21875 L 8.046875 -4.21875 C 7.816406 -4.21875 7.671875 -4.109375 7.609375 -3.890625 L 6.40625 -0.4375 C 6.289062 -0.144531 6.054688 0 5.703125 0 Z M 12.796875 -9.1875 C 13.015625 -9.1875 13.125 -9.285156 13.125 -9.484375 C 13.125 -9.523438 13.101562 -9.625 13.0625 -9.78125 L 11.296875 -14.78125 C 11.265625 -14.882812 11.207031 -14.9375 11.125 -14.9375 C 11.050781 -14.9375 10.992188 -14.882812 10.953125 -14.78125 L 9.171875 -9.8125 C 9.128906 -9.726562 9.109375 -9.628906 9.109375 -9.515625 C 9.109375 -9.296875 9.222656 -9.1875 9.453125 -9.1875 Z M 12.796875 -9.1875 "/></g></g></g><g fill="#737373" fill-opacity="1"><g transform="translate(152.345571, 242.000389)"><g><path d="M 20.53125 -0.9375 C 20.5625 -0.851562 20.578125 -0.742188 20.578125 -0.609375 C 20.578125 -0.429688 20.523438 -0.285156 20.421875 -0.171875 C 20.316406 -0.0546875 20.175781 0 20 0 L 14.3125 0 C 13.90625 0 13.644531 -0.203125 13.53125 -0.609375 L 10.78125 -8.171875 C 10.71875 -8.328125 10.617188 -8.441406 10.484375 -8.515625 C 10.347656 -8.597656 10.144531 -8.640625 9.875 -8.640625 L 8.515625 -8.640625 C 8.398438 -8.640625 8.3125 -8.597656 8.25 -8.515625 C 8.195312 -8.441406 8.171875 -8.375 8.171875 -8.3125 L 8.171875 -0.84375 C 8.171875 -0.53125 8.09375 -0.3125 7.9375 -0.1875 C 7.78125 -0.0625 7.535156 0 7.203125 0 L 2.28125 0 C 1.988281 0 1.785156 -0.0546875 1.671875 -0.171875 C 1.566406 -0.285156 1.515625 -0.472656 1.515625 -0.734375 L 1.515625 -21.046875 C 1.515625 -21.503906 1.703125 -21.734375 2.078125 -21.734375 L 11.859375 -21.734375 C 14.691406 -21.734375 16.890625 -21.1875 18.453125 -20.09375 C 20.015625 -19.007812 20.796875 -17.484375 20.796875 -15.515625 C 20.796875 -14.171875 20.4375 -12.972656 19.71875 -11.921875 C 19.007812 -10.867188 18.085938 -10.125 16.953125 -9.6875 C 16.835938 -9.632812 16.78125 -9.539062 16.78125 -9.40625 C 16.78125 -9.34375 16.800781 -9.253906 16.84375 -9.140625 Z M 11.59375 -13 C 12.332031 -13 12.898438 -13.1875 13.296875 -13.5625 C 13.703125 -13.945312 13.90625 -14.460938 13.90625 -15.109375 C 13.90625 -15.828125 13.664062 -16.382812 13.1875 -16.78125 C 12.707031 -17.1875 12.117188 -17.390625 11.421875 -17.390625 L 8.84375 -17.390625 C 8.59375 -17.390625 8.414062 -17.34375 8.3125 -17.25 C 8.21875 -17.164062 8.171875 -17.019531 8.171875 -16.8125 L 8.171875 -13.609375 C 8.171875 -13.398438 8.203125 -13.242188 8.265625 -13.140625 C 8.335938 -13.046875 8.472656 -13 8.671875 -13 Z M 11.59375 -13 "/></g></g></g><g fill="#737373" fill-opacity="1"><g transform="translate(173.98724, 242.000389)"><g><path d="M 1.265625 0 C 1.109375 0 0.976562 -0.0507812 0.875 -0.15625 C 0.78125 -0.269531 0.734375 -0.421875 0.734375 -0.609375 C 0.734375 -0.742188 0.757812 -0.898438 0.8125 -1.078125 L 7.90625 -21.046875 C 8 -21.304688 8.101562 -21.484375 8.21875 -21.578125 C 8.34375 -21.679688 8.53125 -21.734375 8.78125 -21.734375 L 14.546875 -21.734375 C 14.785156 -21.734375 14.992188 -21.65625 15.171875 -21.5 C 15.359375 -21.351562 15.503906 -21.164062 15.609375 -20.9375 L 22.640625 -1 C 22.671875 -0.84375 22.6875 -0.722656 22.6875 -0.640625 C 22.6875 -0.460938 22.644531 -0.3125 22.5625 -0.1875 C 22.488281 -0.0625 22.375 0 22.21875 0 L 16.484375 0 C 16.148438 0 15.9375 -0.164062 15.84375 -0.5 L 14.703125 -3.859375 C 14.640625 -3.992188 14.582031 -4.085938 14.53125 -4.140625 C 14.488281 -4.191406 14.398438 -4.21875 14.265625 -4.21875 L 8.046875 -4.21875 C 7.816406 -4.21875 7.671875 -4.109375 7.609375 -3.890625 L 6.40625 -0.4375 C 6.289062 -0.144531 6.054688 0 5.703125 0 Z M 12.796875 -9.1875 C 13.015625 -9.1875 13.125 -9.285156 13.125 -9.484375 C 13.125 -9.523438 13.101562 -9.625 13.0625 -9.78125 L 11.296875 -14.78125 C 11.265625 -14.882812 11.207031 -14.9375 11.125 -14.9375 C 11.050781 -14.9375 10.992188 -14.882812 10.953125 -14.78125 L 9.171875 -9.8125 C 9.128906 -9.726562 9.109375 -9.628906 9.109375 -9.515625 C 9.109375 -9.296875 9.222656 -9.1875 9.453125 -9.1875 Z M 12.796875 -9.1875 "/></g></g></g><g fill="#737373" fill-opacity="1"><g transform="translate(197.386011, 242.000389)"><g><path d="M 20.328125 -21.734375 C 20.617188 -21.734375 20.765625 -21.566406 20.765625 -21.234375 L 20.765625 -0.53125 C 20.765625 -0.375 20.695312 -0.242188 20.5625 -0.140625 C 20.4375 -0.046875 20.28125 0 20.09375 0 L 16.078125 0 C 15.898438 0 15.753906 -0.0234375 15.640625 -0.078125 C 15.535156 -0.140625 15.414062 -0.257812 15.28125 -0.4375 L 7.234375 -11.359375 C 7.148438 -11.453125 7.078125 -11.488281 7.015625 -11.46875 C 6.960938 -11.457031 6.9375 -11.398438 6.9375 -11.296875 L 6.9375 -0.640625 C 6.957031 -0.410156 6.910156 -0.242188 6.796875 -0.140625 C 6.691406 -0.046875 6.503906 0 6.234375 0 L 2.25 0 C 1.757812 0 1.515625 -0.191406 1.515625 -0.578125 L 1.515625 -21.046875 C 1.515625 -21.503906 1.734375 -21.734375 2.171875 -21.734375 L 6.9375 -21.734375 C 7.1875 -21.734375 7.375 -21.695312 7.5 -21.625 C 7.632812 -21.550781 7.78125 -21.410156 7.9375 -21.203125 L 14.96875 -11.421875 C 15.082031 -11.242188 15.1875 -11.15625 15.28125 -11.15625 C 15.382812 -11.15625 15.4375 -11.28125 15.4375 -11.53125 L 15.4375 -21.109375 C 15.4375 -21.523438 15.648438 -21.734375 16.078125 -21.734375 Z M 20.328125 -21.734375 "/></g></g></g><g fill="#737373" fill-opacity="1"><g transform="translate(219.671948, 242.000389)"><g><path d="M 0.8125 -21.046875 C 0.8125 -21.242188 0.875 -21.40625 1 -21.53125 C 1.132812 -21.664062 1.316406 -21.734375 1.546875 -21.734375 L 19.0625 -21.734375 C 19.289062 -21.734375 19.46875 -21.664062 19.59375 -21.53125 C 19.726562 -21.40625 19.796875 -21.242188 19.796875 -21.046875 L 19.796875 -17.5625 C 19.796875 -17.195312 19.582031 -17.015625 19.15625 -17.015625 L 13.96875 -17.015625 C 13.726562 -17.015625 13.609375 -16.914062 13.609375 -16.71875 L 13.609375 -0.640625 C 13.609375 -0.429688 13.5625 -0.269531 13.46875 -0.15625 C 13.375 -0.0507812 13.238281 0 13.0625 0 L 7.5 0 C 7.144531 0 6.96875 -0.191406 6.96875 -0.578125 L 6.96875 -16.609375 C 6.96875 -16.878906 6.859375 -17.015625 6.640625 -17.015625 L 1.5 -17.015625 C 1.039062 -17.015625 0.8125 -17.195312 0.8125 -17.5625 Z M 0.8125 -21.046875 "/></g></g></g><g fill="#737373" fill-opacity="1"><g transform="translate(240.288638, 242.000389)"><g><path d="M 1.515625 -21.046875 C 1.515625 -21.503906 1.703125 -21.734375 2.078125 -21.734375 L 17.890625 -21.734375 C 18.242188 -21.734375 18.421875 -21.523438 18.421875 -21.109375 L 18.390625 -17.71875 C 18.390625 -17.1875 18.132812 -16.921875 17.625 -16.921875 L 8.84375 -16.921875 C 8.394531 -16.921875 8.171875 -16.738281 8.171875 -16.375 L 8.171875 -13.875 C 8.171875 -13.6875 8.21875 -13.535156 8.3125 -13.421875 C 8.414062 -13.316406 8.546875 -13.265625 8.703125 -13.265625 L 13.96875 -13.265625 C 14.375 -13.265625 14.578125 -13.066406 14.578125 -12.671875 L 14.578125 -9.046875 C 14.578125 -8.710938 14.40625 -8.546875 14.0625 -8.546875 L 8.640625 -8.546875 C 8.503906 -8.546875 8.390625 -8.503906 8.296875 -8.421875 C 8.210938 -8.347656 8.171875 -8.253906 8.171875 -8.140625 L 8.171875 -5.21875 C 8.171875 -5.0625 8.191406 -4.953125 8.234375 -4.890625 C 8.285156 -4.828125 8.378906 -4.796875 8.515625 -4.796875 L 18.03125 -4.796875 C 18.46875 -4.796875 18.6875 -4.613281 18.6875 -4.25 L 18.6875 -0.640625 C 18.6875 -0.441406 18.625 -0.285156 18.5 -0.171875 C 18.382812 -0.0546875 18.210938 0 17.984375 0 L 2.3125 0 C 2.019531 0 1.8125 -0.0546875 1.6875 -0.171875 C 1.570312 -0.285156 1.515625 -0.472656 1.515625 -0.734375 Z M 1.515625 -21.046875 "/></g></g></g><g fill="#737373" fill-opacity="1"><g transform="translate(259.93892, 242.000389)"><g><path d="M 1.515625 -21.046875 C 1.515625 -21.503906 1.703125 -21.734375 2.078125 -21.734375 L 17.890625 -21.734375 C 18.242188 -21.734375 18.421875 -21.523438 18.421875 -21.109375 L 18.390625 -17.71875 C 18.390625 -17.1875 18.132812 -16.921875 17.625 -16.921875 L 8.84375 -16.921875 C 8.394531 -16.921875 8.171875 -16.738281 8.171875 -16.375 L 8.171875 -13.875 C 8.171875 -13.6875 8.21875 -13.535156 8.3125 -13.421875 C 8.414062 -13.316406 8.546875 -13.265625 8.703125 -13.265625 L 13.96875 -13.265625 C 14.375 -13.265625 14.578125 -13.066406 14.578125 -12.671875 L 14.578125 -9.046875 C 14.578125 -8.710938 14.40625 -8.546875 14.0625 -8.546875 L 8.640625 -8.546875 C 8.503906 -8.546875 8.390625 -8.503906 8.296875 -8.421875 C 8.210938 -8.347656 8.171875 -8.253906 8.171875 -8.140625 L 8.171875 -5.21875 C 8.171875 -5.0625 8.191406 -4.953125 8.234375 -4.890625 C 8.285156 -4.828125 8.378906 -4.796875 8.515625 -4.796875 L 18.03125 -4.796875 C 18.46875 -4.796875 18.6875 -4.613281 18.6875 -4.25 L 18.6875 -0.640625 C 18.6875 -0.441406 18.625 -0.285156 18.5 -0.171875 C 18.382812 -0.0546875 18.210938 0 17.984375 0 L 2.3125 0 C 2.019531 0 1.8125 -0.0546875 1.6875 -0.171875 C 1.570312 -0.285156 1.515625 -0.472656 1.515625 -0.734375 Z M 1.515625 -21.046875 "/></g></g></g></svg>