<svg xmlns="http://www.w3.org/2000/svg" xmlns:xlink="http://www.w3.org/1999/xlink" width="500" zoomAndPan="magnify" viewBox="0 0 375 374.999991" height="500" preserveAspectRatio="xMidYMid meet" version="1.0"><defs><clipPath id="8f6c4aa65c"><path d="M 88.347656 0 L 295.582031 0 L 295.582031 375 L 88.347656 375 Z M 88.347656 0 " clip-rule="nonzero"/></clipPath></defs><g clip-path="url(#8f6c4aa65c)"><path fill="#000000" d="M 116.054688 0.0703125 C 101.832031 0.0703125 90.378906 13.847656 90.378906 30.960938 L 90.378906 66.863281 C 89.222656 67.097656 88.355469 68.117188 88.355469 69.347656 L 88.355469 80.933594 C 88.355469 82.164062 89.222656 83.183594 90.378906 83.417969 L 90.378906 95.914062 C 89.222656 96.144531 88.355469 97.167969 88.355469 98.394531 L 88.355469 117.808594 C 88.355469 119.039062 89.222656 120.058594 90.378906 120.292969 L 90.378906 128.691406 C 89.222656 128.925781 88.355469 129.945312 88.355469 131.175781 L 88.355469 150.589844 C 88.355469 151.820312 89.222656 152.839844 90.378906 153.074219 L 90.378906 344.324219 C 90.378906 361.4375 101.832031 375.214844 116.054688 375.214844 L 266.890625 375.214844 C 281.117188 375.214844 292.566406 361.4375 292.566406 344.324219 L 292.566406 120.292969 C 292.726562 120.324219 292.886719 120.339844 293.054688 120.339844 C 294.457031 120.339844 295.589844 119.210938 295.589844 117.808594 L 295.589844 98.390625 C 295.589844 96.988281 294.457031 95.859375 293.054688 95.859375 C 292.886719 95.859375 292.726562 95.875 292.566406 95.90625 L 292.566406 30.960938 C 292.566406 13.847656 281.117188 0.0703125 266.890625 0.0703125 Z M 191.476562 7.835938 C 191.871094 7.835938 192.25 7.910156 192.613281 8.058594 C 192.976562 8.210938 193.296875 8.425781 193.578125 8.703125 C 193.855469 8.984375 194.070312 9.304688 194.222656 9.667969 C 194.371094 10.03125 194.449219 10.414062 194.449219 10.804688 C 194.449219 11.199219 194.371094 11.578125 194.222656 11.945312 C 194.070312 12.308594 193.855469 12.628906 193.578125 12.90625 C 193.296875 13.1875 192.976562 13.402344 192.613281 13.550781 C 192.25 13.703125 191.871094 13.777344 191.476562 13.777344 C 191.082031 13.777344 190.703125 13.703125 190.335938 13.550781 C 189.972656 13.402344 189.652344 13.1875 189.371094 12.90625 C 189.09375 12.628906 188.878906 12.308594 188.726562 11.945312 C 188.578125 11.578125 188.503906 11.199219 188.503906 10.804688 C 188.503906 10.414062 188.578125 10.03125 188.726562 9.667969 C 188.878906 9.304688 189.09375 8.984375 189.371094 8.703125 C 189.652344 8.425781 189.972656 8.210938 190.335938 8.058594 C 190.703125 7.910156 191.082031 7.835938 191.476562 7.835938 Z M 151.578125 19.75 C 152.023438 19.75 152.449219 19.835938 152.859375 20.003906 C 153.269531 20.175781 153.632812 20.417969 153.945312 20.730469 C 154.257812 21.042969 154.5 21.40625 154.671875 21.8125 C 154.839844 22.222656 154.925781 22.652344 154.925781 23.09375 C 154.925781 23.539062 154.839844 23.964844 154.671875 24.375 C 154.5 24.78125 154.257812 25.144531 153.945312 25.457031 C 153.632812 25.773438 153.269531 26.011719 152.859375 26.183594 C 152.449219 26.351562 152.023438 26.4375 151.578125 26.4375 C 151.136719 26.4375 150.710938 26.351562 150.300781 26.183594 C 149.890625 26.011719 149.527344 25.773438 149.214844 25.457031 C 148.902344 25.144531 148.660156 24.78125 148.488281 24.375 C 148.320312 23.964844 148.234375 23.539062 148.234375 23.09375 C 148.234375 22.652344 148.320312 22.222656 148.488281 21.8125 C 148.660156 21.40625 148.902344 21.042969 149.214844 20.730469 C 149.527344 20.417969 149.890625 20.175781 150.300781 20.003906 C 150.710938 19.835938 151.136719 19.75 151.578125 19.75 Z M 171.980469 21.628906 L 211.960938 21.628906 C 212.765625 21.628906 213.414062 22.457031 213.414062 23.484375 C 213.414062 24.515625 212.765625 25.34375 211.960938 25.34375 L 171.980469 25.34375 C 171.179688 25.34375 170.53125 24.515625 170.53125 23.484375 C 170.53125 22.457031 171.179688 21.628906 171.980469 21.628906 Z M 95.15625 42.164062 L 287.796875 42.164062 L 287.796875 333.125 L 95.15625 333.125 Z M 191.476562 339.871094 C 192.4375 339.871094 193.394531 339.964844 194.339844 340.152344 C 195.28125 340.339844 196.199219 340.617188 197.089844 340.988281 C 197.980469 341.355469 198.828125 341.808594 199.628906 342.34375 C 200.429688 342.878906 201.171875 343.484375 201.851562 344.167969 C 202.535156 344.847656 203.140625 345.589844 203.675781 346.390625 C 204.210938 347.191406 204.664062 348.035156 205.03125 348.925781 C 205.402344 349.816406 205.679688 350.734375 205.867188 351.679688 C 206.054688 352.625 206.148438 353.578125 206.148438 354.539062 C 206.148438 355.503906 206.054688 356.457031 205.867188 357.402344 C 205.679688 358.347656 205.402344 359.265625 205.03125 360.152344 C 204.664062 361.042969 204.210938 361.890625 203.675781 362.691406 C 203.140625 363.492188 202.535156 364.230469 201.851562 364.914062 C 201.171875 365.59375 200.429688 366.203125 199.628906 366.738281 C 198.828125 367.273438 197.980469 367.726562 197.089844 368.09375 C 196.199219 368.460938 195.28125 368.742188 194.339844 368.929688 C 193.394531 369.117188 192.4375 369.210938 191.476562 369.210938 C 190.511719 369.210938 189.558594 369.117188 188.613281 368.929688 C 187.667969 368.742188 186.75 368.460938 185.859375 368.09375 C 184.96875 367.726562 184.125 367.273438 183.320312 366.738281 C 182.519531 366.203125 181.78125 365.59375 181.097656 364.914062 C 180.417969 364.234375 179.808594 363.492188 179.273438 362.691406 C 178.738281 361.890625 178.285156 361.042969 177.917969 360.15625 C 177.546875 359.265625 177.269531 358.347656 177.082031 357.402344 C 176.894531 356.457031 176.800781 355.503906 176.800781 354.539062 C 176.800781 353.578125 176.894531 352.625 177.082031 351.679688 C 177.269531 350.734375 177.546875 349.816406 177.917969 348.925781 C 178.285156 348.035156 178.738281 347.191406 179.273438 346.390625 C 179.808594 345.589844 180.417969 344.847656 181.097656 344.167969 C 181.78125 343.484375 182.519531 342.878906 183.320312 342.34375 C 184.125 341.808594 184.96875 341.355469 185.859375 340.988281 C 186.75 340.617188 187.667969 340.339844 188.613281 340.152344 C 189.558594 339.964844 190.511719 339.871094 191.476562 339.871094 Z M 191.476562 339.871094 " fill-opacity="1" fill-rule="nonzero"/></g><path fill="#d9d9d9" d="M 168.097656 165.839844 C 168.101562 165.554688 168.109375 165.265625 168.121094 164.976562 C 168.90625 145.460938 186.484375 131.414062 204.222656 128.285156 C 228.5625 123.992188 260.886719 140.058594 255.226562 168.707031 C 252.191406 184.042969 241.3125 197.945312 225.90625 202.203125 C 221.660156 203.378906 216.859375 204.132812 212.445312 204.132812 C 203.210938 204.132812 195.925781 199.335938 187.429688 205.464844 C 184.949219 207.257812 182.378906 213.546875 178.4375 212.160156 C 175.558594 211.148438 174.957031 205.316406 174.761719 202.886719 C 173.757812 190.40625 167.875 178.402344 168.097656 165.839844 Z M 168.097656 165.839844 " fill-opacity="1" fill-rule="nonzero"/><path fill="#ffffff" d="M 238.5 166.03125 C 238.5 166.402344 238.464844 166.773438 238.390625 167.136719 C 238.316406 167.503906 238.210938 167.859375 238.066406 168.203125 C 237.925781 168.546875 237.75 168.875 237.542969 169.183594 C 237.335938 169.492188 237.097656 169.78125 236.835938 170.042969 C 236.570312 170.304688 236.285156 170.542969 235.976562 170.75 C 235.664062 170.957031 235.335938 171.128906 234.992188 171.273438 C 234.648438 171.414062 234.292969 171.523438 233.925781 171.597656 C 233.5625 171.667969 233.191406 171.707031 232.820312 171.707031 C 232.445312 171.707031 232.074219 171.667969 231.710938 171.597656 C 231.34375 171.523438 230.988281 171.414062 230.644531 171.273438 C 230.300781 171.128906 229.972656 170.957031 229.660156 170.75 C 229.351562 170.542969 229.066406 170.304688 228.800781 170.042969 C 228.539062 169.78125 228.300781 169.492188 228.09375 169.183594 C 227.886719 168.875 227.710938 168.546875 227.570312 168.203125 C 227.425781 167.859375 227.320312 167.503906 227.246094 167.136719 C 227.171875 166.773438 227.136719 166.402344 227.136719 166.03125 C 227.136719 165.65625 227.171875 165.289062 227.246094 164.921875 C 227.320312 164.558594 227.425781 164.203125 227.570312 163.859375 C 227.710938 163.515625 227.886719 163.1875 228.09375 162.875 C 228.300781 162.566406 228.539062 162.28125 228.800781 162.015625 C 229.066406 161.753906 229.351562 161.519531 229.660156 161.3125 C 229.972656 161.105469 230.300781 160.929688 230.644531 160.785156 C 230.988281 160.644531 231.34375 160.535156 231.710938 160.464844 C 232.074219 160.390625 232.445312 160.355469 232.820312 160.355469 C 233.191406 160.355469 233.5625 160.390625 233.925781 160.464844 C 234.292969 160.535156 234.648438 160.644531 234.992188 160.785156 C 235.335938 160.929688 235.664062 161.105469 235.976562 161.3125 C 236.285156 161.519531 236.570312 161.753906 236.835938 162.015625 C 237.097656 162.28125 237.335938 162.566406 237.542969 162.875 C 237.75 163.1875 237.925781 163.515625 238.066406 163.859375 C 238.210938 164.203125 238.316406 164.558594 238.390625 164.921875 C 238.464844 165.289062 238.5 165.65625 238.5 166.03125 Z M 238.5 166.03125 " fill-opacity="1" fill-rule="nonzero"/><path fill="#ffffff" d="M 218.433594 166.03125 C 218.433594 166.402344 218.394531 166.773438 218.324219 167.136719 C 218.25 167.503906 218.140625 167.859375 218 168.203125 C 217.855469 168.546875 217.679688 168.875 217.472656 169.183594 C 217.265625 169.492188 217.03125 169.78125 216.769531 170.042969 C 216.503906 170.308594 216.21875 170.542969 215.90625 170.75 C 215.597656 170.957031 215.269531 171.132812 214.925781 171.273438 C 214.578125 171.417969 214.222656 171.523438 213.859375 171.597656 C 213.492188 171.667969 213.125 171.707031 212.75 171.707031 C 212.375 171.707031 212.007812 171.667969 211.640625 171.597656 C 211.277344 171.523438 210.921875 171.417969 210.574219 171.273438 C 210.230469 171.132812 209.902344 170.957031 209.59375 170.75 C 209.28125 170.542969 208.996094 170.308594 208.730469 170.042969 C 208.46875 169.78125 208.234375 169.492188 208.027344 169.183594 C 207.820312 168.875 207.644531 168.546875 207.5 168.203125 C 207.359375 167.859375 207.25 167.503906 207.175781 167.136719 C 207.105469 166.773438 207.066406 166.402344 207.066406 166.03125 C 207.066406 165.65625 207.105469 165.289062 207.175781 164.921875 C 207.25 164.558594 207.359375 164.203125 207.5 163.859375 C 207.644531 163.511719 207.820312 163.1875 208.027344 162.875 C 208.234375 162.566406 208.46875 162.28125 208.730469 162.015625 C 208.996094 161.753906 209.28125 161.519531 209.59375 161.3125 C 209.902344 161.105469 210.230469 160.929688 210.574219 160.785156 C 210.921875 160.644531 211.277344 160.535156 211.640625 160.464844 C 212.007812 160.390625 212.375 160.355469 212.75 160.355469 C 213.125 160.355469 213.492188 160.390625 213.859375 160.464844 C 214.222656 160.535156 214.578125 160.644531 214.925781 160.785156 C 215.269531 160.929688 215.597656 161.105469 215.90625 161.3125 C 216.21875 161.519531 216.503906 161.753906 216.769531 162.015625 C 217.03125 162.28125 217.265625 162.566406 217.472656 162.875 C 217.679688 163.1875 217.855469 163.511719 218 163.859375 C 218.140625 164.203125 218.25 164.558594 218.324219 164.921875 C 218.394531 165.289062 218.433594 165.65625 218.433594 166.03125 Z M 218.433594 166.03125 " fill-opacity="1" fill-rule="nonzero"/><path fill="#ffffff" d="M 199.425781 166.03125 C 199.425781 166.402344 199.390625 166.773438 199.316406 167.136719 C 199.246094 167.503906 199.136719 167.859375 198.992188 168.203125 C 198.851562 168.546875 198.675781 168.875 198.46875 169.183594 C 198.261719 169.492188 198.027344 169.78125 197.761719 170.042969 C 197.5 170.304688 197.210938 170.542969 196.902344 170.75 C 196.589844 170.957031 196.261719 171.128906 195.917969 171.273438 C 195.574219 171.414062 195.21875 171.523438 194.851562 171.597656 C 194.488281 171.667969 194.117188 171.707031 193.746094 171.707031 C 193.371094 171.707031 193.003906 171.667969 192.636719 171.597656 C 192.269531 171.523438 191.914062 171.414062 191.570312 171.273438 C 191.226562 171.128906 190.898438 170.957031 190.589844 170.75 C 190.277344 170.542969 189.992188 170.304688 189.726562 170.042969 C 189.464844 169.78125 189.226562 169.492188 189.019531 169.183594 C 188.8125 168.875 188.640625 168.546875 188.496094 168.203125 C 188.351562 167.859375 188.246094 167.503906 188.171875 167.136719 C 188.101562 166.773438 188.0625 166.402344 188.0625 166.03125 C 188.0625 165.65625 188.101562 165.289062 188.171875 164.921875 C 188.246094 164.558594 188.351562 164.203125 188.496094 163.859375 C 188.640625 163.515625 188.8125 163.1875 189.019531 162.875 C 189.226562 162.566406 189.464844 162.28125 189.726562 162.015625 C 189.992188 161.753906 190.277344 161.519531 190.589844 161.3125 C 190.898438 161.105469 191.226562 160.929688 191.570312 160.785156 C 191.914062 160.644531 192.269531 160.535156 192.636719 160.464844 C 193.003906 160.390625 193.371094 160.355469 193.746094 160.355469 C 194.117188 160.355469 194.488281 160.390625 194.851562 160.464844 C 195.21875 160.535156 195.574219 160.644531 195.917969 160.785156 C 196.261719 160.929688 196.589844 161.105469 196.902344 161.3125 C 197.210938 161.519531 197.5 161.753906 197.761719 162.015625 C 198.027344 162.28125 198.261719 162.566406 198.46875 162.875 C 198.675781 163.1875 198.851562 163.515625 198.992188 163.859375 C 199.136719 164.203125 199.246094 164.558594 199.316406 164.921875 C 199.390625 165.289062 199.425781 165.65625 199.425781 166.03125 Z M 199.425781 166.03125 " fill-opacity="1" fill-rule="nonzero"/><path fill="#a6a6a6" d="M 215.710938 203.261719 C 215.707031 202.972656 215.699219 202.6875 215.683594 202.398438 C 214.902344 182.882812 197.324219 168.835938 179.585938 165.707031 C 155.246094 161.410156 122.921875 177.480469 128.582031 206.125 C 131.613281 221.460938 142.492188 235.363281 157.898438 239.625 C 162.148438 240.796875 166.949219 241.554688 171.363281 241.554688 C 180.597656 241.554688 187.882812 236.757812 196.375 242.886719 C 198.859375 244.675781 201.429688 250.96875 205.367188 249.582031 C 208.246094 248.566406 208.851562 242.738281 209.046875 240.304688 C 210.046875 227.828125 215.933594 215.824219 215.710938 203.261719 Z M 215.710938 203.261719 " fill-opacity="1" fill-rule="nonzero"/><path fill="#ffffff" d="M 156.667969 203.449219 C 156.667969 203.824219 156.632812 204.191406 156.558594 204.558594 C 156.488281 204.921875 156.378906 205.277344 156.238281 205.621094 C 156.09375 205.964844 155.917969 206.292969 155.710938 206.605469 C 155.503906 206.914062 155.269531 207.199219 155.003906 207.464844 C 154.742188 207.726562 154.453125 207.960938 154.144531 208.167969 C 153.835938 208.375 153.507812 208.550781 153.164062 208.695312 C 152.816406 208.835938 152.460938 208.945312 152.097656 209.015625 C 151.730469 209.089844 151.359375 209.125 150.988281 209.125 C 150.613281 209.125 150.246094 209.089844 149.878906 209.015625 C 149.515625 208.945312 149.160156 208.835938 148.8125 208.695312 C 148.46875 208.550781 148.140625 208.375 147.832031 208.167969 C 147.519531 207.960938 147.234375 207.726562 146.96875 207.464844 C 146.707031 207.199219 146.472656 206.914062 146.265625 206.605469 C 146.058594 206.292969 145.882812 205.964844 145.738281 205.621094 C 145.597656 205.277344 145.488281 204.921875 145.414062 204.558594 C 145.34375 204.191406 145.304688 203.824219 145.304688 203.449219 C 145.304688 203.078125 145.34375 202.707031 145.414062 202.34375 C 145.488281 201.976562 145.597656 201.621094 145.738281 201.277344 C 145.882812 200.933594 146.058594 200.605469 146.265625 200.296875 C 146.472656 199.988281 146.707031 199.699219 146.96875 199.4375 C 147.234375 199.175781 147.519531 198.9375 147.832031 198.730469 C 148.140625 198.523438 148.46875 198.351562 148.8125 198.207031 C 149.160156 198.066406 149.515625 197.957031 149.878906 197.882812 C 150.246094 197.8125 150.613281 197.773438 150.988281 197.773438 C 151.359375 197.773438 151.730469 197.8125 152.097656 197.882812 C 152.460938 197.957031 152.816406 198.066406 153.164062 198.207031 C 153.507812 198.351562 153.835938 198.523438 154.144531 198.730469 C 154.453125 198.9375 154.742188 199.175781 155.003906 199.4375 C 155.269531 199.699219 155.503906 199.988281 155.710938 200.296875 C 155.917969 200.605469 156.09375 200.933594 156.238281 201.277344 C 156.378906 201.621094 156.488281 201.976562 156.558594 202.34375 C 156.632812 202.707031 156.667969 203.078125 156.667969 203.449219 Z M 156.667969 203.449219 " fill-opacity="1" fill-rule="nonzero"/><path fill="#ffffff" d="M 176.738281 203.449219 C 176.738281 203.824219 176.703125 204.191406 176.628906 204.558594 C 176.554688 204.921875 176.449219 205.277344 176.304688 205.621094 C 176.164062 205.96875 175.988281 206.292969 175.78125 206.605469 C 175.574219 206.914062 175.339844 207.199219 175.074219 207.464844 C 174.808594 207.726562 174.523438 207.960938 174.214844 208.167969 C 173.902344 208.375 173.574219 208.550781 173.230469 208.695312 C 172.886719 208.835938 172.53125 208.945312 172.164062 209.015625 C 171.800781 209.089844 171.429688 209.125 171.054688 209.125 C 170.683594 209.125 170.3125 209.089844 169.949219 209.015625 C 169.582031 208.945312 169.226562 208.835938 168.882812 208.695312 C 168.539062 208.550781 168.210938 208.375 167.898438 208.167969 C 167.589844 207.960938 167.300781 207.726562 167.039062 207.464844 C 166.773438 207.199219 166.539062 206.914062 166.332031 206.605469 C 166.125 206.292969 165.949219 205.96875 165.808594 205.621094 C 165.664062 205.277344 165.554688 204.921875 165.484375 204.558594 C 165.410156 204.191406 165.375 203.824219 165.375 203.449219 C 165.375 203.078125 165.410156 202.707031 165.484375 202.34375 C 165.554688 201.976562 165.664062 201.621094 165.808594 201.277344 C 165.949219 200.933594 166.125 200.605469 166.332031 200.296875 C 166.539062 199.988281 166.773438 199.699219 167.039062 199.4375 C 167.300781 199.171875 167.589844 198.9375 167.898438 198.730469 C 168.210938 198.523438 168.539062 198.347656 168.882812 198.207031 C 169.226562 198.0625 169.582031 197.957031 169.949219 197.882812 C 170.3125 197.8125 170.683594 197.773438 171.054688 197.773438 C 171.429688 197.773438 171.800781 197.8125 172.164062 197.882812 C 172.53125 197.957031 172.886719 198.0625 173.230469 198.207031 C 173.574219 198.347656 173.902344 198.523438 174.214844 198.730469 C 174.523438 198.9375 174.808594 199.171875 175.074219 199.4375 C 175.339844 199.699219 175.574219 199.988281 175.78125 200.296875 C 175.988281 200.605469 176.164062 200.933594 176.304688 201.277344 C 176.449219 201.621094 176.554688 201.976562 176.628906 202.34375 C 176.703125 202.707031 176.738281 203.078125 176.738281 203.449219 Z M 176.738281 203.449219 " fill-opacity="1" fill-rule="nonzero"/><path fill="#ffffff" d="M 195.742188 203.449219 C 195.742188 203.824219 195.707031 204.191406 195.632812 204.558594 C 195.5625 204.921875 195.453125 205.277344 195.308594 205.621094 C 195.167969 205.964844 194.992188 206.292969 194.785156 206.605469 C 194.578125 206.914062 194.34375 207.199219 194.078125 207.464844 C 193.816406 207.726562 193.527344 207.960938 193.21875 208.167969 C 192.90625 208.375 192.582031 208.550781 192.234375 208.695312 C 191.890625 208.835938 191.535156 208.945312 191.171875 209.015625 C 190.804688 209.089844 190.433594 209.125 190.0625 209.125 C 189.6875 209.125 189.320312 209.089844 188.953125 209.015625 C 188.585938 208.945312 188.230469 208.835938 187.886719 208.695312 C 187.542969 208.550781 187.214844 208.375 186.90625 208.167969 C 186.59375 207.960938 186.308594 207.726562 186.042969 207.464844 C 185.78125 207.199219 185.542969 206.914062 185.335938 206.605469 C 185.128906 206.292969 184.957031 205.964844 184.8125 205.621094 C 184.667969 205.277344 184.5625 204.921875 184.488281 204.558594 C 184.417969 204.191406 184.378906 203.824219 184.378906 203.449219 C 184.378906 203.078125 184.417969 202.707031 184.488281 202.34375 C 184.5625 201.976562 184.667969 201.621094 184.8125 201.277344 C 184.957031 200.933594 185.128906 200.605469 185.335938 200.296875 C 185.542969 199.988281 185.78125 199.699219 186.042969 199.4375 C 186.308594 199.175781 186.59375 198.9375 186.90625 198.730469 C 187.214844 198.523438 187.542969 198.351562 187.886719 198.207031 C 188.230469 198.066406 188.585938 197.957031 188.953125 197.882812 C 189.320312 197.8125 189.6875 197.773438 190.0625 197.773438 C 190.433594 197.773438 190.804688 197.8125 191.171875 197.882812 C 191.535156 197.957031 191.890625 198.066406 192.234375 198.207031 C 192.582031 198.351562 192.90625 198.523438 193.21875 198.730469 C 193.527344 198.9375 193.816406 199.175781 194.078125 199.4375 C 194.34375 199.699219 194.578125 199.988281 194.785156 200.296875 C 194.992188 200.605469 195.167969 200.933594 195.308594 201.277344 C 195.453125 201.621094 195.5625 201.976562 195.632812 202.34375 C 195.707031 202.707031 195.742188 203.078125 195.742188 203.449219 Z M 195.742188 203.449219 " fill-opacity="1" fill-rule="nonzero"/></svg>