<svg xmlns="http://www.w3.org/2000/svg" xmlns:xlink="http://www.w3.org/1999/xlink" width="50" zoomAndPan="magnify" viewBox="0 0 37.5 37.499999" height="50" preserveAspectRatio="xMidYMid meet" version="1.0"><defs><clipPath id="e9ccd2e865"><path d="M 12 16 L 29.203125 16 L 29.203125 36.628906 L 12 36.628906 Z M 12 16 " clip-rule="nonzero"/></clipPath><clipPath id="5182e68329"><path d="M 0.75 8.128906 L 21 8.128906 L 21 36.628906 L 0.75 36.628906 Z M 0.75 8.128906 " clip-rule="nonzero"/></clipPath><clipPath id="766537dc22"><path d="M 12 0.75 L 36.542969 0.75 L 36.542969 25.5 L 12 25.5 Z M 12 0.75 " clip-rule="nonzero"/></clipPath><clipPath id="91a4dd5804"><path d="M 32.738281 11.617188 C 33.167969 12.46875 33.496094 13.355469 33.726562 14.28125 C 34.300781 16.585938 34.03125 18.65625 32.957031 20.347656 L 34.300781 20.347656 C 34.484375 20.347656 34.640625 20.410156 34.769531 20.539062 C 34.898438 20.667969 34.960938 20.824219 34.960938 21.003906 L 34.960938 24.847656 C 34.960938 25.027344 34.898438 25.183594 34.769531 25.3125 C 34.640625 25.441406 34.484375 25.503906 34.300781 25.503906 L 25.410156 25.503906 C 25.226562 25.503906 25.074219 25.441406 24.945312 25.3125 C 24.816406 25.183594 24.75 25.027344 24.75 24.847656 L 24.75 21.003906 C 24.75 20.824219 24.816406 20.667969 24.945312 20.539062 C 25.074219 20.410156 25.226562 20.347656 25.410156 20.347656 L 27.058594 20.347656 C 29.875 17.128906 27.660156 12.789062 26.972656 11.617188 L 24.863281 11.617188 C 24.679688 11.617188 24.523438 11.554688 24.394531 11.425781 C 24.269531 11.296875 24.203125 11.140625 24.203125 10.960938 L 24.203125 8.902344 L 20.746094 8.902344 C 20.5625 8.902344 20.40625 8.835938 20.28125 8.707031 C 20.152344 8.578125 20.085938 8.425781 20.085938 8.242188 L 20.085938 6.84375 L 12.675781 6.84375 C 12.496094 6.84375 12.339844 6.777344 12.210938 6.648438 C 12.082031 6.519531 12.019531 6.367188 12.019531 6.183594 C 12.019531 6.003906 12.082031 5.847656 12.210938 5.71875 C 12.339844 5.589844 12.496094 5.527344 12.675781 5.527344 L 20.085938 5.527344 L 20.085938 4.125 C 20.085938 3.945312 20.152344 3.789062 20.28125 3.660156 C 20.40625 3.53125 20.5625 3.46875 20.746094 3.46875 L 24.203125 3.46875 L 24.203125 1.410156 C 24.203125 1.226562 24.269531 1.070312 24.394531 0.941406 C 24.523438 0.8125 24.679688 0.75 24.863281 0.75 L 33.011719 0.75 C 33.503906 0.75 33.976562 0.84375 34.429688 1.03125 C 34.882812 1.222656 35.285156 1.488281 35.632812 1.835938 C 35.980469 2.183594 36.246094 2.585938 36.433594 3.039062 C 36.625 3.492188 36.71875 3.964844 36.71875 4.457031 L 36.71875 7.914062 C 36.71875 8.40625 36.625 8.875 36.433594 9.332031 C 36.246094 9.785156 35.980469 10.183594 35.632812 10.53125 C 35.285156 10.878906 34.882812 11.148438 34.429688 11.335938 C 33.976562 11.523438 33.503906 11.617188 33.011719 11.617188 Z M 26.070312 24.1875 L 33.644531 24.1875 L 33.644531 21.664062 L 26.070312 21.664062 Z M 28.691406 20.347656 L 31.328125 20.347656 C 34.152344 17.128906 31.9375 12.789062 31.25 11.617188 L 28.464844 11.617188 C 28.890625 12.46875 29.222656 13.355469 29.453125 14.28125 C 30.03125 16.585938 29.765625 18.65625 28.691406 20.347656 Z M 21.402344 4.785156 L 21.402344 7.582031 L 24.203125 7.582031 L 24.203125 4.785156 Z M 35.402344 7.914062 L 35.402344 4.457031 C 35.402344 4.136719 35.339844 3.835938 35.21875 3.542969 C 35.097656 3.25 34.925781 2.992188 34.699219 2.765625 C 34.476562 2.542969 34.21875 2.371094 33.925781 2.25 C 33.632812 2.128906 33.328125 2.066406 33.011719 2.066406 L 25.519531 2.066406 L 25.519531 10.300781 L 33.011719 10.300781 C 33.328125 10.300781 33.632812 10.238281 33.925781 10.117188 C 34.21875 9.996094 34.476562 9.824219 34.699219 9.601562 C 34.925781 9.375 35.097656 9.117188 35.21875 8.828125 C 35.339844 8.535156 35.402344 8.230469 35.402344 7.914062 Z M 34.523438 4.125 C 34.523438 3.945312 34.457031 3.789062 34.332031 3.660156 C 34.203125 3.53125 34.046875 3.46875 33.863281 3.46875 L 31.339844 3.46875 C 31.15625 3.46875 31 3.53125 30.871094 3.660156 C 30.742188 3.789062 30.679688 3.945312 30.679688 4.125 C 30.679688 4.308594 30.742188 4.460938 30.871094 4.589844 C 31 4.71875 31.15625 4.785156 31.339844 4.785156 L 33.863281 4.785156 C 34.046875 4.785156 34.203125 4.71875 34.332031 4.589844 C 34.457031 4.460938 34.523438 4.308594 34.523438 4.125 Z M 34.523438 6.183594 C 34.523438 6.003906 34.457031 5.847656 34.332031 5.71875 C 34.203125 5.589844 34.046875 5.527344 33.863281 5.527344 L 31.339844 5.527344 C 31.15625 5.527344 31 5.589844 30.871094 5.71875 C 30.742188 5.847656 30.679688 6.003906 30.679688 6.183594 C 30.679688 6.367188 30.742188 6.519531 30.871094 6.648438 C 31 6.777344 31.15625 6.84375 31.339844 6.84375 L 33.863281 6.84375 C 34.046875 6.84375 34.203125 6.777344 34.332031 6.648438 C 34.457031 6.519531 34.523438 6.367188 34.523438 6.183594 Z M 31.339844 8.902344 L 33.863281 8.902344 C 34.046875 8.902344 34.203125 8.835938 34.332031 8.707031 C 34.457031 8.578125 34.523438 8.425781 34.523438 8.242188 C 34.523438 8.0625 34.457031 7.90625 34.332031 7.777344 C 34.203125 7.648438 34.046875 7.582031 33.863281 7.582031 L 31.339844 7.582031 C 31.15625 7.582031 31 7.648438 30.871094 7.777344 C 30.742188 7.90625 30.679688 8.0625 30.679688 8.242188 C 30.679688 8.425781 30.742188 8.578125 30.871094 8.707031 C 31 8.835938 31.15625 8.902344 31.339844 8.902344 Z M 31.339844 8.902344 " clip-rule="nonzero"/></clipPath><clipPath id="cc0b2692a1"><path d="M 12.359375 5 L 21 5 L 21 7 L 12.359375 7 Z M 12.359375 5 " clip-rule="nonzero"/></clipPath><clipPath id="218e319b2a"><path d="M 25 21 L 35 21 L 35 24.910156 L 25 24.910156 Z M 25 21 " clip-rule="nonzero"/></clipPath><clipPath id="c8e26c4f97"><path d="M 25 1.660156 L 36.171875 1.660156 L 36.171875 11 L 25 11 Z M 25 1.660156 " clip-rule="nonzero"/></clipPath></defs><g clip-path="url(#e9ccd2e865)"><path fill="#000000" d="M 12.578125 16.679688 L 28.726562 16.679688 C 29.011719 16.679688 29.203125 16.867188 29.203125 17.152344 L 29.203125 36.152344 C 29.203125 36.4375 29.011719 36.628906 28.726562 36.628906 L 26.828125 36.628906 C 26.542969 36.628906 26.351562 36.4375 26.351562 36.152344 L 26.351562 34.726562 L 14.953125 34.726562 L 14.953125 36.152344 C 14.953125 36.4375 14.761719 36.628906 14.476562 36.628906 L 12.578125 36.628906 C 12.292969 36.628906 12.101562 36.4375 12.101562 36.152344 L 12.101562 17.152344 C 12.101562 16.867188 12.292969 16.679688 12.578125 16.679688 Z M 20.179688 33.777344 L 20.179688 30.453125 L 13.054688 30.453125 L 13.054688 33.777344 Z M 26.828125 33.777344 L 28.253906 33.777344 L 28.253906 30.453125 L 21.128906 30.453125 L 21.128906 33.777344 Z M 13.054688 25.226562 L 28.253906 25.226562 L 28.253906 21.902344 L 13.054688 21.902344 Z M 13.054688 26.179688 L 13.054688 29.503906 L 28.253906 29.503906 L 28.253906 26.179688 Z M 13.054688 17.628906 L 13.054688 20.953125 L 28.253906 20.953125 L 28.253906 17.628906 Z M 27.304688 35.679688 L 28.253906 35.679688 L 28.253906 34.726562 L 27.304688 34.726562 Z M 13.054688 35.679688 L 14.003906 35.679688 L 14.003906 34.726562 L 13.054688 34.726562 Z M 13.054688 35.679688 " fill-opacity="1" fill-rule="nonzero"/></g><g clip-path="url(#5182e68329)"><path fill="#000000" d="M 1.179688 8.128906 L 20.179688 8.128906 C 20.464844 8.128906 20.652344 8.316406 20.652344 8.601562 L 20.652344 15.253906 L 19.703125 15.253906 L 19.703125 9.078125 L 11.152344 9.078125 L 11.152344 25.703125 L 10.203125 25.703125 L 10.203125 9.078125 L 1.652344 9.078125 L 1.652344 28.554688 L 10.679688 28.554688 L 10.679688 29.503906 L 1.652344 29.503906 L 1.652344 33.777344 L 10.679688 33.777344 L 10.679688 34.726562 L 3.554688 34.726562 L 3.554688 36.152344 C 3.554688 36.4375 3.363281 36.628906 3.078125 36.628906 L 1.179688 36.628906 C 0.894531 36.628906 0.703125 36.4375 0.703125 36.152344 L 0.703125 8.601562 C 0.703125 8.316406 0.894531 8.128906 1.179688 8.128906 Z M 1.652344 35.679688 L 2.601562 35.679688 L 2.601562 34.726562 L 1.652344 34.726562 Z M 1.652344 35.679688 " fill-opacity="1" fill-rule="nonzero"/></g><path fill="#000000" d="M 10.679688 30.929688 L 8.777344 30.929688 L 8.777344 31.878906 L 10.679688 31.878906 Z M 10.679688 30.929688 " fill-opacity="1" fill-rule="nonzero"/><path fill="#000000" d="M 8.777344 15.726562 L 7.828125 15.726562 L 7.828125 20.476562 L 8.777344 20.476562 Z M 8.777344 15.726562 " fill-opacity="1" fill-rule="nonzero"/><path fill="#000000" d="M 22.078125 27.601562 L 19.226562 27.601562 L 19.226562 28.554688 L 22.078125 28.554688 Z M 22.078125 27.601562 " fill-opacity="1" fill-rule="nonzero"/><path fill="#000000" d="M 22.078125 23.328125 L 19.226562 23.328125 L 19.226562 24.277344 L 22.078125 24.277344 Z M 22.078125 23.328125 " fill-opacity="1" fill-rule="nonzero"/><path fill="#000000" d="M 22.078125 19.054688 L 19.226562 19.054688 L 19.226562 20.003906 L 22.078125 20.003906 Z M 22.078125 19.054688 " fill-opacity="1" fill-rule="nonzero"/><g clip-path="url(#766537dc22)"><g clip-path="url(#91a4dd5804)"><path fill="#ffffff" d="M 36.542969 0.75 L 36.542969 25.5 L 12.019531 25.5 L 12.019531 0.75 Z M 36.542969 0.75 " fill-opacity="1" fill-rule="nonzero"/></g></g><g clip-path="url(#cc0b2692a1)"><path fill="#000000" d="M 12.542969 5.863281 L 20.464844 5.863281 L 20.464844 6.535156 L 12.542969 6.535156 C 12.449219 6.535156 12.367188 6.503906 12.304688 6.4375 C 12.238281 6.371094 12.203125 6.292969 12.203125 6.199219 C 12.203125 6.105469 12.238281 6.027344 12.304688 5.960938 C 12.367188 5.894531 12.449219 5.863281 12.542969 5.863281 Z M 12.542969 5.863281 " fill-opacity="1" fill-rule="nonzero"/></g><g clip-path="url(#218e319b2a)"><path fill="#000000" d="M 34.34375 21.664062 L 25.914062 21.664062 L 25.914062 24.917969 L 34.34375 24.917969 Z M 34.34375 21.664062 " fill-opacity="1" fill-rule="nonzero"/></g><path fill="#000000" d="M 28.285156 20.992188 L 31.78125 20.992188 C 35.097656 17.398438 32.300781 12.339844 31.742188 11.410156 L 28.140625 11.410156 C 28.976562 12.921875 31.042969 17.445312 28.285156 20.992188 Z M 28.285156 20.992188 " fill-opacity="1" fill-rule="nonzero"/><path fill="#000000" d="M 24.679688 4.433594 L 21.140625 4.433594 L 21.140625 7.964844 L 24.679688 7.964844 Z M 24.679688 4.433594 " fill-opacity="1" fill-rule="nonzero"/><g clip-path="url(#c8e26c4f97)"><path fill="#000000" d="M 33.359375 1.660156 C 33.730469 1.660156 34.085938 1.730469 34.425781 1.871094 C 34.765625 2.011719 35.066406 2.214844 35.328125 2.472656 C 35.585938 2.734375 35.789062 3.03125 35.929688 3.371094 C 36.070312 3.710938 36.140625 4.066406 36.144531 4.433594 L 36.144531 7.964844 C 36.140625 8.332031 36.070312 8.683594 35.929688 9.023438 C 35.789062 9.363281 35.585938 9.664062 35.328125 9.925781 C 35.066406 10.183594 34.765625 10.382812 34.425781 10.527344 C 34.085938 10.667969 33.730469 10.738281 33.359375 10.738281 L 25.351562 10.738281 L 25.351562 1.660156 Z M 31.648438 8.636719 L 34.230469 8.636719 C 34.324219 8.636719 34.402344 8.601562 34.46875 8.539062 C 34.535156 8.472656 34.566406 8.394531 34.566406 8.300781 C 34.566406 8.207031 34.535156 8.128906 34.46875 8.0625 C 34.402344 7.996094 34.324219 7.964844 34.230469 7.964844 L 31.648438 7.964844 C 31.554688 7.964844 31.472656 7.996094 31.410156 8.0625 C 31.34375 8.128906 31.308594 8.207031 31.308594 8.300781 C 31.308594 8.394531 31.34375 8.472656 31.410156 8.539062 C 31.472656 8.601562 31.554688 8.636719 31.648438 8.636719 Z M 31.648438 6.535156 L 34.230469 6.535156 C 34.324219 6.535156 34.402344 6.503906 34.46875 6.4375 C 34.535156 6.371094 34.566406 6.292969 34.566406 6.199219 C 34.566406 6.105469 34.535156 6.027344 34.46875 5.960938 C 34.402344 5.894531 34.324219 5.863281 34.230469 5.863281 L 31.648438 5.863281 C 31.554688 5.863281 31.472656 5.894531 31.410156 5.960938 C 31.34375 6.027344 31.308594 6.105469 31.308594 6.199219 C 31.308594 6.292969 31.34375 6.371094 31.410156 6.4375 C 31.472656 6.503906 31.554688 6.535156 31.648438 6.535156 Z M 31.648438 4.433594 L 34.230469 4.433594 C 34.324219 4.433594 34.402344 4.402344 34.46875 4.335938 C 34.535156 4.269531 34.566406 4.191406 34.566406 4.097656 C 34.566406 4.003906 34.535156 3.925781 34.46875 3.859375 C 34.402344 3.792969 34.324219 3.761719 34.230469 3.761719 L 31.648438 3.761719 C 31.554688 3.761719 31.472656 3.792969 31.410156 3.859375 C 31.34375 3.925781 31.308594 4.003906 31.308594 4.097656 C 31.308594 4.191406 31.34375 4.269531 31.410156 4.335938 C 31.472656 4.402344 31.554688 4.433594 31.648438 4.433594 Z M 31.648438 4.433594 " fill-opacity="1" fill-rule="nonzero"/></g></svg>