<svg xmlns="http://www.w3.org/2000/svg" xmlns:xlink="http://www.w3.org/1999/xlink" width="41" zoomAndPan="magnify" viewBox="0 0 30.75 30.75" height="41" preserveAspectRatio="xMidYMid meet" version="1.0"><defs><clipPath id="84f2ed01b8"><path d="M 0.75 0.75 L 30 0.75 L 30 30 L 0.75 30 Z M 0.75 0.75 " clip-rule="nonzero"/></clipPath></defs><g clip-path="url(#84f2ed01b8)"><path fill="#374563" d="M 25.714844 5.03125 C 22.953125 2.269531 19.28125 0.75 15.375 0.75 C 11.46875 0.75 7.792969 2.269531 5.03125 5.03125 C 2.269531 7.792969 0.75 11.46875 0.75 15.375 C 0.75 19.28125 2.269531 22.953125 5.03125 25.714844 C 7.792969 28.476562 11.46875 30 15.375 30 C 19.28125 30 22.953125 28.476562 25.714844 25.714844 C 28.476562 22.953125 30 19.28125 30 15.375 C 30 11.46875 28.476562 7.792969 25.714844 5.03125 Z M 5.695312 5.695312 C 8.28125 3.109375 11.71875 1.6875 15.375 1.6875 C 19.03125 1.6875 22.464844 3.109375 25.050781 5.695312 C 27.636719 8.28125 29.058594 11.71875 29.058594 15.375 C 29.058594 18.414062 28.074219 21.300781 26.257812 23.671875 C 24.8125 21.652344 22.503906 20.457031 19.996094 20.457031 L 10.75 20.457031 C 8.242188 20.457031 5.933594 21.652344 4.488281 23.671875 C 2.671875 21.300781 1.6875 18.414062 1.6875 15.375 C 1.6875 11.71875 3.109375 8.28125 5.695312 5.695312 Z M 15.375 19.683594 C 19.132812 19.683594 22.1875 16.628906 22.1875 12.871094 C 22.1875 9.113281 19.132812 6.054688 15.375 6.054688 C 11.617188 6.054688 8.558594 9.113281 8.558594 12.871094 C 8.558594 16.628906 11.617188 19.683594 15.375 19.683594 Z M 15.375 19.683594 " fill-opacity="1" fill-rule="nonzero"/></g></svg>