<svg xmlns="http://www.w3.org/2000/svg" xmlns:xlink="http://www.w3.org/1999/xlink" width="50" zoomAndPan="magnify" viewBox="0 0 37.5 37.499999" height="50" preserveAspectRatio="xMidYMid meet" version="1.0"><defs><clipPath id="8eac0fd42b"><path d="M 6 9.65625 L 26 9.65625 L 26 27.65625 L 6 27.65625 Z M 6 9.65625 " clip-rule="nonzero"/></clipPath><clipPath id="3527d61c00"><path d="M 26 12 L 36.742188 12 L 36.742188 27.65625 L 26 27.65625 Z M 26 12 " clip-rule="nonzero"/></clipPath><clipPath id="f24939bcdb"><path d="M 5 9.65625 L 7 9.65625 L 7 11 L 5 11 Z M 5 9.65625 " clip-rule="nonzero"/></clipPath><clipPath id="6e17eb4ca5"><path d="M 3 9.65625 L 5 9.65625 L 5 11 L 3 11 Z M 3 9.65625 " clip-rule="nonzero"/></clipPath><clipPath id="4c024112d9"><path d="M 0.742188 15 L 2 15 L 2 17 L 0.742188 17 Z M 0.742188 15 " clip-rule="nonzero"/></clipPath></defs><g clip-path="url(#8eac0fd42b)"><path fill="#000000" d="M 15.476562 9.660156 C 18.128906 9.660156 20.78125 9.660156 23.433594 9.660156 C 23.976562 9.660156 24.46875 9.78125 24.925781 10.09375 C 25.351562 10.390625 25.542969 10.753906 25.535156 11.273438 C 25.523438 13.3125 25.53125 15.355469 25.53125 17.398438 C 25.53125 19.613281 25.53125 21.832031 25.53125 24.046875 C 25.53125 24.183594 25.53125 24.320312 25.53125 24.457031 C 25.535156 24.59375 25.476562 24.675781 25.328125 24.675781 C 25.191406 24.675781 25.054688 24.675781 24.917969 24.675781 L 19.140625 24.675781 C 18.457031 24.675781 18.585938 24.648438 18.402344 25.179688 C 18.0625 26.148438 17.390625 26.769531 16.394531 27.046875 C 15.332031 27.347656 13.980469 26.863281 13.398438 25.941406 C 13.207031 25.628906 13.050781 25.296875 12.941406 24.945312 C 12.871094 24.730469 12.777344 24.667969 12.574219 24.671875 C 12.085938 24.679688 11.59375 24.660156 11.101562 24.679688 C 10.265625 24.707031 9.480469 23.980469 9.496094 23.109375 C 9.53125 21.148438 9.507812 19.183594 9.507812 17.21875 C 9.507812 17.140625 9.507812 17.0625 9.507812 16.984375 C 9.507812 16.839844 9.574219 16.769531 9.722656 16.78125 C 9.742188 16.78125 9.761719 16.78125 9.78125 16.78125 C 10.605469 16.78125 10.453125 16.722656 10.457031 17.40625 C 10.464844 19.15625 10.460938 20.90625 10.460938 22.65625 C 10.460938 22.792969 10.449219 22.929688 10.464844 23.0625 C 10.503906 23.492188 10.667969 23.648438 11.09375 23.65625 C 11.585938 23.667969 12.078125 23.648438 12.570312 23.664062 C 12.8125 23.667969 12.875 23.566406 12.949219 23.34375 C 13.375 22.027344 14.296875 21.269531 15.640625 21.214844 C 16.855469 21.164062 18.003906 21.925781 18.441406 23.210938 C 18.59375 23.652344 18.582031 23.660156 19.03125 23.660156 C 20.722656 23.660156 22.410156 23.660156 24.101562 23.660156 C 24.199219 23.660156 24.304688 23.683594 24.390625 23.648438 C 24.480469 23.613281 24.539062 23.550781 24.570312 23.460938 C 24.601562 23.332031 24.582031 23.191406 24.582031 23.054688 C 24.582031 19.265625 24.582031 15.472656 24.582031 11.679688 C 24.582031 10.9375 24.324219 10.679688 23.546875 10.679688 C 21.40625 10.675781 19.265625 10.675781 17.125 10.679688 L 11.230469 10.679688 C 11.09375 10.679688 10.957031 10.671875 10.820312 10.683594 C 10.539062 10.699219 10.476562 10.753906 10.464844 11.03125 C 10.453125 11.441406 10.457031 11.847656 10.460938 12.257812 C 10.464844 12.449219 10.394531 12.539062 10.191406 12.535156 C 9.347656 12.53125 9.523438 12.59375 9.507812 11.914062 C 9.5 11.605469 9.496094 11.292969 9.507812 10.980469 C 9.515625 10.75 9.417969 10.675781 9.195312 10.675781 C 8.566406 10.683594 7.9375 10.683594 7.308594 10.679688 C 6.925781 10.675781 6.925781 10.671875 6.914062 10.296875 C 6.914062 10.21875 6.914062 10.140625 6.914062 10.0625 C 6.925781 9.664062 6.925781 9.660156 7.351562 9.660156 C 10.0625 9.660156 12.773438 9.660156 15.484375 9.660156 Z M 13.847656 24.183594 C 13.847656 24.261719 13.839844 24.339844 13.847656 24.417969 C 13.9375 25.480469 15.121094 26.59375 16.53125 25.9375 C 17.300781 25.574219 17.855469 24.539062 17.421875 23.394531 C 16.980469 22.238281 15.566406 21.878906 14.660156 22.542969 C 14.109375 22.953125 13.816406 23.492188 13.847656 24.183594 Z M 13.847656 24.183594 " fill-opacity="1" fill-rule="nonzero"/></g><g clip-path="url(#3527d61c00)"><path fill="#000000" d="M 29.613281 12.324219 C 30.160156 12.324219 30.710938 12.34375 31.261719 12.320312 C 31.957031 12.289062 32.527344 12.5625 33 13.023438 C 33.316406 13.34375 33.605469 13.683594 33.871094 14.042969 C 34.4375 14.808594 35.003906 15.578125 35.539062 16.363281 C 35.996094 17.035156 36.269531 17.773438 36.257812 18.601562 C 36.246094 19.28125 36.253906 19.960938 36.25 20.640625 C 36.25 20.800781 36.25 20.957031 36.476562 20.972656 C 36.648438 20.984375 36.699219 21.097656 36.699219 21.253906 C 36.699219 21.914062 36.742188 22.578125 36.6875 23.234375 C 36.621094 24.085938 35.929688 24.664062 35.058594 24.675781 C 34.746094 24.679688 34.429688 24.683594 34.117188 24.675781 C 33.90625 24.667969 33.816406 24.738281 33.765625 24.957031 C 33.570312 25.746094 33.117188 26.367188 32.398438 26.765625 C 30.796875 27.65625 28.875 26.878906 28.261719 25.128906 C 28.109375 24.6875 28.121094 24.679688 27.679688 24.679688 C 27.285156 24.675781 26.894531 24.667969 26.5 24.679688 C 26.292969 24.683594 26.21875 24.59375 26.234375 24.398438 C 26.238281 24.324219 26.234375 24.246094 26.234375 24.167969 C 26.234375 20.746094 26.246094 17.324219 26.226562 13.90625 C 26.222656 13.238281 26.496094 12.789062 27.0625 12.496094 C 27.253906 12.398438 27.457031 12.34375 27.667969 12.332031 C 28.316406 12.3125 28.964844 12.324219 29.613281 12.324219 Z M 32.71875 14.257812 C 32.300781 13.589844 31.96875 13.347656 31.425781 13.34375 C 30.230469 13.335938 29.03125 13.335938 27.835938 13.34375 C 27.390625 13.34375 27.234375 13.496094 27.191406 13.921875 C 27.179688 14.039062 27.1875 14.15625 27.1875 14.273438 C 27.1875 17.207031 27.1875 20.144531 27.1875 23.078125 C 27.1875 23.195312 27.191406 23.3125 27.1875 23.425781 C 27.183594 23.570312 27.253906 23.644531 27.394531 23.652344 C 27.492188 23.660156 27.589844 23.660156 27.6875 23.660156 C 28.117188 23.660156 28.117188 23.660156 28.257812 23.257812 C 28.417969 22.796875 28.621094 22.359375 29 22.023438 C 29.796875 21.316406 30.695312 21.015625 31.757812 21.316406 C 32.84375 21.621094 33.464844 22.359375 33.765625 23.394531 C 33.820312 23.582031 33.890625 23.660156 34.078125 23.65625 C 34.429688 23.652344 34.785156 23.667969 35.136719 23.652344 C 35.464844 23.640625 35.652344 23.46875 35.671875 23.15625 C 35.691406 22.839844 35.679688 22.53125 35.671875 22.222656 C 35.671875 22.152344 35.628906 22.023438 35.59375 22.023438 C 35.183594 21.980469 35.3125 21.671875 35.300781 21.449219 C 35.289062 21.097656 35.300781 20.746094 35.296875 20.398438 C 35.296875 20.105469 35.296875 19.816406 35.296875 19.523438 C 35.292969 19.3125 35.1875 19.203125 34.964844 19.210938 C 34.828125 19.214844 34.691406 19.210938 34.554688 19.210938 C 33.21875 19.210938 31.882812 19.214844 30.546875 19.207031 C 29.777344 19.203125 29.109375 18.589844 29.082031 17.835938 C 29.054688 17.117188 29.058594 16.394531 29.082031 15.675781 C 29.105469 14.945312 29.757812 14.324219 30.492188 14.308594 C 31.078125 14.292969 31.667969 14.308594 32.257812 14.304688 C 32.402344 14.300781 32.550781 14.277344 32.71875 14.257812 Z M 32.800781 18.265625 C 33.488281 18.265625 34.171875 18.269531 34.859375 18.261719 C 35.210938 18.257812 35.265625 18.167969 35.144531 17.832031 C 35.113281 17.742188 35.066406 17.65625 35.027344 17.566406 C 34.703125 16.785156 34.109375 16.175781 33.660156 15.472656 C 33.542969 15.289062 33.351562 15.25 33.148438 15.253906 C 32.308594 15.257812 31.46875 15.253906 30.632812 15.269531 C 30.277344 15.277344 30.109375 15.457031 30.105469 15.828125 C 30.089844 16.429688 30.089844 17.03125 30.105469 17.632812 C 30.113281 18.109375 30.269531 18.257812 30.742188 18.265625 C 31.429688 18.269531 32.113281 18.265625 32.800781 18.265625 Z M 32.851562 24.152344 C 32.851562 24.09375 32.851562 24.039062 32.851562 23.980469 C 32.832031 23.242188 32.40625 22.722656 31.8125 22.398438 C 31.214844 22.078125 30.578125 22.144531 29.976562 22.519531 C 29.003906 23.125 28.972656 24.5625 29.4375 25.261719 C 29.734375 25.703125 30.109375 26.023438 30.644531 26.09375 C 31.902344 26.261719 32.863281 25.414062 32.851562 24.152344 Z M 32.851562 24.152344 " fill-opacity="1" fill-rule="nonzero"/></g><path fill="#000000" d="M 12.046875 13.953125 L 7.519531 13.953125 C 7.382812 13.953125 7.238281 13.972656 7.109375 13.945312 C 7.035156 13.929688 6.96875 13.847656 6.921875 13.777344 C 6.894531 13.738281 6.910156 13.664062 6.910156 13.609375 C 6.914062 12.929688 6.863281 13.007812 7.503906 13.007812 C 10.539062 13.007812 13.578125 13.007812 16.617188 13.007812 C 16.734375 13.007812 16.851562 13.015625 16.96875 13.007812 C 17.160156 13 17.257812 13.066406 17.257812 13.273438 C 17.246094 14.074219 17.332031 13.949219 16.632812 13.953125 C 15.105469 13.960938 13.574219 13.953125 12.046875 13.953125 Z M 12.046875 13.953125 " fill-opacity="1" fill-rule="nonzero"/><path fill="#000000" d="M 8.738281 16.410156 C 7.582031 16.410156 6.421875 16.410156 5.261719 16.410156 C 4.808594 16.410156 4.808594 16.40625 4.804688 15.96875 C 4.804688 15.871094 4.808594 15.773438 4.808594 15.679688 C 4.804688 15.535156 4.875 15.464844 5.019531 15.464844 C 5.117188 15.464844 5.214844 15.464844 5.3125 15.464844 C 7.59375 15.464844 9.871094 15.464844 12.152344 15.464844 C 12.269531 15.464844 12.390625 15.457031 12.503906 15.480469 C 12.5625 15.492188 12.652344 15.566406 12.652344 15.617188 C 12.652344 15.863281 12.628906 16.109375 12.609375 16.359375 C 12.417969 16.375 12.230469 16.40625 12.039062 16.410156 C 10.941406 16.414062 9.839844 16.410156 8.738281 16.410156 Z M 8.738281 16.410156 " fill-opacity="1" fill-rule="nonzero"/><path fill="#000000" d="M 16.460938 24.191406 C 16.457031 24.65625 16.167969 24.929688 15.691406 24.929688 C 15.195312 24.929688 14.90625 24.625 14.925781 24.125 C 14.941406 23.683594 15.273438 23.386719 15.726562 23.40625 C 16.1875 23.425781 16.46875 23.726562 16.460938 24.191406 Z M 16.460938 24.191406 " fill-opacity="1" fill-rule="nonzero"/><path fill="#000000" d="M 30.976562 24.929688 C 30.507812 24.925781 30.234375 24.636719 30.238281 24.152344 C 30.242188 23.6875 30.539062 23.421875 31.007812 23.398438 C 31.449219 23.378906 31.824219 23.769531 31.785156 24.210938 C 31.738281 24.664062 31.460938 24.9375 30.976562 24.929688 Z M 30.976562 24.929688 " fill-opacity="1" fill-rule="nonzero"/><g clip-path="url(#f24939bcdb)"><path fill="#000000" d="M 6.265625 10.191406 C 6.265625 10.339844 6.214844 10.464844 6.109375 10.570312 C 6.003906 10.675781 5.875 10.726562 5.726562 10.726562 C 5.578125 10.726562 5.449219 10.675781 5.34375 10.570312 C 5.238281 10.464844 5.1875 10.339844 5.1875 10.191406 C 5.1875 10.046875 5.238281 9.917969 5.34375 9.816406 C 5.449219 9.710938 5.578125 9.65625 5.726562 9.65625 C 5.875 9.65625 6.003906 9.710938 6.109375 9.816406 C 6.214844 9.917969 6.265625 10.046875 6.265625 10.191406 Z M 6.265625 10.191406 " fill-opacity="1" fill-rule="nonzero"/></g><g clip-path="url(#6e17eb4ca5)"><path fill="#000000" d="M 4.171875 10.191406 C 4.171875 10.339844 4.121094 10.464844 4.015625 10.570312 C 3.910156 10.675781 3.78125 10.726562 3.632812 10.726562 C 3.484375 10.726562 3.355469 10.675781 3.25 10.570312 C 3.144531 10.464844 3.09375 10.339844 3.09375 10.191406 C 3.09375 10.046875 3.144531 9.917969 3.25 9.816406 C 3.355469 9.710938 3.484375 9.65625 3.632812 9.65625 C 3.78125 9.65625 3.910156 9.710938 4.015625 9.816406 C 4.121094 9.917969 4.171875 10.046875 4.171875 10.191406 Z M 4.171875 10.191406 " fill-opacity="1" fill-rule="nonzero"/></g><path fill="#000000" d="M 5.726562 13.484375 C 5.726562 13.628906 5.675781 13.757812 5.570312 13.859375 C 5.464844 13.964844 5.335938 14.019531 5.1875 14.019531 C 5.039062 14.019531 4.910156 13.964844 4.804688 13.859375 C 4.699219 13.757812 4.648438 13.628906 4.648438 13.484375 C 4.648438 13.335938 4.699219 13.210938 4.804688 13.105469 C 4.910156 13 5.039062 12.949219 5.1875 12.949219 C 5.335938 12.949219 5.464844 13 5.570312 13.105469 C 5.675781 13.210938 5.726562 13.335938 5.726562 13.484375 Z M 5.726562 13.484375 " fill-opacity="1" fill-rule="nonzero"/><path fill="#000000" d="M 3.632812 15.9375 C 3.632812 16.085938 3.582031 16.210938 3.476562 16.316406 C 3.371094 16.421875 3.242188 16.472656 3.09375 16.472656 C 2.945312 16.472656 2.816406 16.421875 2.710938 16.316406 C 2.605469 16.210938 2.550781 16.085938 2.550781 15.9375 C 2.550781 15.792969 2.605469 15.664062 2.710938 15.558594 C 2.816406 15.457031 2.945312 15.402344 3.09375 15.402344 C 3.242188 15.402344 3.371094 15.457031 3.476562 15.558594 C 3.582031 15.664062 3.632812 15.792969 3.632812 15.9375 Z M 3.632812 15.9375 " fill-opacity="1" fill-rule="nonzero"/><g clip-path="url(#4c024112d9)"><path fill="#000000" d="M 1.820312 15.9375 C 1.820312 16.085938 1.769531 16.210938 1.664062 16.316406 C 1.558594 16.421875 1.429688 16.472656 1.28125 16.472656 C 1.132812 16.472656 1.003906 16.421875 0.898438 16.316406 C 0.792969 16.210938 0.742188 16.085938 0.742188 15.9375 C 0.742188 15.792969 0.792969 15.664062 0.898438 15.558594 C 1.003906 15.457031 1.132812 15.402344 1.28125 15.402344 C 1.429688 15.402344 1.558594 15.457031 1.664062 15.558594 C 1.769531 15.664062 1.820312 15.792969 1.820312 15.9375 Z M 1.820312 15.9375 " fill-opacity="1" fill-rule="nonzero"/></g></svg>