<svg xmlns="http://www.w3.org/2000/svg" xmlns:xlink="http://www.w3.org/1999/xlink" width="500" zoomAndPan="magnify" viewBox="0 0 375 374.999991" height="500" preserveAspectRatio="xMidYMid meet" version="1.0"><defs><clipPath id="d6d9b220f0"><path d="M 0.691406 0.691406 L 374.941406 0.691406 L 374.941406 374.941406 L 0.691406 374.941406 Z M 0.691406 0.691406 " clip-rule="nonzero"/></clipPath></defs><path fill="#f1f1f1" d="M 196.832031 368.871094 L 368.832031 368.871094 L 356.761719 103.328125 L 127.429688 103.328125 L 125.234375 157.644531 L 211.921875 157.644531 L 211.921875 353.78125 C 211.921875 362.117188 205.167969 368.871094 196.832031 368.871094 Z M 196.832031 368.871094 " fill-opacity="1" fill-rule="nonzero"/><path fill="#000000" d="M 175.710938 181.78125 L 151.570312 181.78125 C 148.238281 181.78125 145.535156 184.484375 145.535156 187.816406 C 145.535156 191.152344 148.238281 193.851562 151.570312 193.851562 L 157.605469 193.851562 L 157.605469 236.097656 C 157.605469 262.722656 135.945312 284.378906 109.324219 284.378906 C 82.703125 284.378906 61.042969 262.722656 61.042969 236.097656 L 61.042969 193.851562 L 67.078125 193.851562 C 70.410156 193.851562 73.113281 191.152344 73.113281 187.816406 C 73.113281 184.484375 70.410156 181.78125 67.078125 181.78125 L 42.9375 181.78125 C 39.605469 181.78125 36.902344 184.484375 36.902344 187.816406 C 36.902344 191.152344 39.605469 193.851562 42.9375 193.851562 L 48.972656 193.851562 L 48.972656 236.097656 C 48.972656 269.375 76.046875 296.449219 109.324219 296.449219 C 142.601562 296.449219 169.675781 269.375 169.675781 236.097656 L 169.675781 193.851562 L 175.710938 193.851562 C 179.042969 193.851562 181.746094 191.152344 181.746094 187.816406 C 181.746094 184.484375 179.042969 181.78125 175.710938 181.78125 Z M 175.710938 181.78125 " fill-opacity="1" fill-rule="nonzero"/><g clip-path="url(#d6d9b220f0)"><path fill="#000000" d="M 362.789062 103.054688 C 362.648438 99.828125 359.992188 97.292969 356.761719 97.292969 L 308.480469 97.292969 L 308.480469 67.117188 C 308.480469 30.515625 278.699219 0.730469 242.097656 0.730469 C 205.492188 0.730469 175.710938 30.515625 175.710938 67.117188 L 175.710938 97.292969 L 127.429688 97.292969 C 124.191406 97.292969 121.53125 99.847656 121.402344 103.085938 L 119.441406 151.609375 L 6.726562 151.609375 C 3.394531 151.609375 0.691406 154.308594 0.691406 157.644531 L 0.691406 353.78125 C 0.691406 365.429688 10.167969 374.90625 21.816406 374.90625 L 368.832031 374.90625 C 370.476562 374.90625 372.054688 374.234375 373.191406 373.042969 C 374.332031 371.851562 374.933594 370.242188 374.859375 368.597656 Z M 187.78125 67.117188 C 187.78125 37.167969 212.148438 12.800781 242.097656 12.800781 C 272.046875 12.800781 296.410156 37.167969 296.410156 67.117188 L 296.410156 97.292969 L 187.78125 97.292969 Z M 205.886719 353.78125 C 205.886719 358.777344 201.828125 362.835938 196.832031 362.835938 L 21.816406 362.835938 C 16.820312 362.835938 12.761719 358.777344 12.761719 353.78125 L 12.761719 163.675781 L 205.886719 163.675781 Z M 215.910156 362.835938 C 217.222656 360.089844 217.957031 357.019531 217.957031 353.78125 L 217.957031 157.644531 C 217.957031 154.308594 215.253906 151.609375 211.921875 151.609375 L 131.519531 151.609375 L 133.222656 109.363281 L 175.710938 109.363281 L 175.710938 121.433594 L 169.675781 121.433594 C 166.339844 121.433594 163.640625 124.132812 163.640625 127.46875 C 163.640625 130.800781 166.339844 133.503906 169.675781 133.503906 L 193.816406 133.503906 C 197.148438 133.503906 199.851562 130.800781 199.851562 127.46875 C 199.851562 124.132812 197.148438 121.433594 193.816406 121.433594 L 187.78125 121.433594 L 187.78125 109.363281 L 296.410156 109.363281 L 296.410156 121.433594 L 290.375 121.433594 C 287.042969 121.433594 284.339844 124.132812 284.339844 127.46875 C 284.339844 130.800781 287.042969 133.503906 290.375 133.503906 L 314.515625 133.503906 C 317.851562 133.503906 320.550781 130.800781 320.550781 127.46875 C 320.550781 124.132812 317.851562 121.433594 314.515625 121.433594 L 308.480469 121.433594 L 308.480469 109.363281 L 351 109.363281 L 362.519531 362.835938 Z M 215.910156 362.835938 " fill-opacity="1" fill-rule="nonzero"/></g></svg>