<svg xmlns="http://www.w3.org/2000/svg" xmlns:xlink="http://www.w3.org/1999/xlink" width="50" zoomAndPan="magnify" viewBox="0 0 37.5 37.499999" height="50" preserveAspectRatio="xMidYMid meet" version="1.0"><defs><clipPath id="ab207719f6"><path d="M 6 1.148438 L 31 1.148438 L 31 11 L 6 11 Z M 6 1.148438 " clip-rule="nonzero"/></clipPath><clipPath id="1c95d534b3"><path d="M 20 10 L 32.253906 10 L 32.253906 31.898438 L 20 31.898438 Z M 20 10 " clip-rule="nonzero"/></clipPath><clipPath id="a62407a9ef"><path d="M 5.253906 10 L 18 10 L 18 31.898438 L 5.253906 31.898438 Z M 5.253906 10 " clip-rule="nonzero"/></clipPath><clipPath id="39d7158f2b"><path d="M 0.5 27.484375 L 37.007812 27.484375 L 37.007812 36.484375 L 0.5 36.484375 Z M 0.5 27.484375 " clip-rule="nonzero"/></clipPath></defs><g clip-path="url(#ab207719f6)"><path fill="#000000" d="M 27.054688 10.539062 L 18.753906 5.695312 L 10.453125 10.539062 L 6.558594 8.265625 L 18.753906 1.148438 L 30.953125 8.265625 Z M 27.054688 10.539062 " fill-opacity="1" fill-rule="nonzero"/></g><path fill="#000000" d="M 13.046875 21.746094 L 18.753906 18.417969 L 24.460938 21.75 L 18.753906 25.078125 Z M 13.046875 21.746094 " fill-opacity="1" fill-rule="nonzero"/><path fill="#000000" d="M 20.054688 9.484375 L 25.757812 12.8125 L 25.757812 19.472656 L 20.054688 16.144531 Z M 20.054688 9.484375 " fill-opacity="1" fill-rule="nonzero"/><path fill="#000000" d="M 17.453125 16.144531 L 11.75 19.472656 L 11.75 12.8125 L 17.453125 9.484375 Z M 17.453125 16.144531 " fill-opacity="1" fill-rule="nonzero"/><g clip-path="url(#1c95d534b3)"><path fill="#000000" d="M 32.25 24.78125 L 20.054688 31.898438 L 20.054688 27.351562 L 28.359375 22.503906 L 28.359375 12.8125 L 32.253906 10.539062 L 32.253906 24.773438 Z M 32.25 24.78125 " fill-opacity="1" fill-rule="nonzero"/></g><g clip-path="url(#a62407a9ef)"><path fill="#000000" d="M 9.152344 12.8125 L 9.152344 22.503906 L 17.453125 27.347656 L 17.453125 31.898438 L 5.253906 24.777344 L 5.253906 10.539062 Z M 9.152344 12.8125 " fill-opacity="1" fill-rule="nonzero"/></g><g clip-path="url(#39d7158f2b)"><path fill="#000000" d="M 31.136719 27.488281 C 32.667969 28.136719 33.558594 28.917969 33.558594 29.757812 C 33.558594 32.039062 26.988281 33.886719 18.878906 33.886719 C 10.765625 33.886719 4.195312 32.039062 4.195312 29.757812 C 4.195312 28.917969 5.085938 28.136719 6.617188 27.488281 C 2.871094 28.433594 0.515625 29.800781 0.515625 31.328125 C 0.515625 34.179688 8.738281 36.488281 18.878906 36.488281 C 29.015625 36.488281 37.238281 34.179688 37.238281 31.328125 C 37.238281 29.800781 34.882812 28.433594 31.136719 27.488281 " fill-opacity="1" fill-rule="nonzero"/></g></svg>